<svg width="100" height="100" viewBox="0 0 100 100" fill="none" xmlns="http://www.w3.org/2000/svg">
<rect width="100" height="100" rx="10" fill="url(#paint0_linear_96_40)"/>
<path d="M23.7801 36.433C21.156 34.6184 21.4585 30.8423 23.9464 29.7317C26.6575 28.5195 27.27 32.8263 26.0752 34.5129C26.6159 32.3708 23.8065 33.4475 25.4173 36.433C26.5516 38.545 27.5952 40.145 25.4891 41.8504C26.4987 39.953 25.3795 37.6151 23.7801 36.433Z" fill="white"/>
<path d="M23.402 57.1768C22.1051 58.3062 21.9652 60.1886 22.5021 61.6455C23.2167 63.5994 25.1488 65.7867 25.2093 67.959C25.6139 67.4658 26.0979 66.31 26.7217 66.0766C25.7765 68.3355 25.4929 71.6334 26.9183 73.7529C29.2513 69.3632 29.0471 66.822 26.2831 62.7034C26.1867 63.2081 25.9404 63.6723 25.5761 64.0361C25.895 63.0366 26.083 62.0003 26.1357 60.9528C25.9188 60.7827 25.7153 60.5965 25.5269 60.3956C24.7291 59.3227 25.198 57.5118 24.9409 56.2544C24.6421 56.8003 24.0939 57.3951 23.402 57.1768Z" fill="white"/>
<path d="M40.0386 41.5455C39.256 41.8467 37.1234 43.3413 37.1234 43.3413C37.0168 42.9993 36.8906 42.6637 36.7453 42.3361C36.5434 42.0311 36.3237 41.7382 36.0874 41.4589C36.0723 41.3121 38.9043 40.5892 40.0386 41.5455Z" fill="white"/>
<path d="M48.7048 61.5137C47.9876 61.5638 47.2673 61.4756 46.5837 61.2539C46.2008 61.5836 45.7966 61.8879 45.3737 62.165C45.4185 62.2098 45.4665 62.2513 45.5174 62.2892C45.9493 62.6093 46.4602 62.807 46.9958 62.8615L47.4495 62.9142C48.6292 62.9518 50.3723 62.9142 51.3402 62.1311C50.8992 61.8082 50.4368 61.5152 49.9564 61.2539L49.1623 61.4459C49.0121 61.4816 48.859 61.5043 48.7048 61.5137Z" fill="white"/>
<path d="M40.4167 63.2605C41.4232 63.4399 42.4574 63.3897 43.4416 63.1136C44.3226 63.3885 45.5098 63.9005 46.4438 63.9682C46.4211 64.0097 46.3984 64.0511 46.3681 64.0962C45.9173 64.787 45.213 65.2748 44.4058 65.4553C43.8726 65.5833 43.3093 65.6963 42.9501 65.7565C42.2098 66.0092 41.5301 66.4117 40.9537 66.9386C41.1241 66.4488 41.2506 65.9448 41.3318 65.4327C41.3537 65.3038 41.3471 65.1717 41.3125 65.0455C41.2779 64.9194 41.2161 64.8023 41.1314 64.7024C40.8024 64.3071 40.3752 63.8365 40.3071 63.4186L40.4167 63.2605Z" fill="white"/>
<path d="M39.7589 64.3711C39.7589 65.4064 38.7644 66.0088 37.8683 66.5622C37.4193 66.8332 37.029 67.1905 36.72 67.6132C36.411 68.0359 36.1896 68.5156 36.0685 69.0243V69.077C35.9387 69.7525 35.9616 70.4482 36.1356 71.1138C36.3096 71.7793 36.6302 72.3979 37.0743 72.9246C38.8363 75.1044 40.2504 78.2894 38.0271 80.5633C40.602 80.9661 41.9972 78.1501 41.4301 75.9552C40.6512 74.0126 38.6888 72.0813 38.7833 69.8714C38.7002 68.102 41.2978 65.7866 39.7589 64.3711Z" fill="white"/>
<path d="M34.7452 70.4549C27.9393 75.5034 34.3671 78.7374 31.5275 81.8395C33.3613 82.5172 35.1497 80.6047 34.7452 78.7976C35.6564 79.9609 35.0212 81.8847 34.0684 82.8409C34.6658 84.136 36.2614 85.0546 37.6377 85.209L38.806 85.352C38.9412 85.3641 39.0723 85.4037 39.1914 85.4685C39.3104 85.5332 39.4148 85.6218 39.498 85.7285C39.8042 86.1577 39.6076 86.617 38.9346 86.8579C39.2523 86.9203 39.575 86.9543 39.8988 86.9596C40.3149 86.9818 40.7235 86.843 41.0392 86.5722C41.355 86.3014 41.5533 85.9195 41.5927 85.5064V85.4763C41.5946 85.1982 41.4934 84.9292 41.3085 84.7208C41.1236 84.5124 40.868 84.3793 40.5907 84.3468C39.3202 84.1624 38.4317 83.5939 38.9686 82.0616C37.8698 82.23 36.7455 82.0592 35.7471 81.5722C37.4297 80.695 38.0158 78.8767 38.0158 77.0997C38.0265 76.4527 37.8407 75.8176 37.4827 75.2776C36.3672 73.6286 34.1704 72.2018 35.0098 70.1876L34.7452 70.4549Z" fill="white"/>
<path d="M54.8339 70.5264C54.5428 67.4732 55.7679 67.541 56.4636 65.956C55.7981 64.4802 53.2913 64.4049 52.4935 63.1136C52.4334 63.025 52.3887 62.927 52.3611 62.8237C50.9153 63.7833 49.1676 64.1849 47.4457 63.9532C47.9524 65.0449 46.4664 65.9108 45.7632 66.4831C44.0617 67.8647 42.6362 70.6808 44.5192 72.1302C44.751 72.2926 45.0059 72.4195 45.2754 72.5067C47.8995 73.4554 49.4724 76.3881 48.1339 79.0084C47.4873 73.1203 44.4284 74.5472 42.7912 71.5278C42.4184 70.8248 42.2857 70.0199 42.4131 69.2351C42.5879 68.2216 43.1351 67.309 43.9483 66.6751C42.795 66.9012 41.7393 67.4741 40.9234 68.3165C38.84 70.5001 41.2372 73.557 42.3829 75.5298C43.4567 77.623 42.761 81.8432 39.929 82.0164C39.9831 82.3081 40.1005 82.5844 40.2729 82.8263C40.4453 83.0682 40.6686 83.2697 40.9272 83.4169L41.8725 83.9515C42.2108 84.1296 42.4978 84.3908 42.7062 84.7104C42.9147 85.0299 43.0376 85.3972 43.0635 85.7774C43.0794 86.012 43.044 86.2473 42.9598 86.4669C42.8756 86.6866 42.7446 86.8855 42.5757 87.0499C44.7007 87.193 45.1355 86.3948 46.0505 84.7007C44.7309 84.2903 43.9558 83.5298 43.7819 82.4418C43.696 81.7781 43.8633 81.1063 44.2507 80.5595C44.571 80.1039 44.8255 79.6059 45.007 79.0799C45.1521 78.6523 45.1845 78.1948 45.1011 77.7511C45.0177 77.3075 44.8212 76.8926 44.5305 76.5462C44.3599 76.3326 44.1728 76.1324 43.9709 75.9476C43.5644 75.7226 43.245 75.3688 43.0635 74.9425C44.886 76.1208 47.9789 77.9543 46.353 80.183C45.1544 81.5458 45.4909 83.9967 47.597 84.1171C46.9239 81.8959 48.7956 79.6371 50.9016 79.0912C49.2455 80.0136 48.1604 82.2498 48.7351 84.1171C51.5255 84.4296 55.5788 83.6315 55.6431 79.9985C55.6847 77.5778 53.2345 76.4785 51.6541 75.1909C50.7958 74.261 50.8978 72.9584 51.4159 71.893C51.8975 71.0048 52.0666 69.9816 51.896 68.9866C51.8124 68.4126 51.5475 67.8799 51.1396 67.4657C50.7318 67.0515 50.2022 66.7773 49.6274 66.6826C50.3099 66.6078 50.9987 66.7495 51.5955 67.0875C52.1924 67.4256 52.6667 67.9426 52.951 68.565C53.3078 69.3607 53.343 70.2627 53.0493 71.0836C52.7014 72.1528 52.4632 73.5119 53.0493 74.4417C53.6449 75.1641 54.3181 75.8193 55.057 76.3956C55.5412 76.8079 55.9339 77.316 56.21 77.8877C56.486 78.4594 56.6395 79.0821 56.6605 79.7161C56.6814 80.3501 56.5695 80.9815 56.3319 81.5701C56.0942 82.1587 55.736 82.6915 55.2801 83.1345C55.0484 83.3473 54.7949 83.5353 54.5239 83.6955C55.62 83.5185 56.7027 83.2669 57.7643 82.9425C57.1933 82.7016 56.8076 82.2837 57.3067 81.7943C57.6481 81.4877 57.8818 81.0803 57.9737 80.6318C58.0655 80.1833 58.0107 79.7172 57.8172 79.302C58.0667 78.2328 58.1953 76.8286 58.8645 75.9138C59.1506 75.5549 59.3417 75.1303 59.4204 74.6789C59.8438 71.8817 55.3292 73.3199 54.8339 70.5264Z" fill="white"/>
<path d="M57.4996 66.837C57.0922 67.0105 56.759 67.321 56.5581 67.7142C56.2867 68.2028 56.1443 68.7521 56.1443 69.3105C56.1443 69.8689 56.2867 70.4181 56.5581 70.9067V70.9256C56.6451 71.0937 56.7686 71.2404 56.9197 71.355C57.0708 71.4696 57.2456 71.5493 57.4315 71.5881C57.6004 71.6183 57.7743 71.6409 57.9533 71.6559C58.4095 71.6909 58.8487 71.843 59.2282 72.0974C59.6077 72.3518 59.9145 72.6999 60.1187 73.1075C60.3228 73.5152 60.4173 73.9686 60.393 74.4235C60.3687 74.8784 60.2264 75.3192 59.98 75.703L59.9232 75.7858C59.7341 76.036 59.6022 76.3244 59.5369 76.6307C59.4716 76.9371 59.4744 77.2539 59.5451 77.559C59.7039 78.1539 60.1161 78.5454 61.0273 78.5567C60.2711 77.0508 61.5075 75.1948 62.638 74.2272C63.882 73.1995 64.1505 72.5256 63.4434 71.0423C62.0784 69.0093 59.4355 68.1434 57.4996 66.837Z" fill="white"/>
<path d="M58.7171 78.5567C57.9609 80.7365 61.3109 79.6861 62.4982 79.9346C64.0484 80.2772 65.523 81.2335 64.7441 82.969C67.2547 81.8396 67.2245 77.8979 64.5966 76.8739C63.7572 77.3784 62.5587 77.5741 61.8894 76.7045C61.5529 77.4574 61.7533 78.8391 62.3772 79.4C61.2466 79.385 59.4506 79.5883 58.7171 78.5567Z" fill="white"/>
<path d="M46.9353 84.938C49.2909 85.4236 51.9755 85.1714 54.3159 84.5427C54.6482 84.4524 54.9852 84.3808 55.3255 84.3281L57.3294 84.0382C57.9306 83.9892 59.4241 83.9064 59.8401 83.3568C56.7358 81.5346 59.0838 82.1144 58.7436 80.6047C59.4468 81.5045 60.8647 81.1694 61.8402 81.1469C64.9218 80.9925 64.5475 83.4057 62.2562 84.5351C61.2428 85.0471 59.8136 84.9116 58.7171 85.2881C57.9609 85.5516 59.0952 86.2632 59.133 86.1841C58.5658 86.6584 57.6811 86.5982 57.0118 86.4288C56.7963 86.3761 56.3539 85.9243 56.1082 85.9168C55.1302 85.898 54.1536 85.9992 53.2005 86.218C52.6969 86.3441 52.2124 86.5366 51.7599 86.7902C51.0114 87.1148 50.219 87.3279 49.4081 87.4227C49.5009 87.4069 49.5845 87.3573 49.6425 87.2834C49.7159 87.1859 49.7566 87.0678 49.7588 86.9459C49.7609 86.8241 49.7244 86.7046 49.6545 86.6046C49.5846 86.5045 49.4848 86.429 49.3693 86.3886C49.2538 86.3483 49.1285 86.3452 49.0111 86.3799C48.2851 86.5832 47.4079 86.8843 47.1395 86.9596C46.4891 87.242 45.8237 87.4265 45.1884 87.0726H45.23C45.5868 86.963 45.9149 86.7762 46.1908 86.5257C46.4666 86.2751 46.6834 85.9669 46.8256 85.6231C46.9143 85.4061 46.9518 85.1717 46.9353 84.938Z" fill="white"/>
<path d="M70.9413 58.8859C69.8703 58.2031 69.0319 57.2135 68.5365 56.0473C68.1714 55.2233 68.1151 54.2964 68.3777 53.4346C67.2925 54.003 66.2679 55.0873 66.1091 56.3485C66.5363 55.8327 67.3795 56.1226 67.8899 56.4614C67.9104 56.4752 67.9276 56.4934 67.9401 56.5146C67.9526 56.5358 67.9603 56.5595 67.9624 56.5841C67.9646 56.6086 67.9613 56.6333 67.9526 56.6563C67.944 56.6794 67.9304 56.7003 67.9126 56.7174C67.1564 57.4101 65.4512 56.1264 63.9387 58.0238C63.8329 58.1744 63.7157 58.3626 63.5947 58.5772C63.3733 58.9669 63.2419 59.4009 63.2101 59.8475C63.1784 60.2941 63.2471 60.7421 63.4111 61.159C63.5752 61.5759 63.8305 61.9511 64.1586 62.2573C64.4866 62.5635 64.8791 62.7931 65.3075 62.9293C65.7643 63.0782 66.2572 63.077 66.7133 62.9259C67.1695 62.7747 67.5647 62.4816 67.8408 62.0897C68.0109 63.9721 66.6006 64.5594 65.1638 64.326C64.5846 64.2175 64.0363 63.984 63.5575 63.6419C63.0787 63.2998 62.6809 62.8573 62.3923 62.3457C61.2088 60.3617 60.5585 58.2045 57.889 57.5645C58.2939 58.1115 58.5915 58.7297 58.7662 59.3866C58.8835 60.1396 58.9893 61.6229 59.2313 62.3231C59.8779 64.3787 62.0633 67.3679 64.453 65.7717C64.124 67.2135 62.5208 67.8874 61.1597 67.7406C63.3791 68.9867 67.0884 72.6649 63.8064 74.7355C63.3489 74.9802 62.604 75.4621 62.6721 76.072C62.8044 76.2078 62.973 76.303 63.1579 76.3464C63.3429 76.3897 63.5364 76.3795 63.7157 76.3167C64.1852 76.0928 64.6786 75.9223 65.1865 75.8085C66.2527 75.6127 67.3946 75.7144 68.2113 76.4598C67.8332 75.4508 66.9976 75.0405 66.1847 74.4456C67.1715 74.2536 68.1357 74.8447 69.0885 75.2438C69.3458 75.3508 69.6279 75.385 69.9035 75.3425C70.179 75.3 70.4374 75.1824 70.6501 75.0028C70.6286 74.8076 70.6286 74.6107 70.6501 74.4155C70.774 73.3485 71.1987 72.3383 71.8752 71.5016C72.6995 70.4512 71.826 70.4475 71.7996 68.2714C71.7995 67.4528 71.9601 66.642 72.2722 65.8846C72.5714 65.1235 72.8067 64.339 72.9755 63.5392C73.1336 62.6503 73.025 61.7348 72.6631 60.9071C72.3013 60.0794 71.7024 59.3764 70.9413 58.8859ZM69.3532 70.1802C68.926 70.5002 68.0488 70.2479 68.2189 69.6268C65.315 72.5407 69.0961 74.1445 70.843 70.5717C70.7409 71.7011 70.4875 73.0075 69.3532 73.5157C66.4418 74.5586 65.0579 71.7124 66.4985 69.3745C67.8975 67.9665 67.0316 66.0239 65.5986 65.0338C68.1584 66.5208 69.4213 64.6799 69.6481 62.2102C69.4402 60.6591 67.8786 59.3565 67.1829 58.0087C71.8979 60.9565 72.1815 62.5264 68.8655 66.9463C68.3966 67.831 67.9731 69.8865 69.3532 70.1651V70.1802Z" fill="white"/>
<path d="M66.4494 76.6781C68.1962 76.7045 68.6424 78.1012 67.5497 79.6184C67.5497 78.568 66.6195 77.1713 65.5986 76.8739C65.8637 76.7453 66.1546 76.6784 66.4494 76.6781Z" fill="white"/>
<path d="M72.9339 59.3076C73.2253 59.4395 73.4823 59.6364 73.685 59.8832C73.8876 60.13 74.0304 60.42 74.1022 60.7307C74.1753 61.0473 74.2196 61.3699 74.2345 61.6944C74.872 61.4509 75.4514 61.0778 75.936 60.5989C76.2413 59.8789 76.2535 59.0689 75.9701 58.34C75.8707 58.1236 75.8094 57.8919 75.7886 57.6549C75.8646 57.533 75.9741 57.4353 76.104 57.3732C76.234 57.3112 76.379 57.2874 76.5221 57.3047C76.6259 57.3122 76.7261 57.3459 76.8132 57.4026C76.805 57.2729 76.7743 57.1455 76.7225 57.0261C76.3809 56.8613 75.9894 56.8304 75.626 56.9396L75.3953 57.0111C75.3431 57.0271 75.2961 57.0569 75.2595 57.0973C75.2229 57.1377 75.198 57.1873 75.1874 57.2407C75.0958 57.7747 74.8118 58.257 74.3886 58.5973C73.9654 58.9376 73.432 59.1125 72.8885 59.0892C72.686 59.0801 72.4866 59.0369 72.2986 58.9612L72.9339 59.3076Z" fill="white"/>
<path d="M70.1283 46.9931C67.9845 48.066 68.563 51.5974 71.2626 50.2533C70.2569 49.5719 69.9052 47.8928 70.3854 46.8086L70.1283 46.9931Z" fill="white"/>
<path d="M71.463 47.6105C71.3874 48.883 72.4575 50.6524 73.8791 49.9258C72.8091 49.602 71.9394 48.5818 71.463 47.6105Z" fill="white"/>
<path d="M78.9343 47.7876C78.8229 47.4449 78.601 47.1484 78.3029 46.9443C78.0842 46.7806 77.8529 46.6346 77.6109 46.5076C77.3215 46.3793 77.0946 46.1426 76.9795 45.8487C76.937 45.7542 76.9189 45.6507 76.9268 45.5475C76.9347 45.4442 76.9684 45.3446 77.0249 45.2577C75.5314 45.8186 76.3934 48.2356 77.8492 48.1791C75.6372 49.2069 74.1059 45.781 75.8187 44.4633C73.9471 42.9085 76.2611 40.2468 74.0076 39.1927C76.9719 39.5955 75.5427 43.0628 76.8812 44.3504C76.8925 44.2359 76.8861 44.1203 76.8623 44.0078C76.7891 43.5726 76.8032 43.1273 76.9039 42.6976V42.6713C77.0518 42.073 77.0778 41.4513 76.9804 40.8428C76.883 40.2343 76.6641 39.6515 76.3367 39.1287C76.0765 38.7121 75.7349 38.3518 75.3322 38.0692C74.9296 37.7866 74.4739 37.5874 73.9925 37.4835L72.7598 37.2388C72.9943 37.0317 73.8942 36.9865 74.3554 36.9602C74.4835 36.9496 74.6124 36.9663 74.7336 37.0091C75.1857 37.1691 75.5804 37.4585 75.8679 37.8411C75.6725 37.1365 75.6492 36.3956 75.7998 35.6801C75.9155 35.1998 75.9563 34.7046 75.9208 34.2119C75.9038 33.9722 75.8436 33.7376 75.7431 33.5192C75.5756 33.1446 75.292 32.8332 74.9339 32.6307C74.8177 32.5621 74.6881 32.5189 74.5539 32.504C74.4196 32.489 74.2836 32.5027 74.1551 32.5441C73.7265 32.673 73.3596 32.9527 73.1228 33.3309L72.8166 33.843C72.9437 32.7434 73.2489 31.6716 73.7202 30.6693C74.0114 30.0518 74.3101 29.4043 74.5672 28.7869C74.9574 27.8879 75.0883 26.8984 74.9453 25.9295C74.7033 24.4236 73.811 23.569 71.9583 22.7896C72.1965 23.0306 72.7145 23.4447 72.6653 23.8325C72.5927 24.1086 72.6181 24.4011 72.7372 24.6607C73.0297 24.8314 73.2682 25.0806 73.4253 25.3798C74.6768 27.7666 73.6673 29.3855 71.9809 31.4034C71.3684 32.13 71.3382 33.4025 71.2739 34.2947C70.8868 33.6044 70.685 32.8265 70.6878 32.0359C70.6881 31.759 70.7597 31.4868 70.8958 31.2453C71.1826 30.7397 71.5128 30.2598 71.8826 29.8109C72.6388 28.8772 73.017 28.1921 72.7636 26.6184C71.6293 25.3798 71.2512 23.4786 70.6651 21.9576C70.1274 21.199 69.4743 20.5283 68.7292 19.9699C68.4445 19.7585 68.128 19.5933 67.7915 19.4804C67.1979 19.2809 66.3585 19.0136 66.0296 19.104C65.9803 19.5172 66.0484 19.9358 66.2262 20.3124C66.4946 20.8877 66.9222 21.3748 67.4588 21.7167L67.6327 21.8296C68.4268 22.3516 69.2946 22.7526 70.2076 23.0193H70.2454C69.062 23.6442 68.0335 23.3619 66.9294 22.752C66.9451 23.2616 66.8306 23.7668 66.5967 24.2203C66.5106 24.3668 66.4051 24.501 66.2829 24.6193C65.7789 25.0897 65.2189 25.4969 64.6154 25.8316L64.4793 25.8805L63.3072 26.0838L63.3715 26.0575C64.0749 25.7234 64.6823 25.2181 65.1377 24.5884C65.593 23.9586 65.8815 23.2248 65.9766 22.4546C66.0169 22.1348 66.0054 21.8107 65.9426 21.4946C65.5469 21.0946 65.1899 20.6585 64.8763 20.192C64.6938 19.6761 64.5745 19.1401 64.5209 18.5957C64.4828 18.2541 64.4145 17.9165 64.3167 17.5868C64.1803 17.0967 63.8869 16.6645 63.4811 16.3557C62.5094 15.6027 61.8742 15.5538 60.3882 15.4484C59.7227 15.4183 58.0402 15.343 57.4844 15.7872C57.5549 15.865 57.6293 15.9391 57.7074 16.0093C58.5855 16.7962 59.7248 17.232 60.9062 17.2329C61.5722 17.2756 62.2403 17.1939 62.8761 16.9919L62.8383 17.0258C62.319 17.523 61.6593 17.8501 60.9478 17.9632L60.5357 18.0197C59.4475 18.1398 58.355 17.8347 57.4881 17.1689C56.471 16.3896 55.435 15.4296 54.6221 14.6691C53.1097 13.295 49.9033 13.4832 48.5951 15.0456C51.3931 16.5326 48.8219 18.6409 52.7542 20.4367C51.2116 20.6852 49.9827 19.2546 49.2908 18.0574C49.6462 16.6042 48.735 16.0131 47.5742 15.8851C47.0335 15.8172 46.4844 15.8925 45.9824 16.1035C45.6527 16.2356 45.3615 16.4479 45.1354 16.7209C44.7739 17.1517 44.5321 17.6693 44.4339 18.2222C44.3357 18.775 44.3847 19.3438 44.5758 19.872C44.5742 19.887 44.5742 19.9021 44.5758 19.9171C44.8254 20.7228 45.54 21.5059 46.058 22.2475C46.2661 22.5436 46.3866 22.8918 46.4058 23.2527C46.4336 23.6148 46.3198 23.9736 46.0882 24.2541C45.9356 24.3978 45.7607 24.5161 45.5702 24.6043V24.529C45.5896 24.2738 45.5526 24.0176 45.4618 23.7782C45.371 23.5388 45.2286 23.3222 45.0447 23.1435C44.7535 22.8612 44.4397 22.5374 44.1675 22.2513C43.8134 21.8872 43.5538 21.4427 43.4112 20.9562C43.2252 20.2568 43.1752 19.5284 43.2638 18.8103C43.3711 17.8605 43.7853 16.9711 44.444 16.2759C45.1027 15.5807 45.9703 15.1172 46.9163 14.9552C47.1509 14.8827 47.3979 14.8584 47.6423 14.8837C47.6423 14.0893 49.6462 13.5961 50.3268 13.502C46.6781 12.0865 41.2749 13.8145 38.9042 16.8075C40.67 16.9957 41.8308 18.8103 41.6871 20.5007C41.2636 22.2438 39.6037 23.7271 38.7605 25.2593C37.9665 26.6146 37.959 28.7041 38.4429 30.1535C37.717 29.5436 36.6923 28.1732 37.1649 26.5544C38.3295 22.5374 42.6626 19.488 36.4881 17.2856C35.5479 16.9731 34.5395 16.9236 33.5729 17.1425C33.2539 17.1969 32.9419 17.2866 32.6428 17.4098C31.1304 18.1628 29.6973 20.6099 29.996 22.4358C32.9112 24.0019 32.31 25.824 32.4121 28.4857C33.0587 28.1845 32.7524 27.537 33.2137 27.0288C33.9397 26.2306 34.7602 25.4174 33.7279 23.5652C32.5936 21.5247 35.04 20.5534 34.764 18.6371C35.1874 19.6423 34.6732 20.6437 34.3858 21.7092C33.7015 24.2579 36.2234 24.657 33.8489 27.4391C32.0605 29.5398 35.7395 30.3944 34.4615 32.6382C34.1628 31.2528 31.5009 30.4208 31.6068 29.0693C31.6786 28.1205 31.8147 26.1177 31.482 25.0861C31.0073 23.9522 30.1182 23.04 28.9941 22.5336C28.7785 21.9238 28.5214 21.679 28.2378 21.6414C27.8038 21.5589 27.3573 21.5653 26.9258 21.6602C25.8822 21.984 25.5079 22.4584 24.937 23.3845C24.245 24.5139 24.3169 25.8918 25.7537 26.6636C26.0167 26.0876 26.3147 25.5281 26.646 24.9883C27.0241 24.465 28.0942 23.3694 28.8277 23.7497C26.2528 25.2556 24.7517 29.2349 28.6084 29.649C28.253 29.9954 27.4287 29.8975 26.9977 29.7958C28.5819 31.4937 27.7803 34.0764 26.1204 35.4053C26.9031 36.2863 28.1395 37.363 28.5857 38.4886C28.6632 39.1322 28.5945 39.7848 28.3846 40.3984C28.1747 41.0119 27.829 41.5706 27.3731 42.0333C26.9172 42.4959 26.3626 42.8506 25.7505 43.0712C25.1384 43.2917 24.4844 43.3725 23.8367 43.3075C25.1487 41.9597 26.1394 39.0872 23.8367 38.2289C21.7836 39.4562 19.9082 43.0365 22.0785 44.885C23.901 45.6379 25.3302 47.7462 24.9559 49.7415C24.7026 47.8591 22.9292 45.54 21.2013 46.997C18.5167 49.2558 20.7589 54.3044 23.7384 55.814C22.7477 51.1683 28.1811 51.142 25.4928 44.7381C28.8693 47.3132 28.0677 51.0403 26.1507 54.2592C25.3529 55.3058 26.3624 62.0372 27.3984 58.1708C27.9278 59.5675 26.7179 61.2315 27.3001 62.6659C28.0564 63.6522 28.5781 65.3012 29.3722 66.2574C30.3779 64.9925 31.1417 63.0085 31.0056 61.3633C31.2249 57.158 27.6026 55.6032 28.1055 52.23C28.4156 53.8752 29.8297 55.2418 30.7522 56.5519C32.2911 59.5336 32.7222 63.4301 30.6048 66.2424C29.8486 67.0556 29.4705 68.7685 29.6293 69.8377C29.1869 71.8217 27.5762 74.2425 28.2378 76.298C28.6159 73.7305 30.393 75.3907 30.7258 73.0453C31.4694 71.8777 32.3587 70.8088 33.3725 69.8641C34.0947 69.5968 35.0929 69.0321 34.9795 68.1135C33.4028 68.8664 29.3684 69.4123 32.1777 66.8523C33.1116 64.5369 34.1779 60.9868 36.4427 59.7331C33.8376 57.99 36.3028 54.086 31.5274 55.8743C33.0398 53.0507 35.8945 56.1528 34.4539 51.8159C34.0758 50.7806 33.8527 51.0629 33.1381 51.6464C31.7883 52.102 29.8486 52.2112 28.5781 51.477C30.7787 51.9966 34.1023 50.9951 33.8943 48.2958C34.5636 47.9193 35.7848 46.9518 36.1403 46.2553C35.9474 45.0243 36.2348 43.0779 35.1647 42.1969C35.7886 43.7857 34.2875 45.2351 32.8016 45.6341C32.6806 45.3179 32.518 45.1861 32.8205 44.9904C35.0589 43.5447 33.365 40.9508 36.4541 38.5903C38.0535 37.363 37.5468 34.882 36.0155 33.6961C37.5998 34.0425 38.0762 35.3601 38.3597 36.7832C38.3597 36.29 38.8551 35.6538 39.2143 35.3714C38.1669 32.9206 38.3333 29.4533 40.9762 28.0603C39.392 30.6391 38.7076 34.5846 41.1804 36.6703C41.2818 36.7746 41.4145 36.8433 41.5585 36.866C41.5585 36.866 41.2712 36.4331 41.1804 36.2825C38.5261 32.1036 46.9465 30.0293 42.2051 27.7629C43.7175 27.5069 44.8254 28.6175 44.6666 30.1158L46.5571 30.4133L47.6914 30.6467C48.1317 30.7339 48.5614 30.8677 48.9732 31.0457C49.0444 31.0802 49.1176 31.1104 49.1925 31.1361L49.253 31.1625C49.9301 31.4549 50.5657 31.8346 51.1435 32.2919L51.3326 32.4425L51.6577 32.7549C52.0452 33.1281 52.3843 33.548 52.6673 34.0048C52.763 34.1633 52.8392 34.3327 52.8941 34.5093C53.0643 35.0298 53.1286 35.5789 53.0832 36.1244L53.0454 36.5536L53.242 36.2825C53.3414 36.1493 53.4145 35.9986 53.4575 35.8383C53.548 35.5031 53.5938 35.1575 53.5936 34.8105C53.5935 34.4795 53.5477 34.1502 53.4575 33.8317C53.3769 33.5469 53.2573 33.2745 53.1021 33.0222L52.8601 32.6458L52.7429 32.5065C52.4082 32.1049 51.9903 31.78 51.5178 31.554L51.2343 31.4147C51.1736 31.3841 51.1103 31.3589 51.0452 31.3394L50.2058 31.0721L49.3967 30.8462C46.4361 29.0693 47.7368 26.8104 45.4228 25.8918C50.928 26.1629 48.9883 29.521 53.0605 30.8462C52.6219 29.4307 53.363 27.8946 54.1306 26.5958C54.59 25.8448 54.7806 24.9611 54.6712 24.0885C54.5416 23.0648 54.1352 22.0954 53.4953 21.2838C54.0828 21.3354 54.6262 21.6154 55.0078 22.0631C56.0286 23.264 56.4521 25.0184 56.4559 26.5808C56.4554 26.9641 56.3537 27.3406 56.161 27.6725C55.9164 28.1004 55.6064 28.4878 55.2422 28.8208L55.2157 28.8434C54.9083 29.1204 54.6523 29.4492 54.4595 29.8147V29.8335C54.2557 30.213 54.1677 30.6435 54.2062 31.0721C54.2493 31.5869 54.3997 32.0871 54.6478 32.5408C54.8958 32.9945 55.236 33.3918 55.6468 33.7074C56.4655 33.7722 57.2712 33.9508 58.0402 34.2382C58.8632 34.5152 59.5786 35.0418 60.0857 35.7441C60.1526 35.9822 60.2007 36.2252 60.2294 36.4707C61.3297 35.6801 61.4582 34.9648 61.4393 33.8354C61.4354 33.537 61.3561 33.2444 61.2087 32.9846C60.8509 32.3268 60.3169 31.7808 59.666 31.4072C58.6389 30.8585 57.5333 30.47 56.3878 30.2551L56.6601 30.2062C57.5858 30.0453 58.5344 30.0696 59.4505 30.2777C59.5225 30.2945 59.5914 30.3224 59.6547 30.3606C60.5305 30.9035 61.3346 31.5536 62.0481 32.2956C63.5416 33.907 63.8479 35.7253 63.4131 37.8336C64.381 37.1522 64.6684 36.5009 64.7478 35.7027C64.8216 34.7522 64.6264 33.8001 64.1844 32.9545L63.8063 32.2241C63.9729 32.268 64.1296 32.3434 64.2676 32.4462C64.6363 32.7017 64.9482 33.0301 65.1837 33.411C65.4192 33.7919 65.5733 34.217 65.6363 34.6599C65.7152 35.1236 65.7394 35.5949 65.7082 36.0642C65.6099 37.1936 65.4435 38.8237 66.2451 39.7536C67.0113 40.1959 67.8029 40.5932 68.6158 40.9433C69.2152 41.2518 69.7512 41.6694 70.1963 42.1743C71.3306 43.428 72.3477 44.0567 72.9489 45.732C72.7787 48.0925 73.7316 49.3387 76.3518 49.3989C75.8353 49.5357 75.3701 49.8196 75.0134 50.2158C74.5986 50.6461 74.0884 50.9736 73.5236 51.1721C72.809 51.4055 72.0603 51.3754 71.7616 50.581C71.5424 50.9646 71.2114 51.273 70.8124 51.4652C70.4134 51.6575 69.9652 51.7246 69.527 51.6577C69.2755 51.9716 69.0958 52.3363 69.0005 52.7265C68.9051 53.1166 68.8964 53.5228 68.975 53.9166C69.0664 54.4878 69.2863 55.031 69.6182 55.5056C69.9502 55.9802 70.3856 56.3739 70.892 56.6573H70.9109C71.5448 57.0306 72.2789 57.2002 73.0132 57.143C73.9584 57.0639 74.9037 56.7063 75.365 55.927C73.7845 56.3825 73.1984 55.927 73.0585 54.967C72.9816 54.3222 73.0816 53.6688 73.3479 53.0761C73.6142 52.4835 74.0369 51.9738 74.571 51.6013C75.0285 51.2662 75.5125 50.9726 75.9019 50.6977C77.1459 50.054 79.4145 49.3763 78.9343 47.7876ZM30.9148 41.8506C31.5085 43.0478 32.2571 44.4482 32.3857 45.845C32.1475 47.9833 30.0792 49.557 28.4004 50.6676C29.3041 49.4328 31.0169 48.0662 31.0472 46.4134C30.9905 45.3744 31.2513 40.9056 29.5574 42.9423C30.809 41.1767 33.0776 39.027 31.7542 36.7004C31.2438 35.891 30.8732 35.2133 30.5481 34.7201C31.2022 35.0966 31.879 35.5107 32.3025 35.8157C34.4161 37.3555 33.3461 41.1804 30.9111 41.8506H30.9148ZM53.9188 19.5934C53.9188 19.1416 54.0058 18.5167 53.6995 18.1364C54.4179 18.2343 54.7431 18.8404 54.8338 19.4804C54.91 19.9761 55.0618 20.4572 55.2838 20.9073C55.6078 21.4957 55.8616 22.1199 56.04 22.7671C55.5598 21.6263 54.1268 20.9261 53.9188 19.5934ZM66.54 28.1431C66.523 28.453 66.4337 28.7546 66.2791 29.0241C66.2494 29.0788 66.2065 29.1254 66.1543 29.1596C65.4581 29.6492 64.6682 29.991 63.8336 30.164C62.9991 30.3369 62.1378 30.3372 61.3032 30.1648C60.8837 29.8939 60.5449 29.516 60.3221 29.0703C60.0994 28.6247 60.0007 28.1276 60.0366 27.6311C60.1063 27.0596 60.0897 26.481 59.9874 25.9144C59.4365 25.222 58.7883 24.6121 58.0629 24.1035L57.4314 23.6555C56.6508 22.7585 56.0605 21.7136 55.6959 20.5835C55.5333 20.0866 55.3707 19.5783 55.193 19.104C54.9209 18.3699 54.3809 17.765 53.6806 17.4098C53.3372 17.2274 52.9728 17.0871 52.5954 16.9919C52.1064 16.9628 51.6165 17.032 51.1549 17.1952C52.0623 16.4423 53.3668 16.623 54.5162 17.0296C55.3447 17.3291 56.0818 17.836 56.6563 18.5016C57.0808 19.009 57.5448 19.4823 58.044 19.9171C58.5964 20.3675 59.2969 20.5982 60.0101 20.5647C61.7305 20.4932 61.791 20.1091 62.222 20.1016C60.5924 21.9087 59.5753 23.0682 57.0344 21.7882C57.6923 22.5412 59.1858 23.5012 60.2143 24.1035C60.6508 24.3576 61.0096 24.7252 61.2521 25.1669C61.4945 25.6087 61.6116 26.1079 61.5906 26.6109V26.6335V26.8368C61.5476 27.4598 61.6785 28.0826 61.9687 28.6363C62.0872 28.8609 62.2813 29.0368 62.5169 29.1332C63.0177 29.3406 63.5686 29.3969 64.1012 29.2951H64.1201C64.5634 29.2108 64.9916 29.0611 65.3906 28.8509C65.8426 28.6122 66.2038 28.2327 66.419 27.7704L66.54 27.5069V28.1431ZM67.1034 31.4674C67.2011 30.7246 67.5475 30.0362 68.0864 29.5135C68.9523 28.6476 70.0375 27.7591 69.9089 26.5017C71.5159 30.2175 64.9141 32.0396 71.4818 36.2298C69.1527 35.7103 66.8387 33.8128 67.1034 31.4674ZM71.4592 42.0689C71.1172 41.1019 70.9495 40.0823 70.9638 39.0571C70.8474 38.3067 70.4828 37.6165 69.9278 37.0957C69.7123 36.8854 69.4739 36.6998 69.217 36.5423C70.8731 36.9187 71.807 37.3969 72.446 38.6355C72.5309 39.0466 72.5475 39.4689 72.4952 39.8854C72.3885 40.9696 72.4241 42.063 72.601 43.1381C72.6386 43.3712 72.6626 43.6063 72.6729 43.8421C72.2229 43.2209 71.7692 42.5847 71.4592 42.0689Z" fill="white"/>
<path d="M37.581 39.9115C37.1948 40.0124 36.8218 40.1577 36.4693 40.3444C36.8258 40.1666 37.1979 40.0217 37.581 39.9115Z" fill="white"/>
<path d="M66.7707 48.2128C66.929 47.7161 67.2316 47.2772 67.6404 46.9516C69.0923 45.7507 69.7351 44.8773 68.8012 43.3601C68.4467 42.7946 67.978 42.3087 67.4249 41.9332C66.1015 41.0033 64.3282 39.8664 64.642 38.2061C64.3206 38.8612 62.933 39.2829 62.2977 39.4673C62.4944 39.1925 62.5435 38.432 62.5511 37.7431C62.5601 37.0202 62.3719 36.3085 62.0066 35.6838C62.0066 35.6838 59.7796 39.1887 58.0667 39.3732C59.0158 38.4471 59.6661 37.5247 59.4128 36.2899C59.3725 36.0876 59.287 35.897 59.1626 35.7321C59.0383 35.5672 58.8782 35.4323 58.6944 35.3374C57.492 34.72 55.7754 34.735 54.5352 34.5845C54.8377 36.6287 54.5768 37.5962 52.8791 38.8273C52.4783 39.121 51.6427 39.9078 51.0756 39.6744C50.4517 37.152 53.2345 37.6866 50.9772 34.2607C48.4742 31.727 46.2434 33.1727 44.1449 31.151C43.9974 32.0621 43.2185 32.7962 42.6324 33.5642C42.4377 33.8056 42.2944 34.084 42.2112 34.3824C42.1279 34.6808 42.1066 34.9929 42.1485 35.2998C42.2354 35.872 42.5266 36.192 43.1504 36.8358C43.6685 37.2122 44.9389 38.3417 45.6611 38.048C45.0334 38.7069 43.8046 38.6278 42.7723 38.4885C42.1211 38.3984 41.4984 38.1643 40.9499 37.8033C40.5283 37.5268 40.1711 37.1635 39.9025 36.7379L39.4488 36.0791C39.237 36.3576 38.9346 36.8057 38.6548 37.2612C38.1003 38.1793 37.4852 39.0597 36.8134 39.8965L36.4693 40.3332C36.8217 40.1465 37.1948 40.0012 37.5809 39.9003C39.2333 39.4636 41.1805 39.7045 42.7421 40.1337C44.0175 40.4027 45.2732 40.7574 46.5005 41.1953C47.0466 41.398 47.5784 41.637 48.0923 41.9107C48.3913 42.0726 48.6408 42.3119 48.8145 42.6034C48.7875 42.9977 48.6572 43.378 48.4364 43.7064C48.3757 43.8272 48.298 43.9388 48.2057 44.0377C48.1679 44.0754 47.6197 44.5159 47.389 44.6777L46.2169 44.8246L45.9976 44.7568C45.8463 44.7079 45.6951 44.6702 45.5401 44.6363C45.3027 44.5898 45.0716 44.5152 44.8519 44.4142C44.0501 44.0922 43.3325 43.5927 42.7534 42.9535C41.7515 43.4956 40.1067 43.9361 39.0442 43.33C38.1103 44.1507 38.2351 44.625 38.8476 45.0015C39.3182 45.2934 39.8624 45.4461 40.4167 45.442C40.58 45.4408 40.743 45.4282 40.9045 45.4043C41.0643 45.3784 41.2281 45.3924 41.3812 45.4449C41.5343 45.4975 41.6719 45.587 41.7817 45.7055C41.8159 45.7726 41.8376 45.8453 41.846 45.9201C41.846 46.8764 40.1823 46.6015 39.1539 46.4735C38.4109 46.3857 37.7049 46.1024 37.1083 45.6528C37.0251 45.5926 36.9571 45.5361 36.9041 45.4909C37.6603 46.658 36.6697 47.5615 35.7698 48.4161C35.4802 48.6894 35.2553 49.0233 35.1114 49.3939C34.9676 49.7644 34.9083 50.1621 34.938 50.5583C34.9485 50.6955 34.9765 50.8309 35.0212 50.9611C35.0892 51.1569 35.1686 51.3941 35.2518 51.6463C35.5461 52.5427 35.7265 53.4723 35.7887 54.4134C35.8182 55.0336 35.9171 55.6485 36.0836 56.2468C36.4315 56.9659 36.7756 58.5433 37.7171 58.916L38.167 59.093C38.1617 58.9519 38.1705 58.8106 38.1935 58.6713C38.3266 58.3688 38.4996 58.0852 38.7077 57.828C38.9123 57.6105 39.1391 57.415 39.3845 57.2445C39.733 56.9946 40.1148 56.7944 40.5188 56.6496C41.1848 56.3041 41.9394 56.1651 42.6854 56.2506C43.3017 55.5428 43.9029 55.0308 44.8822 54.9141C44.3528 53.1597 44.6742 52.5498 46.1261 51.5258C46.6857 51.2021 47.1092 50.4755 47.7558 50.8068C47.8006 50.8284 47.8379 50.863 47.8628 50.9059C47.8877 50.9488 47.8992 50.9982 47.8957 51.0477C47.8849 51.2338 47.8337 51.4153 47.7456 51.5798C47.6574 51.7442 47.5345 51.8877 47.3852 52.0002C47.0538 52.245 46.7381 52.5103 46.44 52.7945C46.2775 52.9466 46.1503 53.1323 46.0674 53.3384C45.9844 53.5445 45.9477 53.7662 45.9598 53.988C45.9645 54.0919 45.9908 54.1937 46.037 54.287C46.0832 54.3803 46.1483 54.4631 46.2282 54.5301C46.5208 54.7969 46.9054 54.9411 47.3021 54.9329H47.3323C47.4041 56.8153 45.0637 55.2529 43.6382 57.2633C43.3993 58.7867 42.628 60.1772 41.4603 61.1899C41.8448 60.4644 42.1907 59.7192 42.4963 58.9574C42.6611 58.4511 42.7316 57.9191 42.7043 57.3875C42.0943 57.3412 41.4817 57.4326 40.9121 57.6548C39.2371 58.5433 38.3334 60.4972 38.0195 62.2817C37.9616 61.6559 37.9502 61.0268 37.9855 60.3993C35.0136 61.1523 34.4351 64.9434 33.0437 67.2135C35.5089 67.1796 37.8986 64.9547 39.4715 63.2417C39.4412 62.8267 39.4615 62.4095 39.532 61.9993C39.5582 61.873 39.6225 61.7575 39.7162 61.6683C39.8099 61.5792 39.9286 61.5205 40.0566 61.5C40.1846 61.4796 40.3158 61.4984 40.4328 61.554C40.5498 61.6096 40.647 61.6992 40.7117 61.8111C40.7813 61.9621 40.796 62.1324 40.7533 62.293C42.2203 62.7975 43.9672 61.9881 44.9465 60.8172C45.162 60.5612 45.3851 60.3165 45.6119 60.0643C46.6555 58.9348 46.9429 56.9207 47.6764 56.2092C47.7713 56.1289 47.8862 56.0756 48.009 56.0549C48.1317 56.0342 48.2579 56.0468 48.374 56.0916C48.4902 56.1363 48.592 56.2114 48.6689 56.3089C48.7458 56.4065 48.7947 56.5229 48.8107 56.6459C49.0224 58.3475 48.8107 59.5184 51.0604 60.3203C50.8856 59.9016 50.8332 59.4422 50.9092 58.9951C50.9346 58.8394 51.0104 58.6963 51.1251 58.5876C51.2398 58.4788 51.387 58.4104 51.5444 58.3927C51.6711 58.3696 51.8019 58.3917 51.9139 58.455C52.0259 58.5183 52.112 58.6189 52.1569 58.7391C52.2999 59.1855 52.3676 59.6523 52.3573 60.1207C52.3778 60.4089 52.4552 60.6902 52.5849 60.9486C52.7147 61.207 52.8943 61.4374 53.1135 61.6266C54.7167 63.0158 57.2727 63.4412 57.8285 65.7227C58.131 65.2634 57.855 64.4163 57.647 63.9758C58.3692 65.0488 59.4052 66.2347 60.7929 66.3439C58.5885 65.0375 58.5847 61.7283 57.5374 59.6389C55.8888 56.5179 53.9265 54.1988 50.1832 55.8515C49.4875 55.8515 49.359 55.219 49.3552 54.5564C49.4989 53.427 51.8053 54.0783 52.6863 53.8035C52.5761 53.4554 52.525 53.0916 52.535 52.7268C52.6296 52.3955 52.7695 52.2712 52.9585 52.2599C53.1428 52.2579 53.3204 52.3283 53.4527 52.4559C53.5851 52.5835 53.6616 52.758 53.6656 52.9414C53.779 54.8237 55.5145 53.8901 57.0874 56.484C59.1481 56.4238 61.6512 57.0261 61.965 59.4017C62.3961 57.7678 63.6249 56.2054 65.3302 55.8063C65.3302 55.8063 65.3982 55.6595 65.489 55.4525C65.83 54.7177 66.2564 54.0252 66.7594 53.3894C67.1752 52.866 67.4859 52.2678 67.6744 51.6275C67.7127 51.4954 67.7139 51.3554 67.6779 51.2226C67.6419 51.0899 67.5701 50.9695 67.4702 50.8745C67.1298 50.5405 66.883 50.1236 66.7544 49.6653C66.6257 49.207 66.6196 48.7232 66.7367 48.2618L66.7707 48.2128ZM65.1789 44.1808C64.9207 44.2919 64.6387 44.3372 64.3584 44.3126C64.0014 44.2805 63.6544 44.1782 63.3375 44.0114C62.7447 43.7003 62.1307 43.4311 61.4999 43.2057C61.685 43.4558 61.9402 43.6457 62.2335 43.7516C62.6607 44.0377 63.4396 44.3389 63.2581 44.9902C62.3772 45.841 60.7513 46.2476 59.617 46.594C58.0327 46.6241 55.2877 46.9705 54.5655 45.1559C54.3921 45.1052 54.2216 45.0449 54.055 44.9752L54.1685 44.9112C54.3986 44.7825 54.6614 44.7236 54.9247 44.7417C55.1002 44.7503 55.2717 44.7965 55.4276 44.8773C55.7413 45.0307 56.0646 45.164 56.3955 45.2763C58.0516 45.7319 59.98 45.3253 61.5188 44.6627C60.7401 44.0912 59.8992 43.6087 59.012 43.2245C57.8323 43.9323 56.2405 43.8947 54.9511 43.5333C53.1476 44.5309 51.9717 46.5676 51.6578 48.563C51.4394 47.6227 51.392 46.6511 51.5179 45.6942C51.6436 44.6026 52.0571 43.5635 52.7165 42.6824L52.7997 42.5657C52.9023 42.4189 53.0303 42.2914 53.1778 42.1892C54.9231 41.0398 56.9306 40.3459 59.0158 40.1713C59.4862 40.1475 59.954 40.2558 60.3656 40.4838C60.8723 40.7699 61.4394 41.1615 61.7192 41.3497C62.6721 41.8956 63.8934 42.7464 64.884 43.4053C65.1256 43.5679 65.2991 43.813 65.3717 44.0942L65.1789 44.1808Z" fill="white"/>
<defs>
<linearGradient id="paint0_linear_96_40" x1="21.0888" y1="4.62339" x2="75.1596" y2="111.397" gradientUnits="userSpaceOnUse">
<stop stop-color="#2E1988"/>
<stop offset="0.05" stop-color="#351C91"/>
<stop offset="0.14" stop-color="#4725AB"/>
<stop offset="0.25" stop-color="#6432D4"/>
<stop offset="0.26" stop-color="#6834D9"/>
<stop offset="0.51" stop-color="#8A2CF4"/>
<stop offset="0.79" stop-color="#5F09AF"/>
<stop offset="1" stop-color="#170023"/>
</linearGradient>
</defs>
</svg>
