<svg width="24" height="24" viewBox="0 0 24 24" fill="none" xmlns="http://www.w3.org/2000/svg">
<g filter="url(#filter0_d_35_2563)">
<path d="M14.1429 4C14.1429 5.10457 13.1835 6 12 6C10.8165 6 9.85714 5.10457 9.85714 4M14.1429 4C14.1429 2.89543 13.1835 2 12 2C10.8165 2 9.85714 2.89543 9.85714 4M14.1429 4C14.1429 4.07196 14.1388 4.14303 14.1308 4.21302C18.4938 5.09546 21.7961 8.63829 21.9909 12.9316L21.9752 12.6703C21.9916 12.778 22 12.8881 22 13C22 14.2887 20.8807 15.3333 19.5 15.3333M9.85714 4C9.85714 4.07196 9.86121 4.14303 9.87062 4.21205C5.62588 5.07124 2.38584 8.44596 2.0321 12.5801L2.02711 12.6552C2.00925 12.7677 2 12.8828 2 13C2 14.2887 3.11929 15.3333 4.5 15.3333M19.5 15.3333C18.182 15.3333 17.1023 14.3815 17.0069 13.1741L16.9987 13.0141L16.9931 13.1741C16.8977 14.3815 15.818 15.3333 14.5 15.3333M19.5 15.3333C19.8742 15.3333 20.2291 15.2566 20.5478 15.1191L19.1429 22H4.85714L3.45227 15.1192C3.77094 15.2566 4.12587 15.3333 4.5 15.3333M19.5 15.3333C18.1193 15.3333 17 14.2887 17 13M4.5 15.3333C5.81309 15.3333 6.88974 14.3885 6.99205 13.1875L6.99875 13.0141L7.00686 13.1741C7.10229 14.3815 8.18205 15.3333 9.5 15.3333M4.5 15.3333C5.88071 15.3333 7 14.2887 7 13C7 14.2887 8.11929 15.3333 9.5 15.3333M9.5 15.3333C10.818 15.3333 11.8977 14.3815 11.9931 13.1741L11.9987 13.0141M9.5 15.3333C10.8756 15.3333 11.9905 14.2962 11.9987 13.0141M11.9987 13.0141L12.0069 13.1741C12.1023 14.3815 13.182 15.3333 14.5 15.3333M11.9987 13.0141L12 13C12 14.2887 13.1193 15.3333 14.5 15.3333M14.5 15.3333C15.8807 15.3333 17 14.2887 17 13M17 13L17.0025 12.9153C16.9995 12.9439 17 12.9719 17 13ZM16.4643 17.3333L16.1071 20M12.1786 17.3333V20M7.89286 17.3333L8.25 20" stroke="#CD3AFF" stroke-width="1.5" stroke-linejoin="round" shape-rendering="crispEdges"/>
</g>
<defs>
<filter id="filter0_d_35_2563" x="1.25" y="1.25" width="33.8116" height="33.8116" filterUnits="userSpaceOnUse" color-interpolation-filters="sRGB">
<feFlood flood-opacity="0" result="BackgroundImageFix"/>
<feColorMatrix in="SourceAlpha" type="matrix" values="0 0 0 0 0 0 0 0 0 0 0 0 0 0 0 0 0 0 127 0" result="hardAlpha"/>
<feOffset dx="6.15582" dy="6.15582"/>
<feGaussianBlur stdDeviation="3.07791"/>
<feComposite in2="hardAlpha" operator="out"/>
<feColorMatrix type="matrix" values="0 0 0 0 0 0 0 0 0 0 0 0 0 0 0 0 0 0 0.25 0"/>
<feBlend mode="normal" in2="BackgroundImageFix" result="effect1_dropShadow_35_2563"/>
<feBlend mode="normal" in="SourceGraphic" in2="effect1_dropShadow_35_2563" result="shape"/>
</filter>
</defs>
</svg>
