<svg width="13" height="13" viewBox="0 0 13 13" fill="none" xmlns="http://www.w3.org/2000/svg">
<path d="M6.30645 0.193359C2.82529 0.193359 0 3.01865 0 6.49981C0 9.98097 2.82529 12.8063 6.30645 12.8063C9.78761 12.8063 12.6129 9.98097 12.6129 6.49981C12.6129 3.01865 9.78761 0.193359 6.30645 0.193359ZM1.26129 6.49981C1.26129 3.71236 3.519 1.45465 6.30645 1.45465C7.47315 1.45465 8.54524 1.85196 9.39661 2.52044L2.32708 9.58997C1.63449 8.70905 1.25901 7.6204 1.26129 6.49981ZM6.30645 11.545C5.13976 11.545 4.06766 11.1477 3.21629 10.4792L10.2858 3.40965C10.9784 4.29058 11.3539 5.37922 11.3516 6.49981C11.3516 9.28726 9.0939 11.545 6.30645 11.545Z" fill="white"/>
</svg>
