<svg width="16" height="19" viewBox="0 0 16 19" fill="none" xmlns="http://www.w3.org/2000/svg">
<path d="M10.1938 0C10.4555 0.112709 10.7423 0.188288 10.9735 0.345638C11.4822 0.69172 11.6851 1.21371 11.6953 1.81748C11.6979 1.96422 11.6953 2.11096 11.6953 2.28644H11.8986C12.555 2.28644 13.2113 2.27804 13.8673 2.28865C14.6368 2.30102 15.2038 2.64224 15.5119 3.36313C15.862 4.18524 15.435 5.20758 14.5979 5.52404C14.4211 5.59034 14.3808 5.67565 14.3813 5.85289C14.3872 9.36674 14.3884 12.8806 14.3848 16.3944C14.3848 17.2126 14.109 17.9065 13.4425 18.4121C13.0749 18.6936 12.6236 18.8437 12.1607 18.8387C9.37614 18.8387 6.59157 18.8387 3.80701 18.8387C2.71661 18.8387 1.77916 18.0152 1.62402 16.9284C1.59833 16.7465 1.58561 16.5631 1.58599 16.3794C1.58363 12.8729 1.58452 9.36526 1.58865 5.85642C1.58865 5.67962 1.54799 5.59122 1.37119 5.52758C0.685655 5.27387 0.244098 4.50745 0.339127 3.77595C0.438134 3.01528 1.05604 2.36865 1.79771 2.32356C2.52479 2.27936 3.2563 2.29704 3.98515 2.2882C4.07089 2.2882 4.15664 2.2882 4.27156 2.2882C4.27156 2.11892 4.26846 1.95582 4.27156 1.79317C4.28747 1.04708 4.61498 0.491054 5.29212 0.161769C5.44416 0.0875137 5.61521 0.0539223 5.77831 0.00176701L10.1938 0ZM2.46469 5.66548V16.3175C2.46469 16.3666 2.46469 16.4157 2.46469 16.4647C2.49961 17.3553 3.04724 17.9525 3.85874 17.9538C6.60618 17.9591 9.35332 17.9591 12.1002 17.9538C12.6725 17.9538 13.1119 17.6886 13.3311 17.1582C13.4349 16.8981 13.4884 16.6206 13.4889 16.3405C13.4992 12.8517 13.5014 9.3632 13.4955 5.87499V5.66548H2.46469ZM7.98696 4.75497H13.7625C13.8421 4.75497 13.9221 4.75497 14.0016 4.75011C14.3733 4.72845 14.6836 4.44292 14.7238 4.08712C14.7707 3.67209 14.5435 3.30877 14.1616 3.2133C14.0297 3.18605 13.8949 3.17491 13.7603 3.18015C9.90964 3.17838 6.05913 3.17838 2.20878 3.18015C2.11728 3.18015 2.0249 3.18368 1.93385 3.19252C1.54268 3.23186 1.27086 3.51341 1.23019 3.91651C1.21599 4.09164 1.2625 4.26632 1.36191 4.4112C1.46131 4.55608 1.60756 4.66233 1.77606 4.7121C1.90027 4.74323 2.0282 4.75691 2.15618 4.75276C4.09978 4.75659 6.04337 4.75733 7.98696 4.75497ZM5.14141 2.26964H10.7949C10.7949 2.07118 10.8047 1.88731 10.7949 1.70433C10.7649 1.22432 10.4334 0.902552 9.95515 0.88222C9.79604 0.87559 9.63604 0.88222 9.47692 0.88222C8.34895 0.88222 7.22098 0.88222 6.09301 0.88222C5.64085 0.88222 5.28505 1.11692 5.20417 1.50411C5.14892 1.74941 5.15909 2.01107 5.14141 2.27141V2.26964Z" fill="#FF0000"/>
<path d="M10.1381 11.4233C10.1381 10.0994 10.1381 8.77535 10.1381 7.45114C10.1375 7.35936 10.1446 7.26768 10.1594 7.1771C10.1777 7.08174 10.2276 6.99533 10.301 6.93178C10.3744 6.86824 10.4671 6.83127 10.5641 6.82683C10.6611 6.82239 10.7568 6.85073 10.8357 6.9073C10.9146 6.96387 10.9722 7.04536 10.9992 7.13865C11.0213 7.22755 11.0323 7.31886 11.0318 7.41047C11.0336 10.0957 11.0336 12.7807 11.0318 15.4654C11.0315 15.5509 11.0212 15.636 11.0009 15.7191C10.9762 15.8143 10.9198 15.8983 10.8409 15.9571C10.762 16.0159 10.6654 16.046 10.567 16.0423C10.4687 16.0387 10.3746 16.0017 10.3002 15.9372C10.2258 15.8728 10.1757 15.7849 10.158 15.6881C10.1437 15.5975 10.1369 15.5059 10.1377 15.4141C10.1374 14.0834 10.1376 12.7532 10.1381 11.4233Z" fill="#FF0000"/>
<path d="M7.53967 11.4432C7.53967 10.0878 7.53967 8.73321 7.53967 7.37953C7.53967 7.19434 7.56398 7.02594 7.73017 6.90925C7.78481 6.86988 7.84793 6.84387 7.91446 6.83333C7.98098 6.82279 8.04904 6.828 8.11318 6.84855C8.17732 6.8691 8.23575 6.90441 8.28376 6.95165C8.33177 6.99888 8.36803 7.05673 8.38962 7.12053C8.41567 7.21459 8.42744 7.31203 8.42454 7.40959C8.42454 10.0943 8.42454 12.7789 8.42454 15.4636C8.42677 15.555 8.41665 15.6463 8.39448 15.735C8.368 15.8304 8.30871 15.9134 8.22705 15.9693C8.14538 16.0253 8.04659 16.0506 7.94808 16.0409C7.84949 16.0343 7.75614 15.9941 7.6837 15.9269C7.61127 15.8597 7.56417 15.7696 7.55029 15.6718C7.5418 15.5927 7.53884 15.5131 7.54144 15.4335C7.54026 14.1034 7.53967 12.7733 7.53967 11.4432Z" fill="#FF0000"/>
<path d="M5.8181 11.4238C5.8181 12.7785 5.82033 14.1332 5.81458 15.4875C5.81474 15.6142 5.78569 15.7393 5.7297 15.853C5.64926 16.0077 5.49235 16.0594 5.32086 16.0378C5.24073 16.031 5.16449 16.0004 5.102 15.9498C5.0395 15.8992 4.99364 15.831 4.97037 15.754C4.94532 15.6723 4.93338 15.5871 4.935 15.5016C4.93323 12.7922 4.93323 10.0829 4.935 7.37379C4.935 7.05202 5.06274 6.87522 5.31777 6.83765C5.37364 6.8281 5.43084 6.82982 5.48602 6.84272C5.54121 6.85561 5.59326 6.87942 5.6391 6.91275C5.68495 6.94607 5.72367 6.98822 5.75297 7.03674C5.78227 7.08525 5.80155 7.13914 5.80971 7.19522C5.81878 7.27429 5.82188 7.35392 5.81899 7.43346C5.81899 8.76386 5.81869 10.094 5.8181 11.4238Z" fill="#FF0000"/>
</svg>
