<svg width="30" height="30" viewBox="0 0 30 30" fill="none" xmlns="http://www.w3.org/2000/svg">
<g id="Frame 36802">
<path id="Vector" d="M5 19.6821H20V22.6821H5V19.6821ZM23.5 19.6821H25V22.6821H23.5V19.6821ZM21 19.6821H22.5V22.6821H21V19.6821ZM21.85 11.4121C22.47 10.8021 22.85 9.96213 22.85 9.03213C22.85 7.18213 21.35 5.68213 19.5 5.68213V7.18213C20.52 7.18213 21.35 8.01213 21.35 9.03213C21.35 10.0521 20.52 10.8821 19.5 10.8821V12.3821C21.74 12.3821 23.5 14.2121 23.5 16.4521V18.6821H25V16.4421C25 14.2221 23.72 12.3021 21.85 11.4121ZM19.03 13.8821H17.5C16.48 13.8821 15.65 12.9021 15.65 11.8821C15.65 10.8621 16.48 10.1321 17.5 10.1321V8.63213C16.6115 8.63213 15.7594 8.98507 15.1312 9.61332C14.5029 10.2416 14.15 11.0937 14.15 11.9821C14.15 12.8706 14.5029 13.7227 15.1312 14.3509C15.7594 14.9792 16.6115 15.3321 17.5 15.3321H19.03C20.08 15.3321 21 16.0721 21 17.3821V18.6821H22.5V17.0421C22.5 15.2321 20.9 13.8821 19.03 13.8821Z" fill="#CD3AFF"/>
</g>
</svg>
