<svg width="21" height="20" viewBox="0 0 21 20" fill="none" xmlns="http://www.w3.org/2000/svg">
<path d="M3.68262 14.0837V17H6.59889L15.1999 8.39895L12.2837 5.48268L3.68262 14.0837ZM17.4552 6.1437C17.5273 6.07175 17.5845 5.98629 17.6235 5.89222C17.6625 5.79814 17.6826 5.69729 17.6826 5.59544C17.6826 5.49359 17.6625 5.39274 17.6235 5.29866C17.5845 5.20458 17.5273 5.11912 17.4552 5.04718L15.6354 3.22743C15.5635 3.15533 15.478 3.09814 15.384 3.05911C15.2899 3.02009 15.189 3 15.0872 3C14.9853 3 14.8845 3.02009 14.7904 3.05911C14.6963 3.09814 14.6109 3.15533 14.5389 3.22743L13.1158 4.65057L16.0321 7.56684L17.4552 6.1437Z" fill="#3A9CDD"/>
</svg>
