<svg width="28" height="28" viewBox="0 0 28 28" fill="none" xmlns="http://www.w3.org/2000/svg">
<path d="M21.3947 19.2083C22.1188 19.6264 22.5 20.1006 22.5 20.5833C22.5 21.0661 22.1188 21.5403 21.3947 21.9583C20.6706 22.3764 19.6292 22.7235 18.375 22.9649C17.1208 23.2063 15.6982 23.3333 14.25 23.3333C12.8018 23.3333 11.3792 23.2063 10.125 22.9649C8.87084 22.7235 7.82938 22.3764 7.10529 21.9583C6.3812 21.5403 6 21.0661 6 20.5833C6 20.1006 6.3812 19.6264 7.10529 19.2083M20.6667 11.4167C20.6667 15.9766 16.0521 18.7356 14.6496 19.4689C14.3971 19.6009 14.1029 19.6009 13.8504 19.4689C12.4479 18.7356 7.83333 15.9766 7.83333 11.4167C7.83333 7.87284 10.7062 5 14.25 5C17.7938 5 20.6667 7.87284 20.6667 11.4167ZM17 11.4167C17 12.9354 15.7688 14.1667 14.25 14.1667C12.7312 14.1667 11.5 12.9354 11.5 11.4167C11.5 9.89788 12.7312 8.66667 14.25 8.66667C15.7688 8.66667 17 9.89788 17 11.4167Z" stroke="white" stroke-width="2" stroke-linecap="round"/>
</svg>
