<svg width="456" height="576" viewBox="0 0 456 576" fill="none" xmlns="http://www.w3.org/2000/svg">
<path d="M29.2155 181.109C8.93463 167.084 11.2725 137.9 30.5013 129.316C51.4543 119.947 56.1884 153.234 46.9539 166.269C51.1328 149.713 29.42 158.035 41.8691 181.109C50.636 197.432 58.7016 209.798 42.4243 222.979C50.2269 208.314 41.5769 190.245 29.2155 181.109Z" fill="url(#paint0_linear_27_553)"/>
<path d="M26.2932 341.434C16.2697 350.163 15.1884 364.711 19.3381 375.972C24.8613 391.073 39.7943 407.979 40.2619 424.768C43.3887 420.956 47.1293 412.023 51.9511 410.219C44.6453 427.677 42.4536 453.166 53.4707 469.548C71.5014 435.621 69.9233 415.98 48.5612 384.148C47.8156 388.049 45.912 391.637 43.0965 394.449C45.5611 386.723 47.0148 378.714 47.4215 370.618C45.7456 369.304 44.1728 367.864 42.7166 366.312C36.5505 358.019 40.1742 344.023 38.187 334.305C35.8784 338.524 31.6411 343.121 26.2932 341.434Z" fill="url(#paint1_linear_27_553)"/>
<path d="M154.875 220.623C148.826 222.951 132.344 234.502 132.344 234.502C131.52 231.859 130.544 229.265 129.422 226.733C127.861 224.376 126.163 222.113 124.337 219.953C124.22 218.819 146.108 213.232 154.875 220.623Z" fill="url(#paint2_linear_27_553)"/>
<path d="M221.854 374.954C216.311 375.341 210.744 374.659 205.46 372.946C202.501 375.494 199.377 377.846 196.109 379.987C196.455 380.334 196.826 380.655 197.219 380.947C200.557 383.421 204.506 384.95 208.645 385.37L212.152 385.778C221.27 386.069 234.742 385.778 242.223 379.725C238.814 377.23 235.241 374.965 231.527 372.946L225.39 374.43C224.229 374.706 223.046 374.881 221.854 374.954Z" fill="url(#paint3_linear_27_553)"/>
<path d="M157.797 388.454C165.576 389.841 173.569 389.453 181.176 387.32C187.985 389.444 197.161 393.401 204.379 393.925C204.204 394.245 204.028 394.565 203.794 394.914C200.31 400.253 194.867 404.023 188.628 405.418C184.507 406.407 180.153 407.28 177.377 407.746C171.656 409.699 166.402 412.809 161.947 416.882C163.264 413.096 164.242 409.201 164.869 405.243C165.039 404.247 164.988 403.226 164.72 402.251C164.453 401.276 163.975 400.371 163.32 399.599C160.778 396.543 157.476 392.906 156.95 389.676L157.797 388.454Z" fill="url(#paint4_linear_27_553)"/>
<path d="M152.712 397.038C152.712 405.04 145.027 409.695 138.101 413.973C134.631 416.067 131.614 418.829 129.226 422.096C126.837 425.363 125.126 429.07 124.191 433.002V433.409C123.187 438.63 123.364 444.007 124.709 449.151C126.054 454.295 128.532 459.076 131.964 463.147C145.582 479.994 156.511 504.61 139.328 522.184C159.229 525.298 170.013 503.533 165.629 486.57C159.609 471.556 144.442 456.629 145.173 439.549C144.53 425.873 164.606 407.979 152.712 397.038Z" fill="url(#paint5_linear_27_553)"/>
<path d="M113.963 444.059C61.361 483.078 111.04 508.072 89.0937 532.048C103.267 537.286 117.089 522.504 113.963 508.538C121.005 517.529 116.096 532.397 108.732 539.788C113.349 549.797 125.681 556.897 136.318 558.09L145.348 559.196C146.393 559.289 147.407 559.595 148.327 560.096C149.247 560.596 150.053 561.28 150.696 562.105C153.063 565.423 151.544 568.972 146.342 570.835C148.797 571.316 151.291 571.579 153.794 571.62C157.01 571.792 160.168 570.719 162.608 568.626C165.048 566.533 166.581 563.581 166.886 560.389V560.156C166.9 558.007 166.118 555.928 164.689 554.317C163.261 552.707 161.285 551.677 159.142 551.427C149.323 550.001 142.455 545.607 146.605 533.765C138.112 535.066 129.423 533.746 121.707 529.982C134.711 523.203 139.241 509.149 139.241 495.415C139.323 490.415 137.887 485.506 135.12 481.332C126.499 468.588 109.521 457.56 116.008 441.993L113.963 444.059Z" fill="url(#paint6_linear_27_553)"/>
<path d="M269.225 444.612C266.975 421.014 276.443 421.538 281.82 409.288C276.677 397.882 257.302 397.3 251.136 387.319C250.672 386.635 250.326 385.877 250.113 385.079C238.939 392.495 225.431 395.599 212.123 393.808C216.039 402.246 204.554 408.939 199.119 413.361C185.968 424.04 174.951 445.805 189.504 457.007C191.296 458.262 193.266 459.243 195.349 459.917C215.63 467.249 227.787 489.916 217.442 510.167C212.444 464.659 188.803 475.687 176.149 452.351C173.268 446.918 172.242 440.697 173.227 434.631C174.577 426.798 178.807 419.745 185.092 414.845C176.179 416.593 168.019 421.021 161.713 427.532C145.611 444.408 164.139 468.035 172.993 483.281C181.293 499.459 175.916 532.077 154.027 533.416C154.446 535.67 155.353 537.806 156.686 539.675C158.018 541.545 159.744 543.102 161.742 544.24L169.048 548.372C171.663 549.748 173.881 551.767 175.492 554.237C177.103 556.707 178.054 559.545 178.253 562.484C178.376 564.297 178.103 566.115 177.452 567.813C176.802 569.511 175.789 571.048 174.484 572.318C190.907 573.424 194.268 567.256 201.34 554.162C191.141 550.99 185.15 545.113 183.806 536.704C183.142 531.573 184.435 526.382 187.429 522.155C189.905 518.634 191.872 514.785 193.274 510.72C194.396 507.415 194.647 503.879 194.002 500.45C193.357 497.021 191.839 493.815 189.592 491.138C188.273 489.486 186.827 487.94 185.267 486.511C182.125 484.772 179.657 482.038 178.253 478.742C192.339 487.85 216.243 502.02 203.678 519.245C194.414 529.779 197.015 548.721 213.292 549.652C208.09 532.485 222.556 515.026 238.833 510.807C226.033 517.936 217.646 535.22 222.088 549.652C243.655 552.067 274.982 545.898 275.479 517.82C275.8 499.11 256.864 490.614 244.648 480.663C238.015 473.476 238.804 463.408 242.807 455.174C246.53 448.309 247.837 440.401 246.519 432.711C245.872 428.274 243.824 424.157 240.672 420.956C237.52 417.755 233.427 415.635 228.985 414.903C234.26 414.325 239.583 415.421 244.196 418.033C248.809 420.646 252.475 424.642 254.672 429.452C257.43 435.602 257.702 442.573 255.432 448.918C252.743 457.181 250.902 467.685 255.432 474.872C260.035 480.455 265.239 485.519 270.949 489.974C274.692 493.16 277.727 497.087 279.86 501.506C281.994 505.924 283.18 510.737 283.342 515.637C283.504 520.537 282.639 525.417 280.802 529.966C278.966 534.515 276.197 538.633 272.673 542.057C270.883 543.702 268.924 545.155 266.829 546.393C275.3 545.025 283.668 543.081 291.873 540.574C287.46 538.711 284.479 535.482 288.337 531.699C290.975 529.329 292.782 526.18 293.492 522.714C294.202 519.248 293.778 515.646 292.282 512.437C294.211 504.173 295.204 493.32 300.377 486.249C302.587 483.476 304.064 480.194 304.673 476.706C307.946 455.086 273.053 466.202 269.225 444.612Z" fill="url(#paint7_linear_27_553)"/>
<path d="M289.827 416.097C286.679 417.438 284.103 419.837 282.551 422.876C280.453 426.653 279.352 430.898 279.352 435.213C279.352 439.529 280.453 443.774 282.551 447.551V447.696C283.223 448.996 284.178 450.129 285.345 451.015C286.513 451.901 287.865 452.517 289.301 452.817C290.607 453.05 291.951 453.225 293.334 453.341C296.86 453.611 300.255 454.787 303.188 456.753C306.121 458.72 308.492 461.409 310.07 464.56C311.648 467.711 312.378 471.215 312.19 474.731C312.002 478.247 310.902 481.654 308.998 484.62L308.559 485.26C307.097 487.194 306.078 489.423 305.573 491.79C305.069 494.158 305.09 496.607 305.637 498.965C306.864 503.562 310.05 506.588 317.092 506.676C311.248 495.037 320.804 480.692 329.542 473.214C339.156 465.271 341.231 460.062 335.766 448.598C325.217 432.886 304.79 426.193 289.827 416.097Z" fill="url(#paint8_linear_27_553)"/>
<path d="M299.237 506.676C293.393 523.523 319.284 515.405 328.46 517.325C340.442 519.973 351.839 527.364 345.819 540.778C365.223 532.048 364.989 501.584 344.679 493.669C338.192 497.568 328.928 499.081 323.755 492.36C321.154 498.179 322.703 508.858 327.525 513.193C318.787 513.077 304.906 514.648 299.237 506.676Z" fill="url(#paint9_linear_27_553)"/>
<path d="M208.178 555.995C226.384 559.748 247.132 557.799 265.221 552.94C267.789 552.242 270.394 551.689 273.024 551.281L288.512 549.041C293.159 548.662 304.702 548.022 307.916 543.774C283.924 529.691 302.072 534.172 299.442 522.504C304.877 529.458 315.836 526.869 323.375 526.694C347.192 525.501 344.299 544.152 326.59 552.882C318.758 556.839 307.712 555.791 299.237 558.701C293.393 560.738 302.159 566.237 302.452 565.626C298.068 569.292 291.23 568.827 286.058 567.517C284.392 567.11 280.973 563.618 279.073 563.56C271.515 563.415 263.967 564.197 256.601 565.888C252.708 566.863 248.964 568.35 245.467 570.311C239.681 572.819 233.557 574.467 227.29 575.199C228.007 575.077 228.653 574.693 229.102 574.122C229.669 573.369 229.983 572.456 230 571.514C230.017 570.572 229.735 569.649 229.194 568.876C228.654 568.103 227.883 567.519 226.99 567.207C226.097 566.895 225.128 566.871 224.221 567.139C218.611 568.71 211.831 571.038 209.756 571.62C204.73 573.802 199.586 575.228 194.677 572.493H194.998C197.756 571.646 200.292 570.203 202.423 568.266C204.555 566.329 206.231 563.947 207.33 561.291C208.016 559.613 208.306 557.801 208.178 555.995Z" fill="url(#paint10_linear_27_553)"/>
<path d="M393.715 354.644C385.438 349.366 378.959 341.718 375.13 332.705C372.308 326.336 371.872 319.172 373.902 312.511C365.515 316.905 357.596 325.285 356.368 335.032C359.671 331.046 366.187 333.287 370.132 335.905C370.291 336.012 370.423 336.152 370.52 336.316C370.617 336.48 370.676 336.664 370.693 336.853C370.709 337.043 370.684 337.233 370.617 337.412C370.55 337.59 370.445 337.751 370.308 337.884C364.463 343.238 351.284 333.316 339.594 347.981C338.776 349.145 337.87 350.599 336.935 352.258C335.224 355.27 334.209 358.624 333.963 362.076C333.718 365.527 334.248 368.99 335.516 372.212C336.784 375.434 338.758 378.334 341.293 380.701C343.829 383.067 346.862 384.842 350.173 385.894C353.704 387.045 357.513 387.036 361.039 385.868C364.564 384.7 367.619 382.434 369.753 379.405C371.068 393.954 360.167 398.493 349.063 396.689C344.586 395.851 340.348 394.046 336.648 391.402C332.947 388.758 329.873 385.338 327.642 381.384C318.495 366.05 313.469 349.377 292.837 344.431C295.967 348.659 298.267 353.437 299.617 358.514C300.523 364.333 301.341 375.797 303.211 381.209C308.209 397.096 325.1 420.199 343.569 407.862C341.026 419.007 328.636 424.215 318.115 423.08C335.269 432.711 363.937 461.139 338.571 477.142C335.035 479.034 329.279 482.758 329.805 487.472C330.827 488.521 332.13 489.257 333.559 489.592C334.989 489.928 336.485 489.848 337.87 489.363C341.499 487.632 345.312 486.315 349.238 485.435C357.479 483.922 366.304 484.708 372.616 490.469C369.694 482.671 363.236 479.499 356.953 474.902C364.58 473.418 372.032 477.986 379.396 481.071C381.385 481.898 383.564 482.162 385.694 481.834C387.824 481.505 389.822 480.596 391.465 479.208C391.299 477.7 391.299 476.178 391.465 474.669C392.423 466.423 395.705 458.615 400.934 452.148C407.304 444.03 400.554 444.001 400.349 427.183C400.349 420.855 401.59 414.589 404.002 408.735C406.315 402.853 408.133 396.79 409.438 390.608C410.66 383.738 409.82 376.662 407.024 370.265C404.227 363.868 399.598 358.434 393.715 354.644ZM381.442 441.935C378.14 444.408 371.36 442.459 372.675 437.658C350.231 460.179 379.455 472.574 392.956 444.961C392.167 453.69 390.209 463.787 381.442 467.715C358.94 475.775 348.244 453.777 359.378 435.708C370.191 424.826 363.499 409.812 352.423 402.159C372.207 413.653 381.968 399.424 383.721 380.337C382.114 368.349 370.045 358.281 364.668 347.864C401.109 370.647 403.301 382.781 377.672 416.941C374.048 423.778 370.775 439.665 381.442 441.819V441.935Z" fill="url(#paint11_linear_27_553)"/>
<path d="M358.998 492.156C372.5 492.36 375.948 503.155 367.502 514.881C367.502 506.763 360.313 495.968 352.423 493.669C354.472 492.676 356.72 492.159 358.998 492.156Z" fill="url(#paint12_linear_27_553)"/>
<path d="M409.116 357.903C411.369 358.922 413.355 360.445 414.921 362.352C416.487 364.259 417.591 366.501 418.146 368.902C418.711 371.349 419.053 373.842 419.169 376.35C424.095 374.468 428.574 371.584 432.319 367.883C434.679 362.318 434.773 356.058 432.582 350.425C431.815 348.752 431.34 346.961 431.18 345.129C431.767 344.187 432.613 343.432 433.618 342.953C434.622 342.473 435.743 342.289 436.849 342.423C437.651 342.481 438.426 342.741 439.099 343.18C439.035 342.177 438.798 341.193 438.398 340.27C435.757 338.996 432.732 338.757 429.923 339.601L428.14 340.154C427.736 340.277 427.373 340.508 427.09 340.82C426.807 341.133 426.615 341.516 426.533 341.929C425.826 346.055 423.63 349.783 420.359 352.413C417.088 355.044 412.966 356.395 408.765 356.215C407.2 356.145 405.659 355.811 404.207 355.226L409.116 357.903Z" fill="url(#paint13_linear_27_553)"/>
<path d="M387.432 262.726C370.863 271.019 375.334 298.312 396.199 287.924C388.426 282.658 385.708 269.68 389.42 261.3L387.432 262.726Z" fill="url(#paint14_linear_27_553)"/>
<path d="M397.748 267.498C397.164 277.333 405.434 291.008 416.422 285.393C408.152 282.89 401.43 275.005 397.748 267.498Z" fill="url(#paint15_linear_27_553)"/>
<path d="M455.492 268.867C454.632 266.218 452.916 263.927 450.612 262.349C448.922 261.084 447.134 259.956 445.264 258.974C443.027 257.983 441.274 256.153 440.384 253.882C440.055 253.151 439.915 252.351 439.977 251.553C440.038 250.755 440.299 249.986 440.735 249.313C429.192 253.649 435.854 272.329 447.105 271.893C430.01 279.836 418.174 253.358 431.413 243.174C416.947 231.157 434.832 210.585 417.415 202.438C440.326 205.552 429.279 232.35 439.624 242.301C439.711 241.416 439.662 240.523 439.478 239.653C438.912 236.29 439.022 232.848 439.8 229.527V229.324C440.943 224.7 441.144 219.895 440.391 215.192C439.638 210.489 437.947 205.984 435.416 201.944C433.405 198.724 430.765 195.94 427.653 193.755C424.54 191.571 421.019 190.032 417.298 189.228L407.771 187.337C409.583 185.736 416.538 185.387 420.103 185.184C421.093 185.102 422.089 185.231 423.025 185.562C426.52 186.798 429.57 189.036 431.792 191.992C430.283 186.546 430.102 180.82 431.266 175.291C432.16 171.578 432.476 167.751 432.202 163.943C432.07 162.091 431.605 160.277 430.828 158.589C429.533 155.694 427.342 153.287 424.574 151.722C423.676 151.192 422.674 150.858 421.637 150.743C420.599 150.627 419.548 150.733 418.554 151.053C415.242 152.049 412.407 154.21 410.576 157.134L408.209 161.091C409.192 152.593 411.55 144.31 415.194 136.562C417.444 131.791 419.753 126.786 421.74 122.014C424.756 115.066 425.768 107.418 424.662 99.9293C422.792 88.2905 415.895 81.6855 401.576 75.6624C403.417 77.5246 407.42 80.7253 407.04 83.7223C406.479 85.856 406.675 88.1172 407.596 90.1236C409.857 91.4426 411.7 93.3685 412.914 95.6811C422.587 114.129 414.785 126.64 401.751 142.236C397.017 147.852 396.783 157.687 396.286 164.583C393.295 159.248 391.735 153.235 391.757 147.125C391.759 144.985 392.312 142.881 393.364 141.014C395.581 137.107 398.133 133.398 400.991 129.928C406.836 122.712 409.758 117.417 407.8 105.254C399.033 95.6811 396.111 80.9871 391.581 69.2319C387.425 63.3684 382.378 58.1851 376.619 53.8687C374.419 52.2354 371.973 50.9588 369.372 50.0861C364.784 48.5439 358.296 46.4781 355.754 47.1764C355.373 50.37 355.9 53.6059 357.273 56.5165C359.348 60.9626 362.653 64.7275 366.8 67.3697L368.144 68.2426C374.282 72.2767 380.989 75.3757 388.045 77.4373H388.338C379.191 82.2674 371.242 80.0851 362.709 75.3714C362.83 79.3098 361.945 83.2143 360.137 86.7193C359.472 87.8515 358.656 88.889 357.712 89.8035C353.817 93.4394 349.489 96.5859 344.824 99.1728L343.772 99.551L334.713 101.122L335.21 100.919C340.646 98.3365 345.341 94.4314 348.861 89.5643C352.38 84.6972 354.61 79.0252 355.345 73.0727C355.656 70.6014 355.568 68.0963 355.082 65.653C352.024 62.5618 349.265 59.1911 346.841 55.5854C345.43 51.598 344.508 47.4557 344.094 43.2483C343.799 40.6078 343.271 37.9983 342.516 35.4503C341.461 31.6629 339.194 28.322 336.057 25.9355C328.547 20.1161 323.638 19.7379 312.153 18.9232C307.01 18.6904 294.005 18.1084 289.71 21.5419C290.255 22.143 290.83 22.7159 291.434 23.2586C298.22 29.3404 307.026 32.7085 316.157 32.7151C321.304 33.0453 326.468 32.4137 331.382 30.8529L331.09 31.1148C327.075 34.9574 321.977 37.4855 316.478 38.36L313.293 38.7964C304.882 39.7242 296.439 37.3668 289.739 32.2205C281.878 26.1974 273.871 18.7777 267.588 12.9001C255.898 2.27965 231.117 3.7345 221.006 15.8098C242.631 27.3031 222.759 43.5974 253.151 57.4767C241.228 59.3971 231.731 48.3403 226.383 39.0874C229.13 27.8559 222.087 23.2877 213.116 22.2984C208.937 21.7733 204.693 22.3554 200.813 23.986C198.265 25.0077 196.015 26.6482 194.267 28.758C191.473 32.0881 189.604 36.0885 188.845 40.3613C188.086 44.634 188.464 49.0301 189.942 53.1122C189.929 53.2282 189.929 53.3453 189.942 53.4613C191.871 59.6881 197.394 65.7403 201.397 71.4724C203.006 73.7606 203.937 76.4522 204.086 79.2413C204.301 82.0399 203.421 84.8129 201.631 86.9811C200.452 88.0918 199.1 89.0056 197.628 89.6871V89.1052C197.778 87.1333 197.492 85.1526 196.79 83.3026C196.088 81.4526 194.987 79.7783 193.566 78.3975C191.315 76.2152 188.89 73.7129 186.786 71.5015C184.049 68.6877 182.043 65.252 180.941 61.4921C179.503 56.0865 179.116 50.4571 179.801 44.9068C180.631 37.5662 183.832 30.6922 188.923 25.3189C194.014 19.9456 200.719 16.3635 208.031 15.1114C209.844 14.5509 211.753 14.3629 213.642 14.5586C213.642 8.41913 229.13 4.60741 234.39 3.87999C206.19 -7.0605 164.43 6.29504 146.107 29.4272C159.754 30.882 168.726 44.9068 167.615 57.9714C164.342 71.4433 151.513 82.9075 144.997 94.75C138.86 105.225 138.801 121.374 142.542 132.576C136.931 127.862 129.012 117.271 132.665 104.759C141.665 73.7129 175.155 50.1443 127.434 33.1225C120.167 30.7074 112.373 30.3249 104.903 32.0168C102.437 32.4373 100.025 33.1302 97.7137 34.0827C86.0244 39.9021 74.9489 58.8152 77.2575 72.9273C99.7885 85.0316 95.1421 99.1146 95.9311 119.686C100.928 117.358 98.5612 112.354 102.126 108.426C107.737 102.257 114.079 95.9721 106.101 81.6564C97.3338 65.8858 116.241 58.3787 114.108 43.5683C117.381 51.3373 113.407 59.0771 111.186 67.3115C105.896 87.0102 125.388 90.0945 107.036 111.597C93.2133 127.833 121.647 134.438 111.77 151.78C109.461 141.073 88.8883 134.642 89.7066 124.196C90.2618 116.864 91.3138 101.384 88.7422 93.4116C85.0737 84.6478 78.2013 77.5971 69.5134 73.6838C67.8477 68.9701 65.8605 67.0788 63.6688 66.7878C60.3137 66.1505 56.8635 66.2 53.5283 66.9333C45.4627 69.4356 42.5697 73.1018 38.157 80.2597C32.8091 88.9888 33.3644 99.6383 44.4692 105.603C46.5016 101.152 48.8048 96.8276 51.3658 92.6551C54.2881 88.6106 62.5583 80.1433 68.2276 83.0821C48.3266 94.7209 36.725 125.477 66.5326 128.677C63.7856 131.354 57.415 130.598 54.0836 129.812C66.3281 142.935 60.1328 162.895 47.3038 173.167C53.353 179.975 62.9089 188.297 66.3573 196.997C66.9562 201.971 66.425 207.015 64.8027 211.757C63.1805 216.499 60.5088 220.817 56.9851 224.393C53.4614 227.968 49.1757 230.71 44.4448 232.414C39.714 234.119 34.6588 234.743 29.653 234.241C39.7935 223.824 47.4499 201.623 29.653 194.989C13.7849 204.475 -0.709781 232.146 16.0643 246.433C30.1498 252.252 41.1962 268.547 38.3031 283.968C36.3451 269.42 22.6395 251.496 9.28453 262.756C-11.4639 280.215 5.86542 319.234 28.8932 330.902C21.2368 294.996 63.2304 294.792 42.4528 245.298C68.549 265.201 62.3537 294.007 47.5376 318.884C41.3715 326.973 49.1741 378.999 57.1812 349.116C61.2725 359.911 51.9211 372.772 56.4214 383.858C62.266 391.482 66.2988 404.226 72.4357 411.617C80.209 401.84 86.1121 386.506 85.0601 373.791C86.755 341.289 58.7593 329.272 62.6459 303.201C65.0422 315.917 75.9717 326.479 83.1021 336.605C94.9959 359.649 98.3274 389.765 81.9624 411.5C76.1178 417.785 73.1955 431.025 74.4229 439.288C71.0038 454.622 58.5547 473.332 63.6688 489.219C66.5911 469.374 80.3259 482.206 82.8976 464.079C88.6449 455.055 95.5184 446.793 103.354 439.492C108.935 437.426 116.65 433.061 115.774 425.962C103.588 431.781 72.4065 436 94.1192 416.214C101.337 398.319 109.578 370.881 127.083 361.192C106.948 347.72 126.002 317.546 89.0929 331.367C100.782 309.544 122.846 333.52 111.712 300.001C108.789 291.999 107.065 294.181 101.542 298.691C91.1093 302.212 76.1178 303.056 66.2988 297.382C83.3067 301.397 108.994 293.657 107.387 272.795C112.559 269.885 121.998 262.407 124.745 257.024C123.255 247.509 125.476 232.466 117.206 225.658C122.027 237.937 110.426 249.139 98.9411 252.223C98.0059 249.779 96.7493 248.761 99.0872 247.248C116.387 236.074 103.295 216.026 127.171 197.783C139.532 188.297 135.616 169.122 123.781 159.956C136.025 162.633 139.707 172.817 141.899 183.816C141.899 180.004 145.727 175.087 148.503 172.905C140.409 153.962 141.694 127.164 162.121 116.398C149.877 136.33 144.588 166.823 163.699 182.943C164.483 183.749 165.509 184.28 166.622 184.456C166.622 184.456 164.401 181.11 163.699 179.946C143.185 147.648 208.265 131.616 171.619 114.1C183.308 112.121 191.871 120.705 190.643 132.285L205.255 134.584L214.022 136.388C217.425 137.062 220.746 138.096 223.928 139.472C224.479 139.738 225.045 139.972 225.623 140.171L226.091 140.374C231.324 142.635 236.237 145.569 240.702 149.103L242.164 150.267L244.677 152.682C247.671 155.566 250.292 158.812 252.479 162.342C253.219 163.567 253.808 164.876 254.233 166.241C255.548 170.264 256.045 174.508 255.694 178.724L255.402 182.041L256.921 179.946C257.689 178.917 258.254 177.752 258.587 176.513C259.286 173.922 259.64 171.252 259.639 168.569C259.638 166.011 259.284 163.466 258.587 161.004C257.964 158.803 257.039 156.698 255.84 154.748L253.97 151.838L253.064 150.762C250.477 147.658 247.247 145.147 243.596 143.4L241.404 142.324C240.935 142.087 240.446 141.893 239.943 141.742L233.455 139.676L227.201 137.93C204.32 124.196 214.372 106.738 196.488 99.6383C239.037 101.733 224.045 127.688 255.519 137.93C252.129 126.99 257.856 115.118 263.789 105.079C267.34 99.2753 268.813 92.445 267.968 85.7009C266.966 77.7889 263.825 70.2964 258.879 64.0236C263.419 64.4225 267.619 66.5865 270.568 70.0467C278.459 79.3286 281.732 92.8878 281.761 104.963C281.757 107.926 280.971 110.836 279.482 113.401C277.591 116.708 275.195 119.702 272.38 122.276L272.176 122.45C269.8 124.591 267.821 127.133 266.331 129.957V130.103C264.756 133.036 264.076 136.363 264.373 139.676C264.707 143.655 265.869 147.52 267.786 151.027C269.703 154.534 272.333 157.605 275.507 160.044C281.835 160.544 288.062 161.925 294.005 164.146C300.367 166.287 305.895 170.357 309.815 175.785C310.332 177.625 310.704 179.503 310.926 181.401C319.43 175.291 320.423 169.762 320.277 161.033C320.247 158.727 319.634 156.465 318.494 154.457C315.729 149.373 311.602 145.153 306.571 142.265C298.633 138.025 290.088 135.022 281.235 133.362L283.339 132.984C290.493 131.74 297.825 131.928 304.906 133.536C305.462 133.666 305.995 133.882 306.484 134.177C313.253 138.373 319.467 143.397 324.982 149.132C336.525 161.586 338.892 175.64 335.531 191.934C343.013 186.668 345.234 181.634 345.847 175.465C346.418 168.119 344.909 160.76 341.493 154.224L338.571 148.58C339.859 148.919 341.069 149.501 342.136 150.296C344.986 152.271 347.396 154.809 349.216 157.753C351.037 160.697 352.227 163.983 352.715 167.405C353.325 170.989 353.511 174.632 353.27 178.259C352.51 186.988 351.224 199.587 357.42 206.774C363.341 210.192 369.46 213.263 375.742 215.968C380.375 218.353 384.518 221.58 387.958 225.483C396.725 235.172 404.586 240.032 409.232 252.98C407.917 271.224 415.281 280.855 435.533 281.32C431.541 282.377 427.945 284.572 425.188 287.634C421.982 290.959 418.039 293.491 413.674 295.025C408.151 296.829 402.365 296.596 400.056 290.457C398.362 293.422 395.804 295.805 392.72 297.291C389.636 298.777 386.172 299.295 382.785 298.778C380.841 301.204 379.452 304.023 378.715 307.038C377.979 310.054 377.911 313.193 378.519 316.237C379.225 320.651 380.924 324.849 383.49 328.518C386.056 332.186 389.421 335.229 393.335 337.419H393.481C398.38 340.305 404.054 341.615 409.729 341.173C417.035 340.562 424.34 337.798 427.906 331.774C415.69 335.295 411.161 331.775 410.08 324.355C409.485 319.372 410.257 314.321 412.316 309.741C414.374 305.16 417.641 301.221 421.769 298.342C425.305 295.752 429.045 293.483 432.055 291.359C441.67 286.383 459.204 281.146 455.492 268.867ZM84.3587 222.981C88.9468 232.234 94.7329 243.058 95.7265 253.853C93.8855 270.38 77.9004 282.542 64.9253 291.126C71.9097 281.582 85.1477 271.02 85.3815 258.246C84.9432 250.215 86.9596 215.677 73.8676 231.419C83.5405 217.772 101.074 201.158 90.8463 183.176C86.9011 176.92 84.0373 171.683 81.5241 167.871C86.5797 170.781 91.8106 173.981 95.0836 176.338C111.419 188.239 103.149 217.801 84.3295 222.981H84.3587ZM262.152 50.959C262.152 47.4674 262.824 42.6372 260.457 39.6984C266.01 40.455 268.523 45.1396 269.224 50.0861C269.813 53.9168 270.986 57.6355 272.702 61.1139C275.206 65.6619 277.168 70.486 278.546 75.4878C274.835 66.6714 263.759 61.2593 262.152 50.959ZM359.699 117.038C359.568 119.433 358.877 121.765 357.683 123.847C357.453 124.27 357.122 124.63 356.718 124.895C351.337 128.678 345.232 131.321 338.782 132.657C332.332 133.993 325.676 133.996 319.225 132.663C315.983 130.57 313.364 127.649 311.642 124.204C309.92 120.76 309.158 116.919 309.435 113.081C309.974 108.664 309.846 104.192 309.055 99.8129C304.797 94.4612 299.788 89.7476 294.181 85.8172L289.3 82.3547C283.267 75.4217 278.705 67.3454 275.887 58.6115C274.63 54.7707 273.374 50.8426 272 47.1764C269.897 41.503 265.723 36.8275 260.311 34.0827C257.657 32.6727 254.841 31.5882 251.924 30.8529C248.144 30.6279 244.358 31.1623 240.79 32.4242C247.804 26.6048 257.886 28.0014 266.769 31.1439C273.173 33.4587 278.869 37.3769 283.31 42.5209C286.591 46.4422 290.177 50.1003 294.035 53.4613C298.305 56.9422 303.718 58.7251 309.231 58.466C322.527 57.9132 322.995 54.9453 326.326 54.8871C313.731 68.8537 305.87 77.8156 286.232 67.9226C291.317 73.742 302.86 81.1617 310.809 85.8172C314.182 87.7805 316.955 90.6218 318.83 94.036C320.704 97.4502 321.608 101.308 321.446 105.196V105.37V106.942C321.114 111.757 322.125 116.571 324.368 120.85C325.284 122.586 326.784 123.946 328.606 124.691C332.476 126.293 336.734 126.728 340.85 125.942H340.996C344.422 125.29 347.732 124.133 350.815 122.509C354.309 120.663 357.101 117.731 358.764 114.158L359.699 112.121V117.038ZM364.053 142.731C364.809 136.99 367.485 131.67 371.651 127.63C378.343 120.937 386.73 114.07 385.737 104.352C398.157 133.071 347.133 147.154 397.894 179.539C379.892 175.523 362.008 160.859 364.053 142.731ZM397.718 224.668C395.075 217.194 393.779 209.314 393.89 201.391C392.99 195.591 390.172 190.256 385.883 186.231C384.217 184.606 382.375 183.171 380.389 181.954C393.189 184.864 400.407 188.559 405.345 198.132C406.002 201.31 406.13 204.573 405.725 207.792C404.901 216.172 405.176 224.623 406.544 232.932C406.834 234.733 407.02 236.55 407.099 238.373C403.621 233.572 400.115 228.655 397.718 224.668Z" fill="url(#paint16_linear_27_553)"/>
<path d="M135.88 207.994C132.895 208.774 130.012 209.897 127.288 211.341C130.044 209.966 132.919 208.846 135.88 207.994Z" fill="url(#paint17_linear_27_553)"/>
<path d="M361.482 272.154C362.706 268.314 365.045 264.922 368.204 262.406C379.425 253.124 384.393 246.374 377.175 234.647C374.436 230.277 370.813 226.522 366.538 223.62C356.31 216.433 342.604 207.645 345.03 194.814C342.546 199.876 331.821 203.135 326.912 204.561C328.431 202.437 328.811 196.559 328.869 191.235C328.939 185.648 327.485 180.147 324.661 175.319C324.661 175.319 307.449 202.408 294.211 203.834C301.546 196.676 306.572 189.547 304.614 180.003C304.303 178.44 303.642 176.967 302.681 175.692C301.72 174.418 300.483 173.375 299.062 172.642C289.769 167.87 276.502 167.986 266.916 166.822C269.254 182.622 267.238 190.1 254.117 199.615C251.019 201.884 244.561 207.965 240.177 206.161C235.355 186.666 256.864 190.798 239.417 164.32C220.072 144.738 202.83 155.911 186.611 140.286C185.472 147.327 179.452 153.001 174.922 158.937C173.417 160.803 172.309 162.955 171.666 165.261C171.023 167.567 170.858 169.979 171.181 172.351C171.854 176.773 174.104 179.247 178.926 184.222C182.929 187.132 192.748 195.861 198.33 193.592C193.479 198.684 183.981 198.072 176.003 196.996C170.97 196.299 166.157 194.49 161.918 191.7C158.659 189.563 155.899 186.755 153.823 183.466L150.316 178.374C148.68 180.527 146.342 183.99 144.179 187.51C139.894 194.606 135.14 201.41 129.948 207.878L127.288 211.253C130.012 209.81 132.895 208.687 135.88 207.907C148.65 204.532 163.7 206.394 175.77 209.711C185.627 211.79 195.332 214.532 204.817 217.917C209.038 219.483 213.148 221.33 217.12 223.445C219.431 224.697 221.359 226.547 222.702 228.799C222.494 231.846 221.486 234.786 219.78 237.324C219.31 238.258 218.71 239.12 217.997 239.885C217.705 240.176 213.467 243.58 211.685 244.831L202.626 245.966L200.931 245.442C199.762 245.064 198.593 244.773 197.395 244.511C195.56 244.151 193.774 243.575 192.076 242.795C185.879 240.306 180.333 236.445 175.857 231.505C168.113 235.695 155.401 239.099 147.189 234.415C139.971 240.758 140.936 244.424 145.67 247.334C149.307 249.589 153.513 250.77 157.797 250.738C159.059 250.729 160.319 250.631 161.567 250.447C162.802 250.247 164.068 250.355 165.251 250.761C166.435 251.167 167.498 251.859 168.347 252.775C168.611 253.294 168.779 253.855 168.844 254.433C168.844 261.824 155.985 259.7 148.037 258.711C142.295 258.032 136.838 255.842 132.227 252.368C131.584 251.902 131.058 251.466 130.649 251.116C136.494 260.136 128.837 267.12 121.882 273.725C119.644 275.837 117.906 278.418 116.794 281.281C115.682 284.145 115.224 287.219 115.453 290.281C115.534 291.342 115.75 292.388 116.096 293.394C116.622 294.907 117.236 296.741 117.878 298.69C120.153 305.618 121.547 312.803 122.028 320.076C122.256 324.87 123.02 329.622 124.308 334.247C126.996 339.804 129.655 351.996 136.932 354.876L140.41 356.244C140.368 355.154 140.437 354.062 140.614 352.985C141.643 350.647 142.98 348.455 144.588 346.467C146.169 344.787 147.923 343.275 149.819 341.957C152.513 340.026 155.463 338.479 158.586 337.36C163.733 334.689 169.565 333.615 175.331 334.276C180.095 328.805 184.741 324.848 192.31 323.946C188.219 310.387 190.703 305.673 201.924 297.759C206.249 295.257 209.522 289.641 214.519 292.201C214.866 292.369 215.154 292.636 215.346 292.968C215.539 293.299 215.628 293.681 215.601 294.064C215.517 295.502 215.122 296.905 214.44 298.176C213.759 299.447 212.809 300.556 211.656 301.425C209.094 303.317 206.654 305.368 204.35 307.565C203.094 308.74 202.111 310.175 201.47 311.768C200.829 313.361 200.545 315.075 200.638 316.788C200.675 317.592 200.878 318.379 201.235 319.1C201.592 319.821 202.095 320.461 202.713 320.978C204.975 323.04 207.947 324.155 211.013 324.092H211.246C211.802 338.64 193.713 326.565 182.695 342.103C180.849 353.877 174.888 364.624 165.863 372.451C168.835 366.844 171.508 361.084 173.87 355.196C175.144 351.283 175.689 347.171 175.477 343.063C170.763 342.705 166.028 343.411 161.626 345.129C148.68 351.996 141.695 367.097 139.27 380.889C138.822 376.053 138.734 371.19 139.007 366.341C116.037 372.16 111.566 401.461 100.812 419.006C119.866 418.744 138.335 401.548 150.492 388.309C150.257 385.101 150.414 381.877 150.959 378.707C151.162 377.73 151.659 376.838 152.383 376.149C153.107 375.459 154.025 375.006 155.014 374.848C156.003 374.69 157.017 374.835 157.921 375.265C158.826 375.694 159.577 376.387 160.077 377.252C160.615 378.419 160.729 379.735 160.398 380.976C171.737 384.875 185.238 378.62 192.807 369.57C194.472 367.592 196.196 365.701 197.95 363.751C206.015 355.022 208.236 339.455 213.906 333.956C214.639 333.335 215.527 332.923 216.476 332.763C217.425 332.603 218.4 332.701 219.298 333.047C220.195 333.392 220.983 333.973 221.577 334.727C222.171 335.481 222.549 336.38 222.673 337.331C224.309 350.483 222.673 359.532 240.06 365.73C238.709 362.493 238.304 358.943 238.891 355.487C239.088 354.284 239.674 353.178 240.56 352.338C241.447 351.497 242.585 350.969 243.801 350.832C244.78 350.653 245.791 350.824 246.657 351.313C247.523 351.803 248.188 352.58 248.535 353.509C249.64 356.959 250.163 360.567 250.084 364.187C250.242 366.415 250.84 368.589 251.843 370.586C252.846 372.583 254.234 374.364 255.929 375.826C268.319 386.563 288.074 389.851 292.37 407.484C294.708 403.934 292.574 397.387 290.967 393.983C296.549 402.275 304.556 411.441 315.281 412.285C298.244 402.188 298.214 376.612 290.12 360.463C277.378 336.342 262.212 318.418 233.281 331.191C227.904 331.191 226.91 326.303 226.881 321.182C227.991 312.453 245.817 317.487 252.626 315.363C251.775 312.673 251.38 309.86 251.457 307.041C252.188 304.48 253.269 303.52 254.73 303.433C256.154 303.417 257.527 303.962 258.55 304.948C259.573 305.934 260.164 307.282 260.195 308.699C261.072 323.248 274.485 316.032 286.642 336.08C302.569 335.614 321.914 340.27 324.34 358.63C327.671 346.002 337.169 333.927 350.348 330.842C350.348 330.842 350.874 329.707 351.576 328.107C354.212 322.428 357.507 317.077 361.395 312.162C364.609 308.117 367.01 303.494 368.467 298.545C368.762 297.524 368.772 296.441 368.493 295.416C368.215 294.39 367.66 293.459 366.889 292.725C364.258 290.143 362.35 286.922 361.356 283.379C360.362 279.837 360.314 276.098 361.219 272.532L361.482 272.154ZM349.18 240.991C347.183 241.849 345.004 242.199 342.838 242.009C340.079 241.762 337.397 240.97 334.948 239.681C330.366 237.277 325.62 235.196 320.745 233.454C322.176 235.387 324.148 236.855 326.415 237.674C329.717 239.885 335.737 242.213 334.334 247.246C327.525 253.822 314.959 256.965 306.192 259.642C293.948 259.875 272.732 262.552 267.15 248.527C265.81 248.135 264.493 247.669 263.205 247.13L264.082 246.635C265.86 245.641 267.892 245.186 269.926 245.326C271.283 245.392 272.609 245.749 273.813 246.374C276.238 247.559 278.737 248.59 281.294 249.458C294.094 252.979 308.998 249.836 320.892 244.715C314.873 240.298 308.373 236.569 301.517 233.6C292.399 239.07 280.096 238.779 270.131 235.986C256.192 243.697 247.103 259.438 244.678 274.86C242.99 267.593 242.623 260.083 243.596 252.688C244.568 244.25 247.764 236.219 252.86 229.41L253.503 228.508C254.296 227.373 255.285 226.388 256.425 225.598C269.914 216.715 285.43 211.352 301.546 210.002C305.182 209.818 308.797 210.655 311.979 212.417C315.894 214.629 320.278 217.655 322.44 219.11C329.805 223.329 339.244 229.905 346.9 234.997C348.767 236.254 350.108 238.148 350.67 240.321L349.18 240.991Z" fill="url(#paint18_linear_27_553)"/>
<defs>
<linearGradient id="paint0_linear_27_553" x1="-9.12526" y1="79.8511" x2="266.155" y2="586.559" gradientUnits="userSpaceOnUse">
<stop stop-color="#2E1988"/>
<stop offset="0.05" stop-color="#351C91"/>
<stop offset="0.14" stop-color="#4725AB"/>
<stop offset="0.25" stop-color="#6432D4"/>
<stop offset="0.26" stop-color="#6834D9"/>
<stop offset="0.51" stop-color="#8A2CF4"/>
<stop offset="0.79" stop-color="#5F09AF"/>
<stop offset="1" stop-color="#170023"/>
</linearGradient>
<linearGradient id="paint1_linear_27_553" x1="-102.931" y1="130.8" x2="172.378" y2="637.537" gradientUnits="userSpaceOnUse">
<stop stop-color="#2E1988"/>
<stop offset="0.05" stop-color="#351C91"/>
<stop offset="0.14" stop-color="#4725AB"/>
<stop offset="0.25" stop-color="#6432D4"/>
<stop offset="0.26" stop-color="#6834D9"/>
<stop offset="0.51" stop-color="#8A2CF4"/>
<stop offset="0.79" stop-color="#5F09AF"/>
<stop offset="1" stop-color="#170023"/>
</linearGradient>
<linearGradient id="paint2_linear_27_553" x1="46.0773" y1="49.8523" x2="321.387" y2="556.56" gradientUnits="userSpaceOnUse">
<stop stop-color="#2E1988"/>
<stop offset="0.05" stop-color="#351C91"/>
<stop offset="0.14" stop-color="#4725AB"/>
<stop offset="0.25" stop-color="#6432D4"/>
<stop offset="0.26" stop-color="#6834D9"/>
<stop offset="0.51" stop-color="#8A2CF4"/>
<stop offset="0.79" stop-color="#5F09AF"/>
<stop offset="1" stop-color="#170023"/>
</linearGradient>
<linearGradient id="paint3_linear_27_553" x1="40.0865" y1="53.0818" x2="315.396" y2="559.819" gradientUnits="userSpaceOnUse">
<stop stop-color="#2E1988"/>
<stop offset="0.05" stop-color="#351C91"/>
<stop offset="0.14" stop-color="#4725AB"/>
<stop offset="0.25" stop-color="#6432D4"/>
<stop offset="0.26" stop-color="#6834D9"/>
<stop offset="0.51" stop-color="#8A2CF4"/>
<stop offset="0.79" stop-color="#5F09AF"/>
<stop offset="1" stop-color="#170023"/>
</linearGradient>
<linearGradient id="paint4_linear_27_553" x1="1.62886" y1="74.0025" x2="276.939" y2="580.71" gradientUnits="userSpaceOnUse">
<stop stop-color="#2E1988"/>
<stop offset="0.05" stop-color="#351C91"/>
<stop offset="0.14" stop-color="#4725AB"/>
<stop offset="0.25" stop-color="#6432D4"/>
<stop offset="0.26" stop-color="#6834D9"/>
<stop offset="0.51" stop-color="#8A2CF4"/>
<stop offset="0.79" stop-color="#5F09AF"/>
<stop offset="1" stop-color="#170023"/>
</linearGradient>
<linearGradient id="paint5_linear_27_553" x1="-49.6869" y1="101.878" x2="225.623" y2="608.585" gradientUnits="userSpaceOnUse">
<stop stop-color="#2E1988"/>
<stop offset="0.05" stop-color="#351C91"/>
<stop offset="0.14" stop-color="#4725AB"/>
<stop offset="0.25" stop-color="#6432D4"/>
<stop offset="0.26" stop-color="#6834D9"/>
<stop offset="0.51" stop-color="#8A2CF4"/>
<stop offset="0.79" stop-color="#5F09AF"/>
<stop offset="1" stop-color="#170023"/>
</linearGradient>
<linearGradient id="paint6_linear_27_553" x1="-95.0704" y1="126.523" x2="180.239" y2="633.259" gradientUnits="userSpaceOnUse">
<stop stop-color="#2E1988"/>
<stop offset="0.05" stop-color="#351C91"/>
<stop offset="0.14" stop-color="#4725AB"/>
<stop offset="0.25" stop-color="#6432D4"/>
<stop offset="0.26" stop-color="#6834D9"/>
<stop offset="0.51" stop-color="#8A2CF4"/>
<stop offset="0.79" stop-color="#5F09AF"/>
<stop offset="1" stop-color="#170023"/>
</linearGradient>
<linearGradient id="paint7_linear_27_553" x1="0.167717" y1="74.7881" x2="275.477" y2="581.496" gradientUnits="userSpaceOnUse">
<stop stop-color="#2E1988"/>
<stop offset="0.05" stop-color="#351C91"/>
<stop offset="0.14" stop-color="#4725AB"/>
<stop offset="0.25" stop-color="#6432D4"/>
<stop offset="0.26" stop-color="#6834D9"/>
<stop offset="0.51" stop-color="#8A2CF4"/>
<stop offset="0.79" stop-color="#5F09AF"/>
<stop offset="1" stop-color="#170023"/>
</linearGradient>
<linearGradient id="paint8_linear_27_553" x1="78.5441" y1="32.1903" x2="353.854" y2="538.927" gradientUnits="userSpaceOnUse">
<stop stop-color="#2E1988"/>
<stop offset="0.05" stop-color="#351C91"/>
<stop offset="0.14" stop-color="#4725AB"/>
<stop offset="0.25" stop-color="#6432D4"/>
<stop offset="0.26" stop-color="#6834D9"/>
<stop offset="0.51" stop-color="#8A2CF4"/>
<stop offset="0.79" stop-color="#5F09AF"/>
<stop offset="1" stop-color="#170023"/>
</linearGradient>
<linearGradient id="paint9_linear_27_553" x1="69.3389" y1="37.1951" x2="344.648" y2="543.932" gradientUnits="userSpaceOnUse">
<stop stop-color="#2E1988"/>
<stop offset="0.05" stop-color="#351C91"/>
<stop offset="0.14" stop-color="#4725AB"/>
<stop offset="0.25" stop-color="#6432D4"/>
<stop offset="0.26" stop-color="#6834D9"/>
<stop offset="0.51" stop-color="#8A2CF4"/>
<stop offset="0.79" stop-color="#5F09AF"/>
<stop offset="1" stop-color="#170023"/>
</linearGradient>
<linearGradient id="paint10_linear_27_553" x1="4.20052" y1="72.6062" x2="279.51" y2="579.314" gradientUnits="userSpaceOnUse">
<stop stop-color="#2E1988"/>
<stop offset="0.05" stop-color="#351C91"/>
<stop offset="0.14" stop-color="#4725AB"/>
<stop offset="0.25" stop-color="#6432D4"/>
<stop offset="0.26" stop-color="#6834D9"/>
<stop offset="0.51" stop-color="#8A2CF4"/>
<stop offset="0.79" stop-color="#5F09AF"/>
<stop offset="1" stop-color="#170023"/>
</linearGradient>
<linearGradient id="paint11_linear_27_553" x1="134.36" y1="1.87137" x2="409.67" y2="508.608" gradientUnits="userSpaceOnUse">
<stop stop-color="#2E1988"/>
<stop offset="0.05" stop-color="#351C91"/>
<stop offset="0.14" stop-color="#4725AB"/>
<stop offset="0.25" stop-color="#6432D4"/>
<stop offset="0.26" stop-color="#6834D9"/>
<stop offset="0.51" stop-color="#8A2CF4"/>
<stop offset="0.79" stop-color="#5F09AF"/>
<stop offset="1" stop-color="#170023"/>
</linearGradient>
<linearGradient id="paint12_linear_27_553" x1="100.929" y1="20.028" x2="376.238" y2="526.765" gradientUnits="userSpaceOnUse">
<stop stop-color="#2E1988"/>
<stop offset="0.05" stop-color="#351C91"/>
<stop offset="0.14" stop-color="#4725AB"/>
<stop offset="0.25" stop-color="#6432D4"/>
<stop offset="0.26" stop-color="#6834D9"/>
<stop offset="0.51" stop-color="#8A2CF4"/>
<stop offset="0.79" stop-color="#5F09AF"/>
<stop offset="1" stop-color="#170023"/>
</linearGradient>
<linearGradient id="paint13_linear_27_553" x1="209.435" y1="-38.9224" x2="484.744" y2="467.814" gradientUnits="userSpaceOnUse">
<stop stop-color="#2E1988"/>
<stop offset="0.05" stop-color="#351C91"/>
<stop offset="0.14" stop-color="#4725AB"/>
<stop offset="0.25" stop-color="#6432D4"/>
<stop offset="0.26" stop-color="#6834D9"/>
<stop offset="0.51" stop-color="#8A2CF4"/>
<stop offset="0.79" stop-color="#5F09AF"/>
<stop offset="1" stop-color="#170023"/>
</linearGradient>
<linearGradient id="paint14_linear_27_553" x1="212.24" y1="-40.4358" x2="487.549" y2="466.301" gradientUnits="userSpaceOnUse">
<stop stop-color="#2E1988"/>
<stop offset="0.05" stop-color="#351C91"/>
<stop offset="0.14" stop-color="#4725AB"/>
<stop offset="0.25" stop-color="#6432D4"/>
<stop offset="0.26" stop-color="#6834D9"/>
<stop offset="0.51" stop-color="#8A2CF4"/>
<stop offset="0.79" stop-color="#5F09AF"/>
<stop offset="1" stop-color="#170023"/>
</linearGradient>
<linearGradient id="paint15_linear_27_553" x1="227.202" y1="-48.5833" x2="502.512" y2="458.153" gradientUnits="userSpaceOnUse">
<stop stop-color="#2E1988"/>
<stop offset="0.05" stop-color="#351C91"/>
<stop offset="0.14" stop-color="#4725AB"/>
<stop offset="0.25" stop-color="#6432D4"/>
<stop offset="0.26" stop-color="#6834D9"/>
<stop offset="0.51" stop-color="#8A2CF4"/>
<stop offset="0.79" stop-color="#5F09AF"/>
<stop offset="1" stop-color="#170023"/>
</linearGradient>
<linearGradient id="paint16_linear_27_553" x1="96.1649" y1="22.6185" x2="371.474" y2="529.355" gradientUnits="userSpaceOnUse">
<stop stop-color="#2E1988"/>
<stop offset="0.05" stop-color="#351C91"/>
<stop offset="0.14" stop-color="#4725AB"/>
<stop offset="0.25" stop-color="#6432D4"/>
<stop offset="0.26" stop-color="#6834D9"/>
<stop offset="0.51" stop-color="#8A2CF4"/>
<stop offset="0.79" stop-color="#5F09AF"/>
<stop offset="1" stop-color="#170023"/>
</linearGradient>
<linearGradient id="paint17_linear_27_553" x1="44.4701" y1="50.6967" x2="319.777" y2="557.432" gradientUnits="userSpaceOnUse">
<stop stop-color="#2E1988"/>
<stop offset="0.05" stop-color="#351C91"/>
<stop offset="0.14" stop-color="#4725AB"/>
<stop offset="0.25" stop-color="#6432D4"/>
<stop offset="0.26" stop-color="#6834D9"/>
<stop offset="0.51" stop-color="#8A2CF4"/>
<stop offset="0.79" stop-color="#5F09AF"/>
<stop offset="1" stop-color="#170023"/>
</linearGradient>
<linearGradient id="paint18_linear_27_553" x1="77.7552" y1="32.6267" x2="353.065" y2="539.363" gradientUnits="userSpaceOnUse">
<stop stop-color="#2E1988"/>
<stop offset="0.05" stop-color="#351C91"/>
<stop offset="0.14" stop-color="#4725AB"/>
<stop offset="0.25" stop-color="#6432D4"/>
<stop offset="0.26" stop-color="#6834D9"/>
<stop offset="0.51" stop-color="#8A2CF4"/>
<stop offset="0.79" stop-color="#5F09AF"/>
<stop offset="1" stop-color="#170023"/>
</linearGradient>
</defs>
</svg>
