<svg width="111" height="140" viewBox="0 0 111 140" fill="none" xmlns="http://www.w3.org/2000/svg">
<g clip-path="url(#clip0_1_336)">
<path d="M7.11356 44.0838C2.17675 40.6698 2.74583 33.5657 7.42656 31.4763C12.527 29.1956 13.6794 37.2984 11.4315 40.4715C12.4487 36.4414 7.16335 38.4671 10.1937 44.0838C12.3278 48.0573 14.2911 51.0675 10.3289 54.276C12.2282 50.7063 10.1226 46.3078 7.11356 44.0838Z" fill="url(#paint0_linear_1_336)"/>
<path d="M6.40222 83.1104C3.96227 85.2353 3.69907 88.7767 4.70919 91.5178C6.05366 95.1938 9.68869 99.3089 9.8025 103.396C10.5637 102.468 11.4742 100.293 12.6479 99.8543C10.8695 104.104 10.336 110.309 13.0178 114.296C17.4069 106.038 17.0228 101.257 11.8228 93.5081C11.6413 94.4575 11.1779 95.3309 10.4925 96.0154C11.0925 94.1349 11.4463 92.1852 11.5453 90.2145C11.1374 89.8946 10.7545 89.5441 10.4 89.1662C8.89908 87.1476 9.78116 83.7408 9.29744 81.3751C8.73547 82.4021 7.704 83.5212 6.40222 83.1104Z" fill="url(#paint1_linear_1_336)"/>
<path d="M37.7019 53.7023C36.2294 54.2689 32.2173 57.0808 32.2173 57.0808C32.0168 56.4374 31.7793 55.806 31.506 55.1897C31.1261 54.616 30.7128 54.065 30.2682 53.5394C30.2398 53.2632 35.5678 51.9033 37.7019 53.7023Z" fill="url(#paint2_linear_1_336)"/>
<path d="M54.0062 91.2699C52.6568 91.3641 51.3017 91.1981 50.0155 90.7811C49.2951 91.4014 48.5347 91.974 47.7391 92.4952C47.8234 92.5795 47.9138 92.6577 48.0094 92.7289C48.822 93.3311 49.7831 93.7031 50.7909 93.8055L51.6445 93.9047C53.8639 93.9755 57.1433 93.9047 58.9643 92.4314C58.1345 91.824 57.2647 91.2726 56.3608 90.7811L54.8669 91.1424C54.5842 91.2095 54.2963 91.2522 54.0062 91.2699Z" fill="url(#paint3_linear_1_336)"/>
<path d="M38.4132 94.5563C40.3068 94.8939 42.2525 94.7995 44.1041 94.2801C45.7615 94.7971 47.9952 95.7604 49.7523 95.8879C49.7096 95.9658 49.6669 96.0437 49.61 96.1287C48.7618 97.4283 47.4368 98.3459 45.918 98.6856C44.915 98.9264 43.8551 99.1389 43.1793 99.2523C41.7866 99.7277 40.5078 100.485 39.4234 101.476C39.744 100.555 39.982 99.6066 40.1347 98.6431C40.1759 98.4006 40.1635 98.152 40.0984 97.9147C40.0333 97.6774 39.917 97.4571 39.7577 97.269C39.1388 96.5253 38.335 95.64 38.2069 94.8538L38.4132 94.5563Z" fill="url(#paint4_linear_1_336)"/>
<path d="M37.1755 96.6458C37.1755 98.5935 35.3046 99.7268 33.6187 100.768C32.774 101.278 32.0396 101.95 31.4582 102.745C30.8769 103.541 30.4603 104.443 30.2326 105.4V105.499C29.9884 106.77 30.0315 108.079 30.3588 109.331C30.6861 110.583 31.2894 111.747 32.1248 112.738C35.4398 116.839 38.1002 122.831 33.9175 127.109C38.7618 127.867 41.3867 122.569 40.3197 118.44C38.8543 114.785 35.1623 111.151 35.3402 106.994C35.1837 103.665 40.0707 99.3089 37.1755 96.6458Z" fill="url(#paint5_linear_1_336)"/>
<path d="M27.7429 108.092C14.9385 117.59 27.0315 123.674 21.6892 129.51C25.1393 130.785 28.504 127.187 27.7429 123.787C29.4573 125.976 28.2622 129.595 26.4696 131.394C27.5935 133.831 30.5954 135.559 33.1848 135.849L35.3829 136.119C35.6371 136.141 35.8839 136.216 36.1079 136.338C36.3319 136.46 36.5282 136.626 36.6846 136.827C37.2608 137.634 36.8909 138.498 35.6247 138.952C36.2225 139.069 36.8295 139.133 37.4387 139.143C38.2216 139.185 38.9904 138.924 39.5844 138.414C40.1783 137.905 40.5514 137.186 40.6255 136.409V136.352C40.6291 135.829 40.4388 135.323 40.091 134.931C39.7431 134.539 39.2623 134.288 38.7404 134.227C36.3503 133.88 34.6786 132.811 35.6887 129.928C33.6214 130.245 31.5063 129.924 29.628 129.007C32.7935 127.357 33.8961 123.936 33.8961 120.593C33.9163 119.376 33.5667 118.181 32.8931 117.165C30.7946 114.063 26.6616 111.378 28.2408 107.589L27.7429 108.092Z" fill="url(#paint6_linear_1_336)"/>
<path d="M65.5372 108.226C64.9895 102.482 67.2943 102.61 68.6032 99.6276C67.3512 96.8512 62.6349 96.7095 61.1339 94.2801C61.021 94.1133 60.9369 93.929 60.885 93.7347C58.1649 95.54 54.8769 96.2955 51.6373 95.8595C52.5905 97.9136 49.7949 99.5426 48.4718 100.619C45.2707 103.219 42.5889 108.517 46.1314 111.244C46.5675 111.549 47.047 111.788 47.5541 111.952C52.491 113.737 55.4502 119.254 52.932 124.184C51.7156 113.106 45.9607 115.791 42.8805 110.11C42.1791 108.788 41.9294 107.273 42.1692 105.797C42.4979 103.89 43.5274 102.173 45.0573 100.98C42.8877 101.406 40.9014 102.484 39.3664 104.069C35.4469 108.177 39.9569 113.928 42.1123 117.639C44.1325 121.577 42.8236 129.517 37.4956 129.843C37.5975 130.392 37.8183 130.912 38.1426 131.367C38.467 131.822 38.887 132.201 39.3736 132.478L41.1519 133.484C41.7884 133.819 42.3284 134.31 42.7206 134.911C43.1127 135.513 43.3441 136.204 43.3927 136.919C43.4227 137.36 43.3561 137.803 43.1977 138.216C43.0393 138.63 42.7927 139.004 42.4751 139.313C46.4729 139.582 47.291 138.081 49.0124 134.893C46.5298 134.121 45.0715 132.69 44.7443 130.644C44.5827 129.395 44.8974 128.131 45.6264 127.102C46.2289 126.245 46.7078 125.308 47.0491 124.319C47.3222 123.514 47.3832 122.653 47.2262 121.819C47.0693 120.984 46.6996 120.203 46.1528 119.552C45.8317 119.15 45.4797 118.773 45.1 118.426C44.3352 118.002 43.7343 117.337 43.3927 116.534C46.8215 118.751 52.6403 122.201 49.5815 126.394C47.3265 128.958 47.9596 133.569 51.9219 133.795C50.6557 129.617 54.1769 125.367 58.1391 124.34C55.0234 126.075 52.9818 130.282 54.0631 133.795C59.3129 134.383 66.9386 132.882 67.0595 126.047C67.1378 121.492 62.5282 119.424 59.5547 117.002C57.94 115.252 58.132 112.802 59.1066 110.797C60.0128 109.126 60.3308 107.201 60.01 105.329C59.8526 104.249 59.3542 103.247 58.5869 102.468C57.8196 101.689 56.8232 101.173 55.7419 100.995C57.0259 100.854 58.3218 101.121 59.4446 101.756C60.5675 102.392 61.4599 103.365 61.9947 104.536C62.666 106.033 62.7323 107.73 62.1796 109.275C61.5252 111.286 61.077 113.843 62.1796 115.592C63.3002 116.951 64.5668 118.184 65.9569 119.268C66.868 120.044 67.6067 121 68.1261 122.076C68.6455 123.151 68.9341 124.323 68.9736 125.515C69.0131 126.708 68.8025 127.896 68.3554 129.003C67.9083 130.111 67.2344 131.113 66.3766 131.947C65.9407 132.347 65.4639 132.701 64.9539 133.002C67.0161 132.669 69.053 132.196 71.0502 131.586C69.9761 131.132 69.2505 130.346 70.1895 129.425C70.8317 128.848 71.2714 128.082 71.4443 127.238C71.6171 126.394 71.5139 125.518 71.1498 124.736C71.6193 122.725 71.8612 120.083 73.1203 118.362C73.6584 117.687 74.0179 116.888 74.166 116.039C74.9627 110.776 66.4691 113.482 65.5372 108.226Z" fill="url(#paint7_linear_1_336)"/>
<path d="M70.5523 101.285C69.7859 101.611 69.159 102.196 68.781 102.935C68.2703 103.855 68.0024 104.888 68.0024 105.938C68.0024 106.989 68.2703 108.022 68.781 108.942V108.977C68.9447 109.293 69.1771 109.569 69.4613 109.785C69.7456 110.001 70.0745 110.15 70.4242 110.224C70.742 110.28 71.0692 110.323 71.4059 110.351C72.2641 110.417 73.0905 110.703 73.8045 111.182C74.5185 111.66 75.0957 112.315 75.4798 113.082C75.8638 113.849 76.0417 114.702 75.9959 115.558C75.9502 116.414 75.6824 117.243 75.2188 117.965L75.1121 118.121C74.7562 118.592 74.5081 119.134 74.3853 119.711C74.2624 120.287 74.2676 120.883 74.4007 121.457C74.6995 122.576 75.4749 123.313 77.1892 123.334C75.7665 120.501 78.0927 117.009 80.2196 115.189C82.56 113.255 83.065 111.987 81.7348 109.197C79.1668 105.372 74.1944 103.743 70.5523 101.285Z" fill="url(#paint8_linear_1_336)"/>
<path d="M72.8429 123.334C71.4202 127.435 77.7228 125.459 79.9564 125.926C82.873 126.571 85.6473 128.37 84.1819 131.635C88.9053 129.51 88.8484 122.094 83.9045 120.168C82.3252 121.117 80.0702 121.485 78.8111 119.849C78.178 121.266 78.5551 123.865 79.7288 124.921C77.6018 124.892 74.2229 125.275 72.8429 123.334Z" fill="url(#paint9_linear_1_336)"/>
<path d="M50.677 135.339C55.1088 136.253 60.1594 135.779 64.5627 134.596C65.1877 134.426 65.8218 134.291 66.462 134.192L70.2322 133.647C71.3633 133.555 74.1731 133.399 74.9556 132.365C69.1154 128.937 73.5329 130.027 72.8927 127.187C74.2158 128.88 76.8834 128.25 78.7187 128.207C84.5162 127.917 83.812 132.457 79.5012 134.582C77.5947 135.545 74.9058 135.29 72.8429 135.998C71.4202 136.494 73.5542 137.833 73.6254 137.684C72.5583 138.576 70.8938 138.463 69.6347 138.144C69.2292 138.045 68.3969 137.195 67.9345 137.181C66.0946 137.146 64.2574 137.336 62.4642 137.748C61.5167 137.985 60.6053 138.347 59.7539 138.824C58.3457 139.435 56.8548 139.836 55.3293 140.014C55.504 139.985 55.6612 139.891 55.7703 139.752C55.9084 139.569 55.9849 139.346 55.989 139.117C55.993 138.888 55.9244 138.663 55.7929 138.475C55.6614 138.287 55.4736 138.145 55.2563 138.069C55.039 137.993 54.8032 137.987 54.5824 138.052C53.2166 138.435 51.5662 139.001 51.0612 139.143C49.8376 139.674 48.5856 140.021 47.3906 139.355H47.4688C48.1401 139.149 48.7573 138.798 49.2763 138.327C49.7952 137.855 50.2031 137.275 50.4707 136.629C50.6376 136.22 50.7082 135.779 50.677 135.339Z" fill="url(#paint10_linear_1_336)"/>
<path d="M95.841 86.326C93.8261 85.0414 92.2489 83.1796 91.3168 80.9855C90.6299 79.4353 90.5239 77.6914 91.018 76.07C88.9764 77.1395 87.0487 79.1794 86.7499 81.5522C87.5537 80.5818 89.14 81.1272 90.1004 81.7647C90.1389 81.7906 90.1711 81.8248 90.1947 81.8647C90.2183 81.9046 90.2327 81.9492 90.2367 81.9954C90.2408 82.0415 90.2345 82.0879 90.2183 82.1313C90.2021 82.1748 90.1764 82.214 90.1431 82.2463C88.7203 83.5495 85.5121 81.1343 82.6667 84.704C82.4675 84.9874 82.247 85.3415 82.0194 85.7452C81.6028 86.4784 81.3557 87.2948 81.296 88.1351C81.2362 88.9753 81.3654 89.8182 81.6741 90.6025C81.9827 91.3868 82.4631 92.0927 83.0803 92.6688C83.6975 93.245 84.4359 93.6768 85.2418 93.933C86.1013 94.2133 87.0286 94.211 87.8867 93.9266C88.7449 93.6422 89.4885 93.0908 90.0079 92.3535C90.328 95.895 87.6746 96.9999 84.9715 96.5608C83.8818 96.3567 82.8503 95.9174 81.9494 95.2737C81.0486 94.63 80.3003 93.7977 79.7573 92.8352C77.5307 89.1025 76.3072 85.044 71.285 83.8399C72.0468 84.8691 72.6067 86.0322 72.9353 87.268C73.1559 88.6846 73.3551 91.4753 73.8103 92.7927C75.0267 96.6599 79.1384 102.284 83.6341 99.2806C83.0153 101.993 79.9991 103.261 77.4382 102.985C81.6139 105.329 88.5923 112.249 82.4177 116.145C81.557 116.605 80.1556 117.512 80.2837 118.659C80.5325 118.915 80.8497 119.094 81.1977 119.176C81.5456 119.257 81.9098 119.238 82.247 119.12C83.1304 118.698 84.0586 118.378 85.0142 118.164C87.0202 117.795 89.1685 117.986 90.705 119.389C89.9937 117.491 88.4216 116.719 86.8922 115.6C88.7488 115.238 90.5628 116.35 92.3554 117.101C92.8394 117.303 93.37 117.367 93.8885 117.287C94.407 117.207 94.8932 116.986 95.2933 116.648C95.2527 116.281 95.2527 115.91 95.2933 115.543C95.5263 113.535 96.3254 111.635 97.5981 110.061C99.1488 108.085 97.5056 108.078 97.4558 103.984C97.4557 102.443 97.7578 100.918 98.345 99.4931C98.9079 98.0612 99.3505 96.5853 99.6681 95.0804C99.9656 93.4082 99.7612 91.6857 99.0805 90.1286C98.3998 88.5714 97.2729 87.2487 95.841 86.326ZM92.8533 107.575C92.0495 108.177 90.3991 107.702 90.7193 106.533C85.256 112.016 92.3696 115.033 95.6561 108.311C95.464 110.436 94.9874 112.894 92.8533 113.85C87.3759 115.812 84.7723 110.457 87.4826 106.059C90.1146 103.41 88.4856 99.7551 85.7896 97.8923C90.6054 100.69 92.9814 97.2266 93.4082 92.5802C93.0169 89.6621 90.079 87.2114 88.7701 84.6757C97.6407 90.2216 98.1743 93.1751 91.9357 101.49C91.0536 103.155 90.2569 107.022 92.8533 107.546V107.575Z" fill="url(#paint11_linear_1_336)"/>
<path d="M87.3901 119.8C90.6766 119.849 91.516 122.477 89.4602 125.331C89.4602 123.355 87.7102 120.728 85.7896 120.168C86.2882 119.926 86.8355 119.8 87.3901 119.8Z" fill="url(#paint12_linear_1_336)"/>
<path d="M99.5898 87.1193C100.138 87.3674 100.622 87.738 101.003 88.2023C101.384 88.6666 101.653 89.2122 101.788 89.7966C101.925 90.3924 102.009 90.9992 102.037 91.6098C103.236 91.1516 104.326 90.4497 105.238 89.5487C105.812 88.1941 105.835 86.6702 105.302 85.299C105.115 84.8919 105 84.4559 104.961 84.0099C105.104 83.7806 105.31 83.5968 105.554 83.4801C105.799 83.3634 106.071 83.3187 106.341 83.3512C106.536 83.3653 106.724 83.4286 106.888 83.5354C106.873 83.2913 106.815 83.0516 106.718 82.8271C106.075 82.5169 105.339 82.4588 104.655 82.6642L104.221 82.7988C104.122 82.8288 104.034 82.8849 103.965 82.961C103.896 83.0371 103.849 83.1303 103.83 83.2308C103.657 84.2353 103.123 85.1428 102.327 85.783C101.53 86.4233 100.527 86.7523 99.5045 86.7085C99.1236 86.6914 98.7483 86.61 98.3948 86.4677L99.5898 87.1193Z" fill="url(#paint13_linear_1_336)"/>
<path d="M94.3116 63.9512C90.2782 65.9698 91.3666 72.6136 96.4457 70.085C94.5535 68.803 93.8919 65.644 94.7953 63.6042L94.3116 63.9512Z" fill="url(#paint14_linear_1_336)"/>
<path d="M96.8227 65.1128C96.6804 67.5068 98.6936 70.8358 101.368 69.4688C99.3551 68.8597 97.719 66.9402 96.8227 65.1128Z" fill="url(#paint15_linear_1_336)"/>
<path d="M110.879 65.446C110.669 64.8012 110.252 64.2434 109.691 63.8594C109.28 63.5516 108.844 63.2768 108.389 63.0378C107.845 62.7966 107.418 62.3512 107.201 61.7983C107.121 61.6205 107.087 61.4257 107.102 61.2315C107.117 61.0373 107.18 60.8499 107.287 60.6863C104.477 61.7416 106.099 66.2888 108.837 66.1826C104.676 68.1162 101.795 61.6708 105.017 59.1918C101.496 56.2666 105.85 51.259 101.61 49.2758C107.187 50.0337 104.498 56.557 107.016 58.9793C107.037 58.7639 107.025 58.5466 106.981 58.3348C106.843 57.5161 106.87 56.6783 107.059 55.8699V55.8204C107.337 54.6948 107.386 53.5251 107.203 52.3803C107.02 51.2356 106.608 50.139 105.992 49.1554C105.502 48.3717 104.86 47.6939 104.102 47.1622C103.344 46.6305 102.487 46.2558 101.581 46.0602L99.2624 45.5998C99.7035 45.2102 101.397 45.1252 102.264 45.0756C102.505 45.0558 102.748 45.0872 102.976 45.1677C103.826 45.4687 104.569 46.0133 105.11 46.733C104.742 45.4074 104.698 44.0135 104.982 42.6675C105.199 41.7638 105.276 40.8321 105.209 39.9052C105.177 39.4543 105.064 39.0128 104.875 38.6019C104.56 37.8972 104.026 37.3114 103.353 36.9304C103.134 36.8013 102.89 36.72 102.638 36.6919C102.385 36.6638 102.129 36.6896 101.887 36.7674C101.081 37.01 100.391 37.5361 99.9453 38.2478L99.3691 39.211C99.6083 37.1424 100.182 35.126 101.069 33.2402C101.617 32.0786 102.179 30.8603 102.663 29.6987C103.397 28.0074 103.643 26.1458 103.374 24.3228C102.919 21.4897 101.24 19.8819 97.7544 18.4157C98.2025 18.869 99.1771 19.6482 99.0846 20.3777C98.948 20.8971 98.9958 21.4475 99.2198 21.9359C99.7702 22.257 100.219 22.7258 100.514 23.2887C102.869 27.7793 100.97 30.8249 97.797 34.6213C96.6446 35.9883 96.5877 38.3823 96.4668 40.061C95.7386 38.7623 95.3589 37.2986 95.3642 35.8113C95.3647 35.2903 95.4994 34.7782 95.7555 34.3239C96.295 33.3727 96.9162 32.4698 97.6121 31.6253C99.0348 29.8687 99.7462 28.5796 99.2696 25.619C97.1355 23.2887 96.4241 19.7119 95.3215 16.8504C94.3099 15.4231 93.0811 14.1614 91.6794 13.1107C91.1437 12.7131 90.5483 12.4023 89.9152 12.1899C88.7984 11.8145 87.2192 11.3116 86.6003 11.4816C86.5077 12.259 86.6358 13.0467 86.9702 13.7552C87.4752 14.8375 88.2797 15.7539 89.2892 16.3971L89.6165 16.6096C91.1104 17.5916 92.7431 18.346 94.4608 18.8478H94.5319C92.3054 20.0235 90.3705 19.4923 88.2933 18.3449C88.3228 19.3036 88.1074 20.254 87.6673 21.1072C87.5054 21.3828 87.3068 21.6354 87.0769 21.858C86.1288 22.743 85.0752 23.509 83.9398 24.1387L83.6837 24.2308L81.4785 24.6132L81.5995 24.5637C82.9228 23.9351 84.0657 22.9845 84.9223 21.7998C85.779 20.615 86.3219 19.2343 86.5007 17.7854C86.5766 17.1838 86.5549 16.574 86.4367 15.9792C85.6923 15.2268 85.0207 14.4063 84.4307 13.5286C84.0873 12.5579 83.8628 11.5496 83.762 10.5254C83.6903 9.88266 83.5617 9.24746 83.3779 8.62721C83.1212 7.70528 82.5692 6.89202 81.8058 6.31111C79.9776 4.89453 78.7825 4.80246 75.9869 4.60414C74.7349 4.54747 71.5693 4.40581 70.5237 5.24159C70.6563 5.38791 70.7964 5.52739 70.9434 5.65948C72.5954 7.13992 74.7388 7.9598 76.9614 7.96142C78.2144 8.04179 79.4714 7.88804 80.6676 7.50811L80.5965 7.57186C79.6193 8.50722 78.3782 9.12263 77.0397 9.33549L76.2643 9.44173C74.217 9.66757 72.1616 9.09372 70.5308 7.84101C68.6172 6.37485 66.6681 4.56872 65.1387 3.13798C62.2933 0.552734 56.261 0.906877 53.7997 3.84627C59.0637 6.644 54.2265 10.6104 61.6246 13.9889C58.7223 14.4564 56.4103 11.7649 55.1086 9.51256C55.7772 6.77858 54.0629 5.66657 51.879 5.42575C50.8618 5.29792 49.8288 5.43963 48.8842 5.83655C48.264 6.08525 47.7162 6.48458 47.2908 6.99815C46.6107 7.80877 46.1557 8.78256 45.971 9.82265C45.7863 10.8627 45.8783 11.9328 46.238 12.9265C46.2349 12.9548 46.2349 12.9833 46.238 13.0115C46.7075 14.5272 48.0519 16.0005 49.0265 17.3958C49.418 17.9528 49.6448 18.608 49.6809 19.2869C49.7332 19.9682 49.5191 20.6432 49.0834 21.171C48.7963 21.4413 48.4672 21.6638 48.1088 21.8297V21.688C48.1453 21.208 48.0757 20.7259 47.9049 20.2755C47.734 19.8252 47.4661 19.4176 47.12 19.0815C46.5723 18.5503 45.9819 17.9412 45.4697 17.4029C44.8036 16.7179 44.3153 15.8816 44.047 14.9664C43.697 13.6505 43.6028 12.2802 43.7696 10.9291C43.9715 9.14227 44.7507 7.46899 45.9899 6.16101C47.2292 4.85302 48.8614 3.98106 50.6413 3.67628C51.0827 3.53984 51.5473 3.49406 52.0071 3.5417C52.0071 2.04722 55.7772 1.11936 57.0577 0.942292C50.1931 -1.72087 40.0278 1.53017 35.5676 7.16105C38.8896 7.51519 41.0735 10.9291 40.8032 14.1093C40.0065 17.3887 36.8836 20.1794 35.2973 23.0621C33.8035 25.6119 33.7892 29.5429 34.6998 32.2698C33.334 31.1224 31.4062 28.5442 32.2954 25.4986C34.4864 17.9412 42.6385 12.2041 31.0221 8.06058C29.2531 7.47267 27.356 7.37958 25.5375 7.79143C24.9372 7.89379 24.3503 8.06246 23.7876 8.29431C20.9421 9.71088 18.2461 14.3147 18.8081 17.7499C24.2926 20.6964 23.1616 24.1245 23.3536 29.1321C24.5701 28.5655 23.9939 27.3472 24.8617 26.391C26.2275 24.8895 27.7712 23.3596 25.8292 19.8748C23.6951 16.0359 28.2976 14.2085 27.7783 10.6033C28.575 12.4945 27.6075 14.3785 27.0669 16.3829C25.7794 21.178 30.5241 21.9288 26.0568 27.1631C22.6921 31.1153 29.6136 32.7231 27.2092 36.9445C26.6472 34.338 21.6393 32.7727 21.8384 30.23C21.9736 28.4451 22.2297 24.677 21.6037 22.7363C20.7107 20.603 19.0378 18.8867 16.923 17.9341C16.5175 16.7867 16.0338 16.3263 15.5003 16.2555C14.6836 16.1003 13.8437 16.1124 13.0319 16.2909C11.0685 16.9 10.3643 17.7924 9.29012 19.5348C7.98834 21.6597 8.1235 24.252 10.8267 25.704C11.3214 24.6204 11.882 23.5678 12.5055 22.5521C13.2168 21.5676 15.2299 19.5065 16.61 20.2219C11.7656 23.055 8.94156 30.5416 16.1974 31.3207C15.5287 31.9723 13.978 31.7882 13.167 31.597C16.1476 34.7913 14.6395 39.6502 11.5167 42.1504C12.9892 43.8078 15.3153 45.8335 16.1547 47.9513C16.3005 49.162 16.1712 50.3899 15.7763 51.5442C15.3814 52.6985 14.7311 53.7496 13.8733 54.62C13.0156 55.4904 11.9723 56.1577 10.8207 56.5727C9.66913 56.9876 8.4386 57.1396 7.22007 57.0174C9.68848 54.4817 11.5522 49.0775 7.22007 47.4626C3.35741 49.7716 -0.170915 56.5074 3.91227 59.9851C7.34101 61.4017 10.0299 65.3681 9.32569 69.122C8.84908 65.5806 5.51282 61.2175 2.26192 63.9586C-2.78871 68.2083 1.42964 77.7064 7.03512 80.5467C5.17137 71.8064 15.3936 71.7568 10.3358 59.7089C16.6882 64.5535 15.1801 71.5656 11.5736 77.6214C10.0726 79.5905 11.9719 92.2546 13.921 84.9805C14.9169 87.6083 12.6406 90.7389 13.7361 93.4375C15.1588 95.2932 16.1405 98.3955 17.6343 100.195C19.5265 97.8147 20.9635 94.082 20.7074 90.9868C21.12 83.0752 14.3052 80.15 15.2513 73.8038C15.8346 76.899 18.4951 79.4701 20.2308 81.9349C23.126 87.5445 23.9369 94.8753 19.9533 100.166C18.5306 101.696 17.8193 104.919 18.118 106.93C17.2858 110.663 14.2554 115.217 15.5003 119.085C16.2116 114.254 19.555 117.378 20.181 112.965C21.58 110.768 23.2532 108.757 25.1605 106.98C26.5192 106.477 28.3971 105.415 28.1837 103.686C25.2174 105.103 17.6272 106.13 22.9126 101.314C24.6696 96.9577 26.6757 90.2785 30.9367 87.9199C26.0354 84.6406 30.6735 77.2956 21.6891 80.66C24.5345 75.3478 29.9052 81.1841 27.195 73.0247C26.4836 71.0769 26.0639 71.6081 24.7194 72.7059C22.1799 73.563 18.5306 73.7684 16.1405 72.3872C20.2806 73.3646 26.5334 71.4806 26.1421 66.4022C27.4012 65.6939 29.6989 63.8736 30.3676 62.5633C30.0048 60.2472 30.5454 56.5853 28.5323 54.9279C29.706 57.9169 26.882 60.6438 24.0863 61.3946C23.8587 60.7996 23.5528 60.5517 24.1219 60.1834C28.3331 57.4636 25.1462 52.5835 30.958 48.1425C33.9671 45.8335 33.0138 41.1659 30.1329 38.9348C33.1134 39.5864 34.0097 42.0654 34.5433 44.7428C34.5433 43.8149 35.4751 42.6179 36.1509 42.0867C34.1805 37.4757 34.4935 30.9524 39.4658 28.3317C36.4853 33.1835 35.1977 40.6064 39.85 44.5303C40.0408 44.7265 40.2904 44.8558 40.5613 44.8986C40.5613 44.8986 40.0207 44.084 39.85 43.8007C34.8563 35.9387 50.6982 32.0361 41.7778 27.7722C44.6232 27.2906 46.7075 29.38 46.4087 32.199L49.9655 32.7585L52.0995 33.1977C52.9279 33.3617 53.7363 33.6134 54.511 33.9485C54.645 34.0133 54.7828 34.07 54.9236 34.1185L55.0374 34.168C56.3113 34.7183 57.5071 35.4327 58.5942 36.2929L58.9499 36.5762L59.5617 37.1641C60.2906 37.8662 60.9286 38.6561 61.461 39.5156C61.641 39.8137 61.7844 40.1324 61.8878 40.4647C62.208 41.444 62.3289 42.4769 62.2435 43.5033L62.1723 44.3107L62.5422 43.8007C62.7292 43.5501 62.8668 43.2665 62.9477 42.965C63.118 42.3344 63.2041 41.6843 63.2038 41.0313C63.2036 40.4087 63.1174 39.789 62.9477 39.1898C62.796 38.6541 62.571 38.1416 62.279 37.667L61.8238 36.9587L61.6032 36.6966C60.9735 35.9411 60.1873 35.3298 59.2985 34.9046L58.7649 34.6426C58.6508 34.5851 58.5318 34.5377 58.4093 34.5009L56.83 33.998L55.3077 33.5731C49.7378 30.23 52.1849 25.9802 47.8314 24.252C58.1887 24.762 54.5395 31.0799 62.2008 33.5731C61.3756 30.9099 62.7699 28.0201 64.2139 25.5765C65.0784 24.1636 65.4369 22.501 65.2312 20.8593C64.9873 18.9334 64.2227 17.1095 63.0188 15.5826C64.1241 15.6797 65.1464 16.2064 65.8643 17.0487C67.7849 19.3082 68.5817 22.6088 68.5888 25.5482C68.5878 26.2694 68.3964 26.9778 68.0339 27.6022C67.5737 28.4072 66.9905 29.136 66.3053 29.7625L66.2555 29.805C65.6771 30.3261 65.1955 30.9447 64.8328 31.6324V31.6678C64.4495 32.3818 64.2838 33.1917 64.3562 33.998C64.4374 34.9665 64.7203 35.9076 65.187 36.7612C65.6536 37.6148 66.2937 38.3623 67.0665 38.9561C68.6069 39.0779 70.1226 39.414 71.5693 39.9547C73.1179 40.4757 74.4636 41.4665 75.4178 42.7879C75.5437 43.2358 75.6341 43.6929 75.6881 44.1549C77.7581 42.6675 78 41.3217 77.9644 39.1969C77.9571 38.6355 77.8079 38.085 77.5305 37.5961C76.8574 36.3586 75.8527 35.3313 74.6282 34.6284C72.6958 33.5962 70.6158 32.8652 68.4607 32.4611L68.9729 32.369C70.7144 32.0662 72.4991 32.112 74.2227 32.5036C74.3582 32.5351 74.4878 32.5877 74.6068 32.6594C76.2546 33.6809 77.7674 34.9039 79.1097 36.3C81.9196 39.3314 82.4958 42.7525 81.6777 46.7189C83.4988 45.4369 84.0394 44.2115 84.1888 42.71C84.3277 40.9217 83.9605 39.1305 83.1289 37.5395L82.4175 36.1654C82.7311 36.2479 83.0257 36.3898 83.2854 36.5833C83.9791 37.0639 84.5659 37.6818 85.009 38.3984C85.452 39.115 85.7419 39.9148 85.8605 40.748C86.009 41.6204 86.0543 42.5071 85.9956 43.3899C85.8107 45.5148 85.4977 48.5817 87.0058 50.3311C88.4473 51.1633 89.9366 51.9107 91.466 52.5693C92.5936 53.1499 93.6021 53.9354 94.4394 54.8854C96.5735 57.244 98.4871 58.4269 99.6181 61.5787C99.298 66.0197 101.091 68.3641 106.02 68.4775C105.049 68.7348 104.173 69.2689 103.502 70.0144C102.722 70.8239 101.762 71.44 100.699 71.8135C99.3549 72.2526 97.9464 72.196 97.3845 70.7015C96.9721 71.4232 96.3493 72.0033 95.5987 72.365C94.848 72.7267 94.0047 72.853 93.1803 72.7272C92.7071 73.3176 92.369 74.0038 92.1897 74.7378C92.0103 75.4718 91.9939 76.236 92.1418 76.9769C92.3137 78.0515 92.7274 79.0734 93.3519 79.9664C93.9765 80.8593 94.7957 81.6 95.7483 82.1332H95.7839C96.9765 82.8355 98.3577 83.1546 99.7391 83.0469C101.517 82.8982 103.296 82.2253 104.164 80.7591C101.19 81.6162 100.088 80.7591 99.8244 78.953C99.6796 77.74 99.8677 76.5107 100.369 75.3957C100.87 74.2806 101.665 73.3217 102.67 72.6209C103.531 71.9906 104.441 71.4381 105.174 70.921C107.514 69.7099 111.782 68.435 110.879 65.446ZM20.5367 54.2763C21.6535 56.5286 23.062 59.1635 23.3038 61.7912C22.8557 65.8143 18.9646 68.7749 15.8061 70.8644C17.5063 68.5412 20.7287 65.9701 20.7856 62.8607C20.6789 60.9059 21.1698 52.4985 17.9829 56.3303C20.3375 53.0085 24.6056 48.9641 22.1159 44.5869C21.1555 43.0641 20.4584 41.7892 19.8466 40.8613C21.0773 41.5696 22.3506 42.3487 23.1473 42.9225C27.1238 45.8194 25.1107 53.0155 20.5295 54.2763H20.5367ZM63.8156 12.4024C63.8156 11.5524 63.9792 10.3767 63.403 9.6613C64.7546 9.84546 65.3663 10.9858 65.537 12.1899C65.6804 13.1224 65.9659 14.0276 66.3836 14.8743C66.9932 15.9814 67.4707 17.1557 67.8063 18.3732C66.9029 16.2271 64.2068 14.9097 63.8156 12.4024ZM87.5606 28.4876C87.5287 29.0705 87.3606 29.638 87.0698 30.145C87.0139 30.248 86.9333 30.3356 86.835 30.3999C85.5251 31.321 84.039 31.9642 82.469 32.2895C80.899 32.6148 79.2786 32.6153 77.7083 32.2911C76.9192 31.7815 76.2817 31.0704 75.8626 30.2319C75.4434 29.3935 75.2579 28.4585 75.3253 27.5243C75.4564 26.4491 75.4253 25.3605 75.2328 24.2945C74.1963 22.9918 72.9769 21.8444 71.612 20.8877L70.4241 20.0448C68.9555 18.3572 67.8448 16.3912 67.1589 14.2652C66.8531 13.3302 66.5472 12.374 66.2128 11.4816C65.7009 10.1006 64.6848 8.96246 63.3674 8.29431C62.7213 7.95107 62.0358 7.68708 61.3258 7.50811C60.4058 7.45334 59.4841 7.58341 58.6156 7.89059C60.3228 6.47401 62.777 6.81399 64.9395 7.57894C66.4982 8.14241 67.8849 9.09619 68.9658 10.3483C69.7645 11.3029 70.6374 12.1934 71.5765 13.0115C72.6159 13.8588 73.9337 14.2928 75.2755 14.2298C78.5122 14.0952 78.626 13.3727 79.4369 13.3586C76.371 16.7583 74.4575 18.9399 69.6771 16.5317C70.9149 17.9483 73.7248 19.7544 75.6596 20.8877C76.4809 21.3655 77.1559 22.0572 77.6121 22.8883C78.0683 23.7194 78.2885 24.6585 78.249 25.6048V25.6473V26.0298C78.1682 27.2021 78.4144 28.3737 78.9603 29.4154C79.1833 29.838 79.5484 30.169 79.9918 30.3504C80.9339 30.7404 81.9703 30.8464 82.9724 30.6549H83.008C83.842 30.4962 84.6476 30.2146 85.3981 29.8191C86.2486 29.37 86.9281 28.6561 87.333 27.7864L87.5606 27.2906V28.4876ZM88.6206 34.7417C88.8045 33.3442 89.456 32.0492 90.4701 31.0657C92.0991 29.4367 94.1407 27.7651 93.8988 25.3994C96.9221 32.3902 84.5018 35.8183 96.8581 43.7016C92.4761 42.7241 88.1226 39.1544 88.6206 34.7417ZM96.8154 54.6871C96.172 52.8677 95.8565 50.9495 95.8835 49.0208C95.6644 47.609 94.9785 46.3104 93.9344 45.3306C93.529 44.9351 93.0804 44.5858 92.597 44.2895C95.7128 44.9977 97.4698 45.8973 98.672 48.2275C98.8317 49.0011 98.8629 49.7954 98.7645 50.579C98.5639 52.6189 98.6308 54.676 98.9637 56.6986C99.0344 57.1372 99.0795 57.5794 99.0988 58.0231C98.2523 56.8545 97.3987 55.6575 96.8154 54.6871Z" fill="url(#paint16_linear_1_336)"/>
<path d="M33.0781 50.6284C32.3516 50.8182 31.6497 51.0915 30.9867 51.4429C31.6574 51.1084 32.3574 50.8357 33.0781 50.6284Z" fill="url(#paint17_linear_1_336)"/>
<path d="M87.9948 66.2461C88.2925 65.3115 88.8619 64.4858 89.6309 63.8733C92.3625 61.6139 93.5718 59.9707 91.8148 57.1163C91.1479 56.0524 90.2661 55.1382 89.2254 54.4318C86.7357 52.6824 83.3994 50.5434 83.9898 47.4198C83.3852 48.6522 80.7745 49.4455 79.5794 49.7926C79.9493 49.2755 80.0418 47.8448 80.056 46.5486C80.073 45.1887 79.719 43.8496 79.0317 42.6743C79.0317 42.6743 74.8418 49.2684 71.6194 49.6155C73.4049 47.8731 74.6284 46.1378 74.1518 43.8146C74.076 43.4341 73.9151 43.0754 73.6811 42.7652C73.4472 42.455 73.1461 42.2012 72.8002 42.0227C70.5381 40.8611 67.3085 40.8894 64.9753 40.6061C65.5444 44.4521 65.0535 46.2724 61.8596 48.5885C61.1055 49.1409 59.5334 50.6213 58.4664 50.1821C57.2926 45.4366 62.5282 46.4424 58.2814 39.997C53.5723 35.2302 49.3753 37.95 45.4272 34.1465C45.1498 35.8606 43.6844 37.2417 42.5818 38.6866C42.2154 39.1409 41.9457 39.6646 41.7892 40.226C41.6327 40.7873 41.5925 41.3745 41.6713 41.9518C41.8349 43.0284 42.3826 43.6305 43.5564 44.8416C44.5309 45.5499 46.9211 47.6748 48.2798 47.1223C47.0989 48.3618 44.787 48.2131 42.845 47.951C41.6198 47.7815 40.4482 47.341 39.4163 46.6619C38.6231 46.1417 37.9512 45.4582 37.4458 44.6575L36.5922 43.418C36.1938 43.9421 35.6247 44.785 35.0983 45.642C34.0552 47.3693 32.8979 49.0256 31.634 50.6L30.9867 51.4216C31.6497 51.0703 32.3516 50.7969 33.0781 50.6071C36.1867 49.7855 39.8502 50.2388 42.7881 51.0462C45.1876 51.5523 47.55 52.2197 49.859 53.0436C50.8864 53.425 51.8869 53.8745 52.8538 54.3894C53.4162 54.6941 53.8857 55.1443 54.2125 55.6926C54.1618 56.4344 53.9165 57.15 53.5011 57.7679C53.3869 57.9951 53.2408 58.205 53.0672 58.3912C52.9961 58.462 51.9646 59.2907 51.5307 59.5953L49.3255 59.8715L48.9129 59.744C48.6283 59.6519 48.3438 59.5811 48.0521 59.5173C47.6054 59.4297 47.1708 59.2894 46.7575 59.0995C45.249 58.4937 43.8989 57.5539 42.8094 56.3513C40.9243 57.3712 37.8299 58.1999 35.831 57.0596C34.074 58.6037 34.3087 59.4961 35.4611 60.2044C36.3465 60.7535 37.3702 61.0408 38.4133 61.0331C38.7204 61.0308 39.027 61.0071 39.3309 60.9623C39.6316 60.9135 39.9397 60.9397 40.2278 61.0386C40.5158 61.1375 40.7747 61.3059 40.9813 61.5289C41.0455 61.6552 41.0865 61.7919 41.1022 61.9326C41.1022 63.7317 37.9722 63.2146 36.0373 62.9738C34.6396 62.8086 33.3112 62.2756 32.1889 61.4297C32.0324 61.3164 31.9043 61.2102 31.8048 61.1252C33.2275 63.3209 31.3637 65.0207 29.6707 66.6285C29.1258 67.1426 28.7027 67.7709 28.432 68.468C28.1613 69.1651 28.0499 69.9134 28.1057 70.6587C28.1255 70.9169 28.1781 71.1715 28.2622 71.4166C28.3902 71.7849 28.5396 72.2311 28.6961 72.7057C29.2498 74.3922 29.5892 76.1411 29.7063 77.9116C29.7617 79.0783 29.9478 80.2353 30.2611 81.3609C30.9156 82.7137 31.5629 85.6815 33.3342 86.3827L34.1807 86.7156C34.1706 86.4501 34.1873 86.1844 34.2305 85.9223C34.481 85.3531 34.8063 84.8196 35.1979 84.3357C35.5828 83.9266 36.0095 83.5586 36.4713 83.2379C37.1268 82.7678 37.8451 82.3911 38.6053 82.1188C39.8582 81.4687 41.2779 81.2072 42.6814 81.368C43.8409 80.0364 44.972 79.0732 46.8144 78.8536C45.8185 75.553 46.4231 74.4055 49.1547 72.479C50.2075 71.8699 51.0043 70.5029 52.2207 71.1262C52.305 71.1669 52.3751 71.2319 52.422 71.3127C52.4689 71.3935 52.4905 71.4864 52.4839 71.5795C52.4636 71.9296 52.3673 72.2711 52.2015 72.5805C52.0357 72.8899 51.8044 73.1598 51.5235 73.3714C50.8999 73.8321 50.306 74.3312 49.7452 74.8659C49.4394 75.1521 49.2002 75.5013 49.0442 75.8891C48.8881 76.2769 48.819 76.694 48.8417 77.1112C48.8506 77.3067 48.9 77.4983 48.987 77.6738C49.0739 77.8494 49.1964 78.0051 49.3468 78.1311C49.8973 78.633 50.6208 78.9044 51.367 78.889H51.424C51.5591 82.4304 47.1558 79.491 44.474 83.2733C44.0245 86.1394 42.5735 88.7555 40.3766 90.6607C41.1 89.2958 41.7507 87.8938 42.3257 86.4606C42.6358 85.508 42.7684 84.5071 42.717 83.507C41.5693 83.4199 40.4167 83.5918 39.3451 84.0099C36.1938 85.6815 34.4937 89.3575 33.9033 92.7148C33.7942 91.5375 33.7728 90.3538 33.8392 89.1733C28.248 90.5899 27.1596 97.7223 24.5418 101.993C29.1799 101.93 33.6756 97.7436 36.6349 94.5209C36.5778 93.7401 36.616 92.9552 36.7487 92.1835C36.7981 91.9458 36.919 91.7286 37.0953 91.5608C37.2715 91.393 37.4949 91.2826 37.7357 91.2442C37.9765 91.2057 38.2233 91.2411 38.4434 91.3457C38.6636 91.4502 38.8465 91.6189 38.9681 91.8294C39.0991 92.1134 39.1268 92.4339 39.0464 92.736C41.8064 93.6851 45.0929 92.1623 46.9353 89.9595C47.3408 89.4779 47.7605 89.0175 48.1873 88.5429C50.1506 86.4181 50.6913 82.6287 52.0713 81.2901C52.2498 81.139 52.466 81.0387 52.697 80.9998C52.928 80.9608 53.1653 80.9847 53.3838 81.0688C53.6023 81.153 53.794 81.2942 53.9386 81.4778C54.0832 81.6613 54.1753 81.8803 54.2054 82.1117C54.6037 85.3132 54.2054 87.5159 58.4379 89.0246C58.109 88.2368 58.0103 87.3726 58.1534 86.5314C58.2012 86.2386 58.3438 85.9693 58.5596 85.7647C58.7753 85.5601 59.0524 85.4314 59.3485 85.3982C59.5868 85.3547 59.833 85.3962 60.0437 85.5153C60.2544 85.6345 60.4163 85.8237 60.5009 86.0498C60.7698 86.8896 60.8972 87.7679 60.8779 88.6492C60.9165 89.1913 61.062 89.7206 61.3061 90.2067C61.5502 90.6929 61.8881 91.1263 62.3006 91.4823C65.3167 94.0959 70.1255 94.8963 71.1712 99.1885C71.7403 98.3244 71.221 96.7307 70.8298 95.902C72.1884 97.9207 74.1376 100.152 76.7482 100.357C72.601 97.8994 72.5939 91.6736 70.6235 87.7426C67.5219 81.8709 63.83 77.5078 56.7876 80.6172C55.4787 80.6172 55.2368 79.4273 55.2297 78.1807C55.5 76.0558 59.8393 77.2812 61.4968 76.7641C61.2895 76.1093 61.1933 75.4247 61.2122 74.7384C61.3901 74.1151 61.6533 73.8814 62.0089 73.8602C62.3555 73.8563 62.6897 73.9889 62.9387 74.2289C63.1878 74.4689 63.3317 74.7971 63.3392 75.1422C63.5526 78.6836 66.8177 76.927 69.7769 81.8071C73.6538 81.6938 78.363 82.8271 78.9534 87.2964C79.7644 84.2224 82.0763 81.283 85.2845 80.5322C85.2845 80.5322 85.4126 80.256 85.5833 79.8664C86.2249 78.484 87.0271 77.1813 87.9734 75.985C88.7557 75.0004 89.3402 73.875 89.6949 72.6702C89.7669 72.4217 89.7691 72.1583 89.7014 71.9086C89.6337 71.6589 89.4986 71.4324 89.3108 71.2537C88.6704 70.6252 88.2061 69.841 87.964 68.9787C87.7219 68.1165 87.7105 67.2062 87.9308 66.3382L87.9948 66.2461ZM85 58.6603C84.5141 58.8693 83.9836 58.9545 83.4563 58.9082C82.7847 58.848 82.1318 58.6554 81.5357 58.3416C80.4204 57.7563 79.2651 57.2498 78.0785 56.8259C78.4266 57.2963 78.9068 57.6536 79.4585 57.8529C80.2623 58.3912 81.7277 58.9578 81.3863 60.1831C79.7288 61.7839 76.67 62.5488 74.5359 63.2004C71.5553 63.2571 66.3909 63.9087 65.0322 60.4948C64.7059 60.3995 64.3853 60.286 64.0719 60.1548L64.2853 60.0344C64.7182 59.7923 65.2127 59.6816 65.708 59.7157C66.0381 59.7317 66.3609 59.8187 66.6541 59.9707C67.2444 60.2593 67.8527 60.5101 68.4752 60.7214C71.5909 61.5785 75.2188 60.8135 78.114 59.5669C76.6489 58.4917 75.0668 57.5841 73.3978 56.8613C71.1783 58.1929 68.1835 58.122 65.7578 57.4421C62.3646 59.319 60.1523 63.1509 59.5619 66.9048C59.151 65.1358 59.0618 63.3079 59.2987 61.5076C59.5351 59.4538 60.3131 57.4989 61.5537 55.8413L61.7102 55.6218C61.9032 55.3455 62.144 55.1056 62.4215 54.9135C65.705 52.751 69.482 51.4455 73.4049 51.1171C74.29 51.0723 75.1699 51.276 75.9444 51.7049C76.8976 52.2432 77.9647 52.9799 78.4911 53.334C80.2837 54.361 82.5814 55.9617 84.4451 57.2013C84.8996 57.5073 85.226 57.9683 85.3628 58.4974L85 58.6603Z" fill="url(#paint18_linear_1_336)"/>
</g>
<defs>
<linearGradient id="paint0_linear_1_336" x1="-2.21943" y1="19.4354" x2="64.79" y2="142.779" gradientUnits="userSpaceOnUse">
<stop stop-color="#2E1988"/>
<stop offset="0.05" stop-color="#351C91"/>
<stop offset="0.14" stop-color="#4725AB"/>
<stop offset="0.25" stop-color="#6432D4"/>
<stop offset="0.26" stop-color="#6834D9"/>
<stop offset="0.51" stop-color="#8A2CF4"/>
<stop offset="0.79" stop-color="#5F09AF"/>
<stop offset="1" stop-color="#170023"/>
</linearGradient>
<linearGradient id="paint1_linear_1_336" x1="-25.0539" y1="31.8375" x2="41.9626" y2="155.189" gradientUnits="userSpaceOnUse">
<stop stop-color="#2E1988"/>
<stop offset="0.05" stop-color="#351C91"/>
<stop offset="0.14" stop-color="#4725AB"/>
<stop offset="0.25" stop-color="#6432D4"/>
<stop offset="0.26" stop-color="#6834D9"/>
<stop offset="0.51" stop-color="#8A2CF4"/>
<stop offset="0.79" stop-color="#5F09AF"/>
<stop offset="1" stop-color="#170023"/>
</linearGradient>
<linearGradient id="paint2_linear_1_336" x1="11.2181" y1="12.133" x2="78.2346" y2="135.477" gradientUnits="userSpaceOnUse">
<stop stop-color="#2E1988"/>
<stop offset="0.05" stop-color="#351C91"/>
<stop offset="0.14" stop-color="#4725AB"/>
<stop offset="0.25" stop-color="#6432D4"/>
<stop offset="0.26" stop-color="#6834D9"/>
<stop offset="0.51" stop-color="#8A2CF4"/>
<stop offset="0.79" stop-color="#5F09AF"/>
<stop offset="1" stop-color="#170023"/>
</linearGradient>
<linearGradient id="paint3_linear_1_336" x1="9.75984" y1="12.9191" x2="76.7764" y2="136.27" gradientUnits="userSpaceOnUse">
<stop stop-color="#2E1988"/>
<stop offset="0.05" stop-color="#351C91"/>
<stop offset="0.14" stop-color="#4725AB"/>
<stop offset="0.25" stop-color="#6432D4"/>
<stop offset="0.26" stop-color="#6834D9"/>
<stop offset="0.51" stop-color="#8A2CF4"/>
<stop offset="0.79" stop-color="#5F09AF"/>
<stop offset="1" stop-color="#170023"/>
</linearGradient>
<linearGradient id="paint4_linear_1_336" x1="0.398358" y1="18.0117" x2="67.4149" y2="141.356" gradientUnits="userSpaceOnUse">
<stop stop-color="#2E1988"/>
<stop offset="0.05" stop-color="#351C91"/>
<stop offset="0.14" stop-color="#4725AB"/>
<stop offset="0.25" stop-color="#6432D4"/>
<stop offset="0.26" stop-color="#6834D9"/>
<stop offset="0.51" stop-color="#8A2CF4"/>
<stop offset="0.79" stop-color="#5F09AF"/>
<stop offset="1" stop-color="#170023"/>
</linearGradient>
<linearGradient id="paint5_linear_1_336" x1="-12.0931" y1="24.7971" x2="54.9235" y2="148.141" gradientUnits="userSpaceOnUse">
<stop stop-color="#2E1988"/>
<stop offset="0.05" stop-color="#351C91"/>
<stop offset="0.14" stop-color="#4725AB"/>
<stop offset="0.25" stop-color="#6432D4"/>
<stop offset="0.26" stop-color="#6834D9"/>
<stop offset="0.51" stop-color="#8A2CF4"/>
<stop offset="0.79" stop-color="#5F09AF"/>
<stop offset="1" stop-color="#170023"/>
</linearGradient>
<linearGradient id="paint6_linear_1_336" x1="-23.1404" y1="30.7963" x2="43.8761" y2="154.147" gradientUnits="userSpaceOnUse">
<stop stop-color="#2E1988"/>
<stop offset="0.05" stop-color="#351C91"/>
<stop offset="0.14" stop-color="#4725AB"/>
<stop offset="0.25" stop-color="#6432D4"/>
<stop offset="0.26" stop-color="#6834D9"/>
<stop offset="0.51" stop-color="#8A2CF4"/>
<stop offset="0.79" stop-color="#5F09AF"/>
<stop offset="1" stop-color="#170023"/>
</linearGradient>
<linearGradient id="paint7_linear_1_336" x1="0.0426725" y1="18.203" x2="67.0592" y2="141.547" gradientUnits="userSpaceOnUse">
<stop stop-color="#2E1988"/>
<stop offset="0.05" stop-color="#351C91"/>
<stop offset="0.14" stop-color="#4725AB"/>
<stop offset="0.25" stop-color="#6432D4"/>
<stop offset="0.26" stop-color="#6834D9"/>
<stop offset="0.51" stop-color="#8A2CF4"/>
<stop offset="0.79" stop-color="#5F09AF"/>
<stop offset="1" stop-color="#170023"/>
</linearGradient>
<linearGradient id="paint8_linear_1_336" x1="19.1212" y1="7.83364" x2="86.1377" y2="131.185" gradientUnits="userSpaceOnUse">
<stop stop-color="#2E1988"/>
<stop offset="0.05" stop-color="#351C91"/>
<stop offset="0.14" stop-color="#4725AB"/>
<stop offset="0.25" stop-color="#6432D4"/>
<stop offset="0.26" stop-color="#6834D9"/>
<stop offset="0.51" stop-color="#8A2CF4"/>
<stop offset="0.79" stop-color="#5F09AF"/>
<stop offset="1" stop-color="#170023"/>
</linearGradient>
<linearGradient id="paint9_linear_1_336" x1="16.8805" y1="9.05191" x2="83.897" y2="132.403" gradientUnits="userSpaceOnUse">
<stop stop-color="#2E1988"/>
<stop offset="0.05" stop-color="#351C91"/>
<stop offset="0.14" stop-color="#4725AB"/>
<stop offset="0.25" stop-color="#6432D4"/>
<stop offset="0.26" stop-color="#6834D9"/>
<stop offset="0.51" stop-color="#8A2CF4"/>
<stop offset="0.79" stop-color="#5F09AF"/>
<stop offset="1" stop-color="#170023"/>
</linearGradient>
<linearGradient id="paint10_linear_1_336" x1="1.02438" y1="17.6719" x2="68.0408" y2="141.016" gradientUnits="userSpaceOnUse">
<stop stop-color="#2E1988"/>
<stop offset="0.05" stop-color="#351C91"/>
<stop offset="0.14" stop-color="#4725AB"/>
<stop offset="0.25" stop-color="#6432D4"/>
<stop offset="0.26" stop-color="#6834D9"/>
<stop offset="0.51" stop-color="#8A2CF4"/>
<stop offset="0.79" stop-color="#5F09AF"/>
<stop offset="1" stop-color="#170023"/>
</linearGradient>
<linearGradient id="paint11_linear_1_336" x1="32.7082" y1="0.45331" x2="99.7247" y2="123.804" gradientUnits="userSpaceOnUse">
<stop stop-color="#2E1988"/>
<stop offset="0.05" stop-color="#351C91"/>
<stop offset="0.14" stop-color="#4725AB"/>
<stop offset="0.25" stop-color="#6432D4"/>
<stop offset="0.26" stop-color="#6834D9"/>
<stop offset="0.51" stop-color="#8A2CF4"/>
<stop offset="0.79" stop-color="#5F09AF"/>
<stop offset="1" stop-color="#170023"/>
</linearGradient>
<linearGradient id="paint12_linear_1_336" x1="24.5702" y1="4.87305" x2="91.5867" y2="128.224" gradientUnits="userSpaceOnUse">
<stop stop-color="#2E1988"/>
<stop offset="0.05" stop-color="#351C91"/>
<stop offset="0.14" stop-color="#4725AB"/>
<stop offset="0.25" stop-color="#6432D4"/>
<stop offset="0.26" stop-color="#6834D9"/>
<stop offset="0.51" stop-color="#8A2CF4"/>
<stop offset="0.79" stop-color="#5F09AF"/>
<stop offset="1" stop-color="#170023"/>
</linearGradient>
<linearGradient id="paint13_linear_1_336" x1="50.9829" y1="-9.47684" x2="117.999" y2="113.874" gradientUnits="userSpaceOnUse">
<stop stop-color="#2E1988"/>
<stop offset="0.05" stop-color="#351C91"/>
<stop offset="0.14" stop-color="#4725AB"/>
<stop offset="0.25" stop-color="#6432D4"/>
<stop offset="0.26" stop-color="#6834D9"/>
<stop offset="0.51" stop-color="#8A2CF4"/>
<stop offset="0.79" stop-color="#5F09AF"/>
<stop offset="1" stop-color="#170023"/>
</linearGradient>
<linearGradient id="paint14_linear_1_336" x1="51.6658" y1="-9.84514" x2="118.682" y2="113.506" gradientUnits="userSpaceOnUse">
<stop stop-color="#2E1988"/>
<stop offset="0.05" stop-color="#351C91"/>
<stop offset="0.14" stop-color="#4725AB"/>
<stop offset="0.25" stop-color="#6432D4"/>
<stop offset="0.26" stop-color="#6834D9"/>
<stop offset="0.51" stop-color="#8A2CF4"/>
<stop offset="0.79" stop-color="#5F09AF"/>
<stop offset="1" stop-color="#170023"/>
</linearGradient>
<linearGradient id="paint15_linear_1_336" x1="55.308" y1="-11.8284" x2="122.324" y2="111.523" gradientUnits="userSpaceOnUse">
<stop stop-color="#2E1988"/>
<stop offset="0.05" stop-color="#351C91"/>
<stop offset="0.14" stop-color="#4725AB"/>
<stop offset="0.25" stop-color="#6432D4"/>
<stop offset="0.26" stop-color="#6834D9"/>
<stop offset="0.51" stop-color="#8A2CF4"/>
<stop offset="0.79" stop-color="#5F09AF"/>
<stop offset="1" stop-color="#170023"/>
</linearGradient>
<linearGradient id="paint16_linear_1_336" x1="23.4105" y1="5.50366" x2="90.427" y2="128.855" gradientUnits="userSpaceOnUse">
<stop stop-color="#2E1988"/>
<stop offset="0.05" stop-color="#351C91"/>
<stop offset="0.14" stop-color="#4725AB"/>
<stop offset="0.25" stop-color="#6432D4"/>
<stop offset="0.26" stop-color="#6834D9"/>
<stop offset="0.51" stop-color="#8A2CF4"/>
<stop offset="0.79" stop-color="#5F09AF"/>
<stop offset="1" stop-color="#170023"/>
</linearGradient>
<linearGradient id="paint17_linear_1_336" x1="10.8269" y1="12.3386" x2="77.8428" y2="135.689" gradientUnits="userSpaceOnUse">
<stop stop-color="#2E1988"/>
<stop offset="0.05" stop-color="#351C91"/>
<stop offset="0.14" stop-color="#4725AB"/>
<stop offset="0.25" stop-color="#6432D4"/>
<stop offset="0.26" stop-color="#6834D9"/>
<stop offset="0.51" stop-color="#8A2CF4"/>
<stop offset="0.79" stop-color="#5F09AF"/>
<stop offset="1" stop-color="#170023"/>
</linearGradient>
<linearGradient id="paint18_linear_1_336" x1="18.9292" y1="7.93989" x2="85.9457" y2="131.291" gradientUnits="userSpaceOnUse">
<stop stop-color="#2E1988"/>
<stop offset="0.05" stop-color="#351C91"/>
<stop offset="0.14" stop-color="#4725AB"/>
<stop offset="0.25" stop-color="#6432D4"/>
<stop offset="0.26" stop-color="#6834D9"/>
<stop offset="0.51" stop-color="#8A2CF4"/>
<stop offset="0.79" stop-color="#5F09AF"/>
<stop offset="1" stop-color="#170023"/>
</linearGradient>
<clipPath id="clip0_1_336">
<rect width="111" height="140" fill="white"/>
</clipPath>
</defs>
</svg>
