<svg width="17" height="16" viewBox="0 0 17 16" fill="none" xmlns="http://www.w3.org/2000/svg">
<path d="M7 2V3" stroke="white" stroke-width="2" stroke-linecap="round"/>
<path d="M7 8V9" stroke="#DADADA" stroke-width="2" stroke-linecap="round"/>
<path d="M7 12V13" stroke="white" stroke-width="2" stroke-linecap="round"/>
<path d="M2.09202 14.1153L1.63803 15.0064L2.09202 14.1153ZM14.908 14.1153L15.362 15.0064L14.908 14.1153ZM15.782 13.2413L14.891 12.7873L15.782 13.2413ZM14.908 1.21799L15.362 0.32698L14.908 1.21799ZM15.782 2.09202L16.673 1.63803L15.782 2.09202ZM2.09202 1.21799L1.63803 0.32698L2.09202 1.21799ZM1.21799 2.09202L0.32698 1.63803L1.21799 2.09202ZM4.2 2H12.8V0H4.2V2ZM12.8 13.3333H4.2V15.3333H12.8V13.3333ZM15 4.2V5.80769H17V4.2H15ZM15.8077 5H15.1667V7H15.8077V5ZM15 9.52564V11.1333H17V9.52564H15ZM15.1667 10.3333H15.8077V8.33333H15.1667V10.3333ZM1.83333 5H1.19231V7H1.83333V5ZM2 5.80769V4.2H0V5.80769H2ZM2 11.1333V9.52564H0V11.1333H2ZM1.19231 10.3333H1.83333V8.33333H1.19231V10.3333ZM1.83333 10.3333C3.30609 10.3333 4.5 9.13943 4.5 7.66667H2.5C2.5 8.03486 2.20152 8.33333 1.83333 8.33333V10.3333ZM2 9.52564C2 9.97172 1.63838 10.3333 1.19231 10.3333V8.33333C0.533815 8.33333 0 8.86715 0 9.52564H2ZM1.19231 5C1.63838 5 2 5.36162 2 5.80769H0C0 6.46619 0.533814 7 1.19231 7V5ZM1.83333 7C2.20152 7 2.5 7.29848 2.5 7.66667H4.5C4.5 6.19391 3.30609 5 1.83333 5V7ZM12.5 7.66667C12.5 9.13943 13.6939 10.3333 15.1667 10.3333V8.33333C14.7985 8.33333 14.5 8.03486 14.5 7.66667H12.5ZM17 9.52564C17 8.86715 16.4662 8.33333 15.8077 8.33333V10.3333C15.3616 10.3333 15 9.97172 15 9.52564H17ZM15 5.80769C15 5.36162 15.3616 5 15.8077 5V7C16.4662 7 17 6.46619 17 5.80769H15ZM15.1667 5C13.6939 5 12.5 6.19391 12.5 7.66667H14.5C14.5 7.29848 14.7985 7 15.1667 7V5ZM4.2 13.3333C3.62345 13.3333 3.25117 13.3326 2.96784 13.3094C2.69617 13.2872 2.59545 13.2495 2.54601 13.2243L1.63803 15.0064C2.01641 15.1991 2.40963 15.2705 2.80497 15.3028C3.18864 15.3341 3.65645 15.3333 4.2 15.3333V13.3333ZM0 11.1333C0 11.6769 -0.000777721 12.1447 0.0305694 12.5284C0.0628704 12.9237 0.134186 13.3169 0.32698 13.6953L2.10899 12.7873C2.0838 12.7379 2.04612 12.6372 2.02393 12.3655C2.00078 12.0822 2 11.7099 2 11.1333H0ZM2.54601 13.2243C2.35785 13.1285 2.20487 12.9755 2.10899 12.7873L0.32698 13.6953C0.614601 14.2598 1.07354 14.7187 1.63803 15.0064L2.54601 13.2243ZM12.8 15.3333C13.3436 15.3333 13.8114 15.3341 14.195 15.3028C14.5904 15.2705 14.9836 15.1991 15.362 15.0064L14.454 13.2243C14.4045 13.2495 14.3038 13.2872 14.0322 13.3094C13.7488 13.3326 13.3766 13.3333 12.8 13.3333V15.3333ZM15 11.1333C15 11.7099 14.9992 12.0822 14.9761 12.3655C14.9539 12.6372 14.9162 12.7379 14.891 12.7873L16.673 13.6953C16.8658 13.3169 16.9371 12.9237 16.9694 12.5284C17.0008 12.1447 17 11.6769 17 11.1333H15ZM15.362 15.0064C15.9265 14.7187 16.3854 14.2598 16.673 13.6953L14.891 12.7873C14.7951 12.9755 14.6422 13.1285 14.454 13.2243L15.362 15.0064ZM12.8 2C13.3766 2 13.7488 2.00078 14.0322 2.02393C14.3038 2.04612 14.4045 2.0838 14.454 2.10899L15.362 0.32698C14.9836 0.134186 14.5904 0.0628704 14.195 0.0305694C13.8114 -0.000777721 13.3436 0 12.8 0V2ZM17 4.2C17 3.65645 17.0008 3.18864 16.9694 2.80497C16.9371 2.40963 16.8658 2.01641 16.673 1.63803L14.891 2.54601C14.9162 2.59545 14.9539 2.69617 14.9761 2.96784C14.9992 3.25117 15 3.62345 15 4.2H17ZM14.454 2.10899C14.6422 2.20487 14.7951 2.35785 14.891 2.54601L16.673 1.63803C16.3854 1.07354 15.9265 0.614601 15.362 0.32698L14.454 2.10899ZM4.2 0C3.65645 0 3.18864 -0.000777721 2.80497 0.0305694C2.40963 0.0628704 2.01641 0.134186 1.63803 0.32698L2.54601 2.10899C2.59545 2.0838 2.69617 2.04612 2.96784 2.02393C3.25117 2.00078 3.62345 2 4.2 2V0ZM2 4.2C2 3.62345 2.00078 3.25117 2.02393 2.96784C2.04612 2.69617 2.0838 2.59545 2.10899 2.54601L0.32698 1.63803C0.134186 2.01641 0.0628704 2.40963 0.0305694 2.80497C-0.000777721 3.18864 0 3.65645 0 4.2H2ZM1.63803 0.32698C1.07354 0.614601 0.614601 1.07354 0.32698 1.63803L2.10899 2.54601C2.20487 2.35785 2.35785 2.20487 2.54601 2.10899L1.63803 0.32698Z" fill="#DADADA"/>
</svg>
