<svg width="30" height="30" viewBox="0 0 30 30" fill="none" xmlns="http://www.w3.org/2000/svg">
<g id="Frame 36802">
<path id="Vector" d="M9.75 4.14307C9.55109 4.14307 9.36032 4.22208 9.21967 4.36274C9.07902 4.50339 9 4.69415 9 4.89307V12.3931C8.9995 13.8548 9.53264 15.2665 10.4993 16.363C11.466 17.4595 12.7997 18.1653 14.25 18.3481V23.6431H12C11.8011 23.6431 11.6103 23.7221 11.4697 23.8627C11.329 24.0034 11.25 24.1942 11.25 24.3931C11.25 24.592 11.329 24.7827 11.4697 24.9234C11.6103 25.064 11.8011 25.1431 12 25.1431H18C18.1989 25.1431 18.3897 25.064 18.5303 24.9234C18.671 24.7827 18.75 24.592 18.75 24.3931C18.75 24.1942 18.671 24.0034 18.5303 23.8627C18.3897 23.7221 18.1989 23.6431 18 23.6431H15.75V18.3481C17.2003 18.1653 18.534 17.4595 19.5007 16.363C20.4674 15.2665 21.0005 13.8548 21 12.3931V4.89307C21 4.69415 20.921 4.50339 20.7803 4.36274C20.6397 4.22208 20.4489 4.14307 20.25 4.14307H9.75ZM10.5 8.64307V5.64307H19.5V8.64307H10.5ZM19.0995 12.0976C19.0035 12.9634 18.6358 13.7766 18.0492 14.4206C17.4626 15.0646 16.6871 15.5064 15.834 15.6826C15.6391 15.7227 15.4362 15.6838 15.2699 15.5744C15.1037 15.465 14.9877 15.294 14.9475 15.0991C14.9073 14.9041 14.9462 14.7012 15.0556 14.535C15.1651 14.3687 15.3361 14.2527 15.531 14.2126C16.0736 14.1004 16.5668 13.8194 16.94 13.4099C17.3131 13.0003 17.5472 12.4832 17.6085 11.9326C17.6193 11.8347 17.6493 11.7399 17.6968 11.6536C17.7443 11.5673 17.8083 11.4911 17.8852 11.4296C17.9621 11.368 18.0503 11.3222 18.1449 11.2947C18.2395 11.2673 18.3386 11.2587 18.4365 11.2696C18.5344 11.2804 18.6292 11.3104 18.7155 11.3579C18.8018 11.4054 18.8779 11.4694 18.9395 11.5463C19.001 11.6231 19.0469 11.7114 19.0743 11.806C19.1018 11.9006 19.1103 11.9997 19.0995 12.0976Z" fill="#CD3AFF"/>
</g>
</svg>
