<svg width="28" height="28" viewBox="0 0 28 28" fill="none" xmlns="http://www.w3.org/2000/svg">
<path d="M13.9912 24.0566C18.9746 24.0566 23.0879 19.9434 23.0879 14.9688C23.0879 12.9561 22.4111 11.084 21.2773 9.57227L21.9805 8.86914C22.209 8.64062 22.332 8.36816 22.332 8.10449C22.332 7.55957 21.9014 7.12891 21.3477 7.12891C21.0225 7.12891 20.7939 7.22559 20.5654 7.44531L19.9062 8.0957C18.5527 6.92676 16.8564 6.15332 15.0107 5.93359V5.0459C15.0107 4.46582 14.5537 4 13.9912 4C13.4375 4 12.9717 4.46582 12.9717 5.0459V5.93359C8.46289 6.45215 4.90332 10.3369 4.90332 14.9688C4.90332 19.9434 9.0166 24.0566 13.9912 24.0566ZM13.9912 22.2461C9.95703 22.2461 6.73145 19.0029 6.73145 14.9688C6.73145 10.9346 9.95703 7.7002 13.9824 7.7002C18.0166 7.7002 21.2598 10.9346 21.2686 14.9688C21.2773 19.0029 18.0254 22.2461 13.9912 22.2461ZM13.9912 16.498C14.835 16.498 15.5117 15.8125 15.5117 14.9775C15.5117 14.3975 15.1865 13.9053 14.6943 13.6328V9.58984C14.6943 9.19434 14.3867 8.88672 13.9824 8.88672C13.5957 8.88672 13.2881 9.19434 13.2881 9.58984V13.6328C12.7959 13.9053 12.4707 14.4062 12.4707 14.9775C12.4707 15.8125 13.1475 16.498 13.9912 16.498Z" fill="white"/>
</svg>
