<svg width="28" height="28" viewBox="0 0 28 28" fill="none" xmlns="http://www.w3.org/2000/svg">
<path d="M20.4 4H7.6C7.17565 4 6.76869 4.16209 6.46863 4.4506C6.16857 4.73912 6 5.13044 6 5.53846V22.4615C6 22.8696 6.16857 23.2609 6.46863 23.5494C6.76869 23.8379 7.17565 24 7.6 24H20.4C20.8243 24 21.2313 23.8379 21.5314 23.5494C21.8314 23.2609 22 22.8696 22 22.4615V5.53846C22 5.13044 21.8314 4.73912 21.5314 4.4506C21.2313 4.16209 20.8243 4 20.4 4ZM20.4 22.4615H7.6V5.53846H20.4V22.4615ZM12.8 9C12.8 8.77179 12.8704 8.54871 13.0022 8.35896C13.1341 8.16921 13.3215 8.02132 13.5408 7.93399C13.7601 7.84665 14.0013 7.8238 14.2341 7.86832C14.4669 7.91285 14.6807 8.02274 14.8485 8.18411C15.0164 8.34548 15.1306 8.55107 15.1769 8.7749C15.2232 8.99872 15.1995 9.23072 15.1087 9.44156C15.0178 9.6524 14.864 9.8326 14.6667 9.95939C14.4693 10.0862 14.2373 10.1538 14 10.1538C13.6817 10.1538 13.3765 10.0323 13.1515 9.81589C12.9264 9.5995 12.8 9.30602 12.8 9ZM14 20.1538C14.7911 20.1538 15.5645 19.9283 16.2223 19.5057C16.8801 19.083 17.3928 18.4823 17.6955 17.7796C17.9983 17.0768 18.0775 16.3034 17.9231 15.5573C17.7688 14.8113 17.3878 14.1259 16.8284 13.5881C16.269 13.0502 15.5563 12.6838 14.7804 12.5354C14.0044 12.387 13.2002 12.4632 12.4693 12.7543C11.7384 13.0454 11.1136 13.5384 10.6741 14.1709C10.2346 14.8034 10 15.547 10 16.3077C10 16.8128 10.1035 17.3129 10.3045 17.7796C10.5055 18.2462 10.8001 18.6702 11.1716 19.0273C11.9217 19.7486 12.9391 20.1538 14 20.1538ZM14 14C14.4747 14 14.9387 14.1353 15.3334 14.3889C15.728 14.6425 16.0357 15.0029 16.2173 15.4246C16.399 15.8463 16.4465 16.3103 16.3539 16.7579C16.2613 17.2056 16.0327 17.6167 15.6971 17.9395C15.3614 18.2622 14.9338 18.482 14.4682 18.571C14.0027 18.6601 13.5201 18.6144 13.0816 18.4397C12.643 18.2651 12.2682 17.9693 12.0045 17.5898C11.7408 17.2103 11.6 16.7641 11.6 16.3077C11.6 15.6957 11.8529 15.1087 12.3029 14.6759C12.753 14.2431 13.3635 14 14 14Z" fill="white"/>
</svg>
