<svg width="24" height="24" viewBox="0 0 24 24" fill="none" xmlns="http://www.w3.org/2000/svg">
<g clip-path="url(#clip0_343_54)">
<g filter="url(#filter0_d_343_54)">
<path d="M21.5604 3.96949C21.6716 3.82924 21.7414 3.66065 21.7617 3.4828C21.782 3.30495 21.7521 3.12497 21.6754 2.96324C21.5977 2.80016 21.4755 2.66235 21.3229 2.5657C21.1703 2.46906 20.9935 2.4175 20.8129 2.41699H3.5629C3.38226 2.4175 3.20545 2.46906 3.05285 2.5657C2.90025 2.66235 2.77807 2.80016 2.7004 2.96324C2.62367 3.12497 2.59378 3.30495 2.61411 3.4828C2.63443 3.66065 2.70416 3.82924 2.8154 3.96949L11.2296 14.492V19.667H5.71915C5.46498 19.667 5.22122 19.768 5.0415 19.9477C4.86178 20.1274 4.76081 20.3712 4.76081 20.6253C4.76081 20.8795 4.86178 21.1232 5.0415 21.303C5.22122 21.4827 5.46498 21.5837 5.71915 21.5837H18.6566C18.9108 21.5837 19.1546 21.4827 19.3343 21.303C19.514 21.1232 19.615 20.8795 19.615 20.6253C19.615 20.3712 19.514 20.1274 19.3343 19.9477C19.1546 19.768 18.9108 19.667 18.6566 19.667H13.1462V14.492L21.5604 3.96949ZM5.55623 4.33366H18.8196L16.5196 7.20866H7.89456L5.55623 4.33366ZM12.1879 12.6232L9.38956 9.12533H14.9862L12.1879 12.6232Z" fill="#CD3AFF"/>
<path d="M11.3796 14.492V14.4394L11.3467 14.3983L2.93292 3.87628C2.93286 3.87621 2.93281 3.87614 2.93275 3.87607C2.83903 3.75781 2.78027 3.61569 2.76314 3.46577C2.74599 3.31576 2.77121 3.16395 2.83592 3.02753L2.7004 2.96325L2.83582 3.02774C2.90133 2.89019 3.00439 2.77395 3.13311 2.69243C3.26177 2.61094 3.41083 2.56746 3.56312 2.56699H20.8127C20.965 2.56746 21.114 2.61094 21.2427 2.69243C21.3714 2.77395 21.4745 2.89019 21.54 3.02774C21.6046 3.1641 21.6298 3.31584 21.6126 3.46577C21.5955 3.61563 21.5368 3.7577 21.4432 3.87592C21.4431 3.87604 21.443 3.87616 21.4429 3.87628L13.0291 14.3983L12.9962 14.4394V14.492V19.667V19.817H13.1462H18.6566C18.871 19.817 19.0766 19.9022 19.2282 20.0537C19.3798 20.2053 19.465 20.4109 19.465 20.6253C19.465 20.8397 19.3798 21.0453 19.2282 21.1969C19.0766 21.3485 18.871 21.4337 18.6566 21.4337H5.71915C5.50476 21.4337 5.29916 21.3485 5.14757 21.1969C4.99598 21.0453 4.91081 20.8397 4.91081 20.6253C4.91081 20.4109 4.99598 20.2053 5.14757 20.0537C5.29916 19.9022 5.50476 19.817 5.71915 19.817H11.2296H11.3796V19.667V14.492ZM5.55623 4.18366H5.24088L5.43986 4.42831L7.77819 7.30331L7.82321 7.35866H7.89456H16.5196H16.5917L16.6367 7.30236L18.9367 4.42736L19.1317 4.18366H18.8196H5.55623ZM12.0708 12.7169L12.1879 12.8634L12.305 12.7169L15.1034 9.21903L15.2983 8.97533H14.9862H9.38956H9.07747L9.27243 9.21903L12.0708 12.7169Z" stroke="#150C23" stroke-width="0.3"/>
</g>
</g>
<defs>
<filter id="filter0_d_343_54" x="2.60791" y="2.41699" width="31.4716" height="31.4781" filterUnits="userSpaceOnUse" color-interpolation-filters="sRGB">
<feFlood flood-opacity="0" result="BackgroundImageFix"/>
<feColorMatrix in="SourceAlpha" type="matrix" values="0 0 0 0 0 0 0 0 0 0 0 0 0 0 0 0 0 0 127 0" result="hardAlpha"/>
<feOffset dx="6.15582" dy="6.15582"/>
<feGaussianBlur stdDeviation="3.07791"/>
<feComposite in2="hardAlpha" operator="out"/>
<feColorMatrix type="matrix" values="0 0 0 0 0 0 0 0 0 0 0 0 0 0 0 0 0 0 0.25 0"/>
<feBlend mode="normal" in2="BackgroundImageFix" result="effect1_dropShadow_343_54"/>
<feBlend mode="normal" in="SourceGraphic" in2="effect1_dropShadow_343_54" result="shape"/>
</filter>
<clipPath id="clip0_343_54">
<rect width="23" height="23" fill="white" transform="translate(0.687988 0.5)"/>
</clipPath>
</defs>
</svg>
