<svg width="24" height="24" viewBox="0 0 24 24" fill="none" xmlns="http://www.w3.org/2000/svg">
<g clip-path="url(#clip0_31_2073)">
<g filter="url(#filter0_d_31_2073)">
<path d="M12.7141 2.00049C10.5924 2.00049 8.55755 2.84334 7.05726 4.34363C5.55697 5.84393 4.71411 7.87876 4.71411 10.0005C4.71411 15.4005 11.7641 21.5005 12.0641 21.7605C12.2452 21.9154 12.4758 22.0006 12.7141 22.0006C12.9525 22.0006 13.183 21.9154 13.3641 21.7605C13.7141 21.5005 20.7141 15.4005 20.7141 10.0005C20.7141 7.87876 19.8713 5.84393 18.371 4.34363C16.8707 2.84334 14.8358 2.00049 12.7141 2.00049V2.00049ZM12.7141 19.6505C10.5841 17.6505 6.71411 13.3405 6.71411 10.0005C6.71411 8.40919 7.34625 6.88307 8.47147 5.75785C9.59669 4.63263 11.1228 4.00049 12.7141 4.00049C14.3054 4.00049 15.8315 4.63263 16.9568 5.75785C18.082 6.88307 18.7141 8.40919 18.7141 10.0005C18.7141 13.3405 14.8441 17.6605 12.7141 19.6505ZM12.7141 6.00049C11.923 6.00049 11.1496 6.23508 10.4918 6.67461C9.83403 7.11414 9.32134 7.73885 9.01859 8.46975C8.71584 9.20066 8.63663 10.0049 8.79097 10.7808C8.94531 11.5568 9.32627 12.2695 9.88568 12.8289C10.4451 13.3883 11.1578 13.7693 11.9337 13.9236C12.7097 14.078 13.5139 13.9988 14.2448 13.696C14.9757 13.3933 15.6005 12.8806 16.04 12.2228C16.4795 11.565 16.7141 10.7916 16.7141 10.0005C16.7141 8.93962 16.2927 7.92221 15.5425 7.17206C14.7924 6.42192 13.775 6.00049 12.7141 6.00049ZM12.7141 12.0005C12.3185 12.0005 11.9319 11.8832 11.603 11.6634C11.2741 11.4437 11.0177 11.1313 10.8664 10.7659C10.715 10.4004 10.6754 9.99827 10.7525 9.61031C10.8297 9.22235 11.0202 8.86598 11.2999 8.58628C11.5796 8.30657 11.936 8.11609 12.3239 8.03892C12.7119 7.96175 13.114 8.00135 13.4795 8.15273C13.8449 8.3041 14.1573 8.56045 14.377 8.88935C14.5968 9.21825 14.7141 9.60493 14.7141 10.0005C14.7141 10.5309 14.5034 11.0396 14.1283 11.4147C13.7533 11.7898 13.2445 12.0005 12.7141 12.0005Z" fill="#CD3AFF"/>
<path d="M13.2747 21.6401L13.2745 21.6398L13.2666 21.6465C13.1126 21.7782 12.9167 21.8506 12.7141 21.8506C12.5115 21.8506 12.3156 21.7782 12.1616 21.6465L12.1607 21.6457C12.0016 21.5078 10.1786 19.928 8.39338 17.7138C6.59568 15.4842 4.86411 12.6447 4.86411 10.0005C4.86411 7.91854 5.69116 5.92186 7.16332 4.4497C8.63548 2.97754 10.6322 2.15049 12.7141 2.15049C14.7961 2.15049 16.7927 2.97754 18.2649 4.4497C19.7371 5.92186 20.5641 7.91854 20.5641 10.0005C20.5641 12.645 18.8447 15.4846 17.0534 17.714C15.2664 19.9382 13.4379 21.5188 13.2747 21.6401ZM12.6114 19.7598L12.7139 19.856L12.8165 19.7601C13.8866 18.7603 15.3941 17.1752 16.6354 15.4183C17.8723 13.6676 18.8641 11.7198 18.8641 10.0005C18.8641 8.36941 18.2162 6.80513 17.0628 5.65178C15.9095 4.49843 14.3452 3.85049 12.7141 3.85049C11.083 3.85049 9.51875 4.49843 8.3654 5.65178C7.21206 6.80513 6.56411 8.36941 6.56411 10.0005C6.56411 11.7198 7.556 13.6652 8.79288 15.4146C10.0341 17.1702 11.5416 18.7553 12.6114 19.7598ZM10.5752 6.79933C11.2083 6.37629 11.9527 6.15049 12.7141 6.15049C13.7352 6.15049 14.7145 6.55611 15.4365 7.27813C16.1585 8.00014 16.5641 8.9794 16.5641 10.0005C16.5641 10.7619 16.3383 11.5063 15.9153 12.1394C15.4922 12.7726 14.8909 13.266 14.1874 13.5574C13.4839 13.8488 12.7098 13.9251 11.963 13.7765C11.2162 13.628 10.5302 13.2613 9.99175 12.7228C9.45332 12.1844 9.08664 11.4984 8.93809 10.7516C8.78953 10.0048 8.86578 9.23065 9.15717 8.52716C9.44857 7.82366 9.94204 7.22237 10.5752 6.79933ZM11.5196 11.7881C11.8732 12.0244 12.2889 12.1505 12.7141 12.1505C13.2843 12.1505 13.8312 11.924 14.2344 11.5208C14.6376 11.1176 14.8641 10.5707 14.8641 10.0005C14.8641 9.57526 14.738 9.15958 14.5018 8.80601C14.2655 8.45245 13.9297 8.17688 13.5369 8.01415C13.144 7.85142 12.7117 7.80884 12.2947 7.8918C11.8776 7.97476 11.4945 8.17953 11.1938 8.48021C10.8931 8.78089 10.6884 9.16398 10.6054 9.58104C10.5225 9.9981 10.565 10.4304 10.7278 10.8233C10.8905 11.2161 11.1661 11.5519 11.5196 11.7881Z" stroke="#150C23" stroke-width="0.3"/>
</g>
</g>
<defs>
<filter id="filter0_d_31_2073" x="4.71411" y="2.00049" width="28.3116" height="32.3116" filterUnits="userSpaceOnUse" color-interpolation-filters="sRGB">
<feFlood flood-opacity="0" result="BackgroundImageFix"/>
<feColorMatrix in="SourceAlpha" type="matrix" values="0 0 0 0 0 0 0 0 0 0 0 0 0 0 0 0 0 0 127 0" result="hardAlpha"/>
<feOffset dx="6.15582" dy="6.15582"/>
<feGaussianBlur stdDeviation="3.07791"/>
<feComposite in2="hardAlpha" operator="out"/>
<feColorMatrix type="matrix" values="0 0 0 0 0 0 0 0 0 0 0 0 0 0 0 0 0 0 0.25 0"/>
<feBlend mode="normal" in2="BackgroundImageFix" result="effect1_dropShadow_31_2073"/>
<feBlend mode="normal" in="SourceGraphic" in2="effect1_dropShadow_31_2073" result="shape"/>
</filter>
<clipPath id="clip0_31_2073">
<rect width="24" height="24" fill="white" transform="translate(0.714111)"/>
</clipPath>
</defs>
</svg>
