<svg width="20" height="15" viewBox="0 0 20 15" fill="none" xmlns="http://www.w3.org/2000/svg">
<path d="M19.2879 7.20037C18.5302 5.2404 17.2148 3.54541 15.5043 2.3249C13.7937 1.10439 11.763 0.411851 9.66316 0.332886C7.56331 0.411851 5.53261 1.10439 3.82207 2.3249C2.11152 3.54541 0.796097 5.2404 0.0383797 7.20037C-0.0127932 7.34191 -0.0127932 7.4969 0.0383797 7.63844C0.796097 9.59841 2.11152 11.2934 3.82207 12.5139C5.53261 13.7344 7.56331 14.427 9.66316 14.5059C11.763 14.427 13.7937 13.7344 15.5043 12.5139C17.2148 11.2934 18.5302 9.59841 19.2879 7.63844C19.3391 7.4969 19.3391 7.34191 19.2879 7.20037ZM9.66316 13.2175C6.24875 13.2175 2.64107 10.6856 1.33328 7.41941C2.64107 4.15316 6.24875 1.62134 9.66316 1.62134C13.0776 1.62134 16.6853 4.15316 17.993 7.41941C16.6853 10.6856 13.0776 13.2175 9.66316 13.2175Z" fill="#3A9CDD"/>
<path d="M9.66316 3.55403C8.89866 3.55403 8.15133 3.78073 7.51567 4.20546C6.88002 4.6302 6.38458 5.23389 6.09202 5.94019C5.79946 6.6465 5.72291 7.42369 5.87206 8.1735C6.02121 8.92331 6.38935 9.61206 6.92993 10.1526C7.47051 10.6932 8.15926 11.0614 8.90907 11.2105C9.65887 11.3597 10.4361 11.2831 11.1424 10.9905C11.8487 10.698 12.4524 10.2025 12.8771 9.56689C13.3018 8.93124 13.5285 8.1839 13.5285 7.41941C13.5285 6.39424 13.1213 5.41107 12.3964 4.68617C11.6715 3.96127 10.6883 3.55403 9.66316 3.55403ZM9.66316 9.99632C9.1535 9.99632 8.65528 9.84519 8.2315 9.56203C7.80773 9.27888 7.47744 8.87642 7.2824 8.40555C7.08736 7.93468 7.03633 7.41655 7.13576 6.91667C7.23519 6.4168 7.48062 5.95764 7.84101 5.59725C8.2014 5.23686 8.66056 4.99143 9.16043 4.892C9.6603 4.79257 10.1784 4.8436 10.6493 5.03864C11.1202 5.23369 11.5226 5.56398 11.8058 5.98775C12.0889 6.41152 12.2401 6.90974 12.2401 7.41941C12.2401 8.10285 11.9686 8.75829 11.4853 9.24156C11.0021 9.72482 10.3466 9.99632 9.66316 9.99632Z" fill="#3A9CDD"/>
</svg>
